Rhodium-Regular.ufo
<glyph name="numbersign" format="1">
  <advance width="721"/>
  <unicode hex="0023"/>
  <outline>
    <contour>
      <point x="521" y="680" type="line"/>
      <point x="377" y="0" type="line"/>
      <point x="455" y="0" type="line"/>
      <point x="599" y="680" type="line"/>
    </contour>
    <contour>
      <point x="10" y="245" type="line"/>
      <point x="10" y="175" type="line"/>
      <point x="646" y="175" type="line"/>
      <point x="646" y="245" type="line"/>
    </contour>
    <contour>
      <point x="257" y="680" type="line"/>
      <point x="112" y="0" type="line"/>
      <point x="190" y="0" type="line"/>
      <point x="335" y="680" type="line"/>
    </contour>
    <contour>
      <point x="65" y="505" type="line"/>
      <point x="65" y="435" type="line"/>
      <point x="701" y="435" type="line"/>
      <point x="701" y="505" type="line"/>
    </contour>
  </outline>
</glyph>
<glyph name="dollar" format="1">
  <advance width="546"/>
  <unicode hex="0024"/>
  <outline>
    <contour>
      <point x="294" y="652" type="line"/>
      <point x="188" y="-102" type="line"/>
      <point x="252" y="-102" type="line"/>
      <point x="358" y="652" type="line"/>
    </contour>
    <contour>
      <point x="412" y="90"/>
      <point x="381" y="71"/>
      <point x="278" y="71" type="curve" smooth="yes"/>
      <point x="216" y="71"/>
      <point x="176" y="78"/>
      <point x="119" y="93" type="curve"/>
      <point x="151" y="48" type="line"/>
      <point x="110" y="167" type="line"/>
      <point x="57" y="167" type="line"/>
      <point x="57" y="36" type="line"/>
      <point x="132" y="16"/>
      <point x="197" y="9"/>
      <point x="269" y="9" type="curve" smooth="yes"/>
      <point x="449" y="9"/>
      <point x="496" y="52"/>
      <point x="496" y="160" type="curve" smooth="yes"/>
      <point x="496" y="258"/>
      <point x="462" y="290"/>
      <point x="335" y="307" type="curve" smooth="yes"/>
      <point x="186" y="327"/>
      <point x="134" y="327"/>
      <point x="134" y="407" type="curve" smooth="yes"/>
      <point x="134" y="467"/>
      <point x="161" y="486"/>
      <point x="268" y="486" type="curve" smooth="yes"/>
      <point x="329" y="486"/>
      <point x="368" y="480"/>
      <point x="424" y="467" type="curve"/>
      <point x="392" y="512" type="line"/>
      <point x="433" y="393" type="line"/>
      <point x="486" y="393" type="line"/>
      <point x="486" y="524" type="line"/>
      <point x="412" y="542"/>
      <point x="348" y="548"/>
      <point x="280" y="548" type="curve" smooth="yes"/>
      <point x="97" y="548"/>
      <point x="50" y="505"/>
      <point x="50" y="397" type="curve" smooth="yes"/>
      <point x="50" y="303"/>
      <point x="91" y="258"/>
      <point x="222" y="239" type="curve" smooth="yes"/>
      <point x="354" y="220"/>
      <point x="412" y="221"/>
      <point x="412" y="150" type="curve" smooth="yes"/>
    </contour>
  </outline>
</glyph>
<glyph name="quotesingle" format="1">
  <advance width="242"/>
  <unicode hex="0027"/>
  <outline>
    <contour>
      <point x="171" y="680" type="line"/>
      <point x="71" y="680" type="line"/>
      <point x="71" y="635" type="line"/>
      <point x="97" y="358" type="line"/>
      <point x="145" y="358" type="line"/>
      <point x="171" y="635" type="line"/>
    </contour>
  </outline>
</glyph>
<glyph name="period" format="1">
  <advance width="246"/>
  <unicode hex="002E"/>
  <outline>
    <contour>
      <point x="81" y="128"/>
      <point x="55" y="104"/>
      <point x="55" y="60" type="curve" smooth="yes"/>
      <point x="55" y="16"/>
      <point x="81" y="-8"/>
      <point x="123" y="-8" type="curve" smooth="yes"/>
      <point x="165" y="-8"/>
      <point x="191" y="16"/>
      <point x="191" y="60" type="curve" smooth="yes"/>
      <point x="191" y="104"/>
      <point x="165" y="128"/>
      <point x="123" y="128" type="curve" smooth="yes"/>
    </contour>
  </outline>
</glyph>
<glyph name="one" format="1">
  <advance width="354"/>
  <unicode hex="0031"/>
  <outline>
    <contour>
      <point x="52" y="55" type="line"/>
      <point x="52" y="0" type="line"/>
      <point x="322" y="0" type="line"/>
      <point x="322" y="55" type="line"/>
      <point x="229" y="85" type="line"/>
      <point x="229" y="548" type="line"/>
      <point x="165" y="548" type="line"/>
      <point x="37" y="518" type="line"/>
      <point x="37" y="463" type="line"/>
      <point x="145" y="463" type="line"/>
      <point x="145" y="85" type="line"/>
    </contour>
  </outline>
</glyph>
<glyph name="three" format="1">
  <advance width="564"/>
  <unicode hex="0033"/>
  <outline>
    <contour>
      <point x="40" y="548" type="line"/>
      <point x="40" y="378" type="line"/>
      <point x="98" y="378" type="line"/>
      <point x="127" y="501" type="line"/>
      <point x="95" y="478" type="line"/>
      <point x="444" y="478" type="line"/>
      <point x="444" y="514" type="line"/>
      <point x="194" y="251" type="line"/>
      <point x="194" y="191" type="line"/>
      <point x="231" y="191" type="line" smooth="yes"/>
      <point x="399" y="191"/>
      <point x="441" y="152"/>
      <point x="441" y="63" type="curve" smooth="yes"/>
      <point x="441" y="-36"/>
      <point x="393" y="-72"/>
      <point x="277" y="-72" type="curve" smooth="yes"/>
      <point x="231" y="-72"/>
      <point x="189" y="-67"/>
      <point x="153" y="-57" type="curve"/>
      <point x="191" y="-99" type="line"/>
      <point x="124" y="63" type="line"/>
      <point x="56" y="63"/>
      <point x="30" y="39"/>
      <point x="30" y="-11" type="curve" smooth="yes"/>
      <point x="30" y="-95"/>
      <point x="125" y="-144"/>
      <point x="273" y="-144" type="curve" smooth="yes"/>
      <point x="462" y="-144"/>
      <point x="529" y="-57"/>
      <point x="529" y="66" type="curve" smooth="yes"/>
      <point x="529" y="200"/>
      <point x="446" y="259"/>
      <point x="277" y="259" type="curve"/>
      <point x="277" y="233" type="line"/>
      <point x="519" y="488" type="line"/>
      <point x="519" y="548" type="line"/>
    </contour>
  </outline>
</glyph>
<glyph name="four" format="1">
  <advance width="583"/>
  <unicode hex="0034"/>
  <outline>
    <contour>
      <point x="478" y="-136" type="line"/>
      <point x="478" y="50" type="line"/>
      <point x="578" y="50" type="line"/>
      <point x="578" y="120" type="line"/>
      <point x="478" y="120" type="line"/>
      <point x="478" y="303" type="line"/>
      <point x="394" y="303" type="line"/>
      <point x="394" y="120" type="line"/>
      <point x="80" y="120" type="line"/>
      <point x="87" y="106" type="line"/>
      <point x="209" y="198"/>
      <point x="337" y="362"/>
      <point x="368" y="548" type="curve"/>
      <point x="276" y="548" type="line"/>
      <point x="239" y="374"/>
      <point x="141" y="241"/>
      <point x="10" y="120" type="curve"/>
      <point x="10" y="50" type="line"/>
      <point x="394" y="50" type="line"/>
      <point x="394" y="-136" type="line"/>
    </contour>
  </outline>
</glyph>
<glyph name="five" format="1">
  <advance width="588"/>
  <unicode hex="0035"/>
  <outline>
    <contour>
      <point x="253" y="-72"/>
      <point x="208" y="-68"/>
      <point x="173" y="-57" type="curve"/>
      <point x="211" y="-99" type="line"/>
      <point x="144" y="63" type="line"/>
      <point x="76" y="63"/>
      <point x="50" y="39"/>
      <point x="50" y="-11" type="curve" smooth="yes"/>
      <point x="50" y="-95"/>
      <point x="140" y="-144"/>
      <point x="293" y="-144" type="curve" smooth="yes"/>
      <point x="462" y="-144"/>
      <point x="548" y="-66"/>
      <point x="548" y="90" type="curve" smooth="yes"/>
      <point x="548" y="239"/>
      <point x="470" y="320"/>
      <point x="326" y="320" type="curve" smooth="yes"/>
      <point x="239" y="320"/>
      <point x="168" y="290"/>
      <point x="134" y="238" type="curve"/>
      <point x="154" y="238" type="line"/>
      <point x="154" y="505" type="line"/>
      <point x="133" y="478" type="line"/>
      <point x="515" y="478" type="line"/>
      <point x="515" y="548" type="line"/>
      <point x="70" y="548" type="line"/>
      <point x="70" y="203" type="line"/>
      <point x="150" y="193" type="line"/>
      <point x="193" y="229"/>
      <point x="241" y="248"/>
      <point x="308" y="248" type="curve" smooth="yes"/>
      <point x="413" y="248"/>
      <point x="460" y="202"/>
      <point x="460" y="87" type="curve" smooth="yes"/>
      <point x="460" y="-30"/>
      <point x="412" y="-72"/>
      <point x="298" y="-72" type="curve" smooth="yes"/>
    </contour>
  </outline>
</glyph>
<glyph name="six" format="1">
  <advance width="618"/>
  <unicode hex="0036"/>
  <outline>
    <contour>
      <point x="156" y="692"/>
      <point x="50" y="591"/>
      <point x="50" y="341" type="curve" smooth="yes"/>
      <point x="50" y="104"/>
      <point x="145" y="-12"/>
      <point x="328" y="-12" type="curve" smooth="yes"/>
      <point x="490" y="-12"/>
      <point x="576" y="81"/>
      <point x="576" y="218" type="curve" smooth="yes"/>
      <point x="576" y="338"/>
      <point x="510" y="423"/>
      <point x="355" y="423" type="curve" smooth="yes"/>
      <point x="264" y="423"/>
      <point x="181" y="394"/>
      <point x="123" y="354" type="curve"/>
      <point x="123" y="282" type="line"/>
      <point x="182" y="324"/>
      <point x="256" y="351"/>
      <point x="337" y="351" type="curve" smooth="yes"/>
      <point x="443" y="351"/>
      <point x="488" y="304"/>
      <point x="488" y="214" type="curve" smooth="yes"/>
      <point x="488" y="114"/>
      <point x="433" y="60"/>
      <point x="329" y="60" type="curve" smooth="yes"/>
      <point x="194" y="60"/>
      <point x="138" y="148"/>
      <point x="138" y="339" type="curve" smooth="yes"/>
      <point x="138" y="560"/>
      <point x="213" y="620"/>
      <point x="361" y="620" type="curve" smooth="yes"/>
      <point x="397" y="620"/>
      <point x="424" y="617"/>
      <point x="443" y="609" type="curve"/>
      <point x="409" y="634" type="line"/>
      <point x="462" y="515" type="line"/>
      <point x="525" y="515"/>
      <point x="556" y="539"/>
      <point x="556" y="584" type="curve" smooth="yes"/>
      <point x="556" y="646"/>
      <point x="506" y="692"/>
      <point x="364" y="692" type="curve" smooth="yes"/>
    </contour>
  </outline>
</glyph>
<glyph name="seven" format="1">
  <advance width="533"/>
  <unicode hex="0037"/>
  <outline>
    <contour>
      <point x="264" y="-136" type="line"/>
      <point x="513" y="488" type="line"/>
      <point x="513" y="548" type="line"/>
      <point x="25" y="548" type="line"/>
      <point x="25" y="378" type="line"/>
      <point x="83" y="378" type="line"/>
      <point x="116" y="518" type="line"/>
      <point x="68" y="478" type="line"/>
      <point x="429" y="478" type="line"/>
      <point x="170" y="-136" type="line"/>
    </contour>
  </outline>
</glyph>
<glyph name="nine" format="1">
  <advance width="622"/>
  <unicode hex="0039"/>
  <outline>
    <contour>
      <point x="484" y="-144"/>
      <point x="572" y="-46"/>
      <point x="572" y="207" type="curve" smooth="yes"/>
      <point x="572" y="456"/>
      <point x="484" y="563"/>
      <point x="292" y="563" type="curve" smooth="yes"/>
      <point x="138" y="563"/>
      <point x="42" y="495"/>
      <point x="42" y="338" type="curve" smooth="yes"/>
      <point x="42" y="198"/>
      <point x="120" y="123"/>
      <point x="272" y="123" type="curve" smooth="yes"/>
      <point x="360" y="123"/>
      <point x="453" y="148"/>
      <point x="503" y="191" type="curve"/>
      <point x="503" y="264" type="line"/>
      <point x="442" y="216"/>
      <point x="370" y="195"/>
      <point x="292" y="195" type="curve" smooth="yes"/>
      <point x="179" y="195"/>
      <point x="130" y="239"/>
      <point x="130" y="339" type="curve" smooth="yes"/>
      <point x="130" y="444"/>
      <point x="181" y="491"/>
      <point x="294" y="491" type="curve" smooth="yes"/>
      <point x="428" y="491"/>
      <point x="484" y="424"/>
      <point x="484" y="213" type="curve" smooth="yes"/>
      <point x="484" y="1"/>
      <point x="428" y="-72"/>
      <point x="286" y="-72" type="curve" smooth="yes"/>
      <point x="253" y="-72"/>
      <point x="193" y="-69"/>
      <point x="164" y="-58" type="curve"/>
      <point x="209" y="-96" type="line"/>
      <point x="152" y="53" type="line"/>
      <point x="81" y="53"/>
      <point x="56" y="24"/>
      <point x="56" y="-23" type="curve" smooth="yes"/>
      <point x="56" y="-105"/>
      <point x="147" y="-144"/>
      <point x="281" y="-144" type="curve" smooth="yes"/>
    </contour>
  </outline>
</glyph>
<glyph name="less" format="1">
  <advance width="582"/>
  <unicode hex="003C"/>
  <outline>
    <contour>
      <point x="64" y="310" type="line"/>
      <point x="64" y="238" type="line"/>
      <point x="494" y="0" type="line"/>
      <point x="494" y="83" type="line"/>
      <point x="111" y="289" type="line"/>
      <point x="111" y="259" type="line"/>
      <point x="494" y="465" type="line"/>
      <point x="494" y="548" type="line"/>
    </contour>
  </outline>
</glyph>
<glyph name="equal" format="1">
  <advance width="582"/>
  <unicode hex="003D"/>
  <outline>
    <contour>
      <point x="64" y="428" type="line"/>
      <point x="64" y="358" type="line"/>
      <point x="518" y="358" type="line"/>
      <point x="518" y="428" type="line"/>
    </contour>
    <contour>
      <point x="64" y="190" type="line"/>
      <point x="64" y="120" type="line"/>
      <point x="518" y="120" type="line"/>
      <point x="518" y="190" type="line"/>
    </contour>
  </outline>
</glyph>
<glyph name="question" format="1">
  <advance width="538"/>
  <unicode hex="003F"/>
  <outline>
    <contour>
      <point x="152" y="692"/>
      <point x="50" y="643"/>
      <point x="50" y="535" type="curve" smooth="yes"/>
      <point x="50" y="476"/>
      <point x="80" y="441"/>
      <point x="130" y="441" type="curve" smooth="yes"/>
      <point x="162" y="441"/>
      <point x="187" y="456"/>
      <point x="195" y="479" type="curve"/>
      <point x="149" y="598" type="line"/>
      <point x="140" y="583" type="line"/>
      <point x="182" y="609"/>
      <point x="232" y="618"/>
      <point x="282" y="618" type="curve" smooth="yes"/>
      <point x="381" y="618"/>
      <point x="416" y="583"/>
      <point x="416" y="517" type="curve" smooth="yes"/>
      <point x="416" y="460"/>
      <point x="390" y="443"/>
      <point x="351" y="415" type="curve" smooth="yes"/>
      <point x="257" y="346"/>
      <point x="219" y="292"/>
      <point x="215" y="197" type="curve"/>
      <point x="299" y="197" type="line"/>
      <point x="305" y="275"/>
      <point x="318" y="286"/>
      <point x="396" y="344" type="curve" smooth="yes"/>
      <point x="457" y="389"/>
      <point x="506" y="427"/>
      <point x="506" y="516" type="curve" smooth="yes"/>
      <point x="506" y="625"/>
      <point x="432" y="692"/>
      <point x="281" y="692" type="curve" smooth="yes"/>
    </contour>
    <contour>
      <point x="215" y="128"/>
      <point x="189" y="104"/>
      <point x="189" y="60" type="curve" smooth="yes"/>
      <point x="189" y="16"/>
      <point x="215" y="-8"/>
      <point x="257" y="-8" type="curve" smooth="yes"/>
      <point x="299" y="-8"/>
      <point x="325" y="16"/>
      <point x="325" y="60" type="curve" smooth="yes"/>
      <point x="325" y="104"/>
      <point x="299" y="128"/>
      <point x="257" y="128" type="curve" smooth="yes"/>
    </contour>
  </outline>
</glyph>
<glyph name="B" format="1">
  <advance width="710"/>
  <unicode hex="0042"/>
  <outline>
    <contour>
      <point x="476" y="0" type="line" smooth="yes"/>
      <point x="590" y="0"/>
      <point x="650" y="60"/>
      <point x="650" y="176" type="curve" smooth="yes"/>
      <point x="650" y="285"/>
      <point x="600" y="335"/>
      <point x="530" y="346" type="curve"/>
      <point x="599" y="364"/>
      <point x="640" y="420"/>
      <point x="640" y="514" type="curve" smooth="yes"/>
      <point x="640" y="615"/>
      <point x="588" y="680"/>
      <point x="462" y="680" type="curve" smooth="yes"/>
      <point x="55" y="680" type="line"/>
      <point x="55" y="623" type="line"/>
      <point x="129" y="594" type="line"/>
      <point x="129" y="86" type="line"/>
      <point x="55" y="55" type="line"/>
      <point x="55" y="0" type="line"/>
    </contour>
    <contour>
      <point x="215" y="306" type="line"/>
      <point x="451" y="306" type="line" smooth="yes"/>
      <point x="530" y="306"/>
      <point x="560" y="272"/>
      <point x="560" y="189" type="curve" smooth="yes"/>
      <point x="560" y="106"/>
      <point x="530" y="72"/>
      <point x="459" y="72" type="curve" smooth="yes"/>
      <point x="215" y="72" type="line"/>
    </contour>
    <contour>
      <point x="215" y="608" type="line"/>
      <point x="451" y="608" type="line" smooth="yes"/>
      <point x="521" y="608"/>
      <point x="550" y="575"/>
      <point x="550" y="493" type="curve" smooth="yes"/>
      <point x="550" y="411"/>
      <point x="521" y="378"/>
      <point x="443" y="378" type="curve" smooth="yes"/>
      <point x="215" y="378" type="line"/>
    </contour>
  </outline>
</glyph>
<glyph name="C" format="1">
  <advance width="661"/>
  <unicode hex="0043"/>
  <outline>
    <contour>
      <point x="167" y="692"/>
      <point x="42" y="590"/>
      <point x="42" y="340" type="curve" smooth="yes"/>
      <point x="42" y="96"/>
      <point x="161" y="-12"/>
      <point x="375" y="-12" type="curve" smooth="yes"/>
      <point x="456" y="-12"/>
      <point x="540" y="3"/>
      <point x="596" y="28" type="curve"/>
      <point x="596" y="102" type="line"/>
      <point x="525" y="72"/>
      <point x="440" y="62"/>
      <point x="375" y="62" type="curve" smooth="yes"/>
      <point x="208" y="62"/>
      <point x="132" y="133"/>
      <point x="132" y="343" type="curve" smooth="yes"/>
      <point x="132" y="547"/>
      <point x="204" y="618"/>
      <point x="381" y="618" type="curve" smooth="yes"/>
      <point x="429" y="618"/>
      <point x="482" y="613"/>
      <point x="533" y="600" type="curve"/>
      <point x="504" y="642" type="line"/>
      <point x="526" y="491" type="line"/>
      <point x="596" y="491" type="line"/>
      <point x="596" y="668" type="line"/>
      <point x="525" y="684"/>
      <point x="451" y="692"/>
      <point x="389" y="692" type="curve" smooth="yes"/>
    </contour>
    <contour>
      <point x="379" y="680" type="move" name="top"/>
    </contour>
    <contour>
      <point x="375" y="0" type="move" name="bottom"/>
    </contour>
  </outline>
</glyph>
<glyph name="G" format="1">
  <advance width="706"/>
  <unicode hex="0047"/>
  <outline>
    <contour>
      <point x="166" y="692"/>
      <point x="42" y="589"/>
      <point x="42" y="340" type="curve" smooth="yes"/>
      <point x="42" y="89"/>
      <point x="162" y="-12"/>
      <point x="389" y="-12" type="curve" smooth="yes"/>
      <point x="460" y="-12"/>
      <point x="550" y="0"/>
      <point x="622" y="24" type="curve"/>
      <point x="622" y="254" type="line"/>
      <point x="686" y="283" type="line"/>
      <point x="686" y="340" type="line"/>
      <point x="473" y="340" type="line"/>
      <point x="473" y="283" type="line"/>
      <point x="537" y="254" type="line"/>
      <point x="537" y="82" type="line"/>
      <point x="490" y="68"/>
      <point x="440" y="62"/>
      <point x="385" y="62" type="curve" smooth="yes"/>
      <point x="203" y="62"/>
      <point x="132" y="127"/>
      <point x="132" y="340" type="curve" smooth="yes"/>
      <point x="132" y="549"/>
      <point x="202" y="618"/>
      <point x="388" y="618" type="curve" smooth="yes"/>
      <point x="446" y="618"/>
      <point x="503" y="610"/>
      <point x="554" y="597" type="curve"/>
      <point x="530" y="639" type="line"/>
      <point x="552" y="488" type="line"/>
      <point x="622" y="488" type="line"/>
      <point x="622" y="665" type="line"/>
      <point x="549" y="681"/>
      <point x="472" y="692"/>
      <point x="389" y="692" type="curve" smooth="yes"/>
    </contour>
    <contour>
      <point x="379" y="680" type="move" name="top"/>
    </contour>
    <contour>
      <point x="387" y="0" type="move" name="bottom"/>
    </contour>
  </outline>
</glyph>
<glyph name="I" format="1">
  <advance width="344"/>
  <unicode hex="0049"/>
  <outline>
    <contour>
      <point x="55" y="680" type="line"/>
      <point x="55" y="623" type="line"/>
      <point x="129" y="594" type="line"/>
      <point x="129" y="85" type="line"/>
      <point x="55" y="55" type="line"/>
      <point x="55" y="0" type="line"/>
      <point x="289" y="0" type="line"/>
      <point x="289" y="55" type="line"/>
      <point x="215" y="85" type="line"/>
      <point x="215" y="594" type="line"/>
      <point x="289" y="623" type="line"/>
      <point x="289" y="680" type="line"/>
    </contour>
    <contour>
      <point x="147" y="10" type="move" name="ogonek"/>
    </contour>
    <contour>
      <point x="172" y="680" type="move" name="top"/>
    </contour>
  </outline>
</glyph>
<glyph name="J" format="1">
  <advance width="440"/>
  <unicode hex="004A"/>
  <outline>
    <contour>
      <point x="146" y="680" type="line"/>
      <point x="146" y="623" type="line"/>
      <point x="230" y="594" type="line"/>
      <point x="230" y="224" type="line" smooth="yes"/>
      <point x="230" y="103"/>
      <point x="190" y="60"/>
      <point x="96" y="60" type="curve" smooth="yes"/>
      <point x="68" y="60"/>
      <point x="43" y="62"/>
      <point x="20" y="66" type="curve"/>
      <point x="20" y="-4" type="line"/>
      <point x="48" y="-10"/>
      <point x="73" y="-12"/>
      <point x="106" y="-12" type="curve" smooth="yes"/>
      <point x="241" y="-12"/>
      <point x="316" y="58"/>
      <point x="316" y="231" type="curve" smooth="yes"/>
      <point x="316" y="594" type="line"/>
      <point x="390" y="623" type="line"/>
      <point x="390" y="680" type="line"/>
    </contour>
  </outline>
</glyph>
<glyph name="L" format="1">
  <advance width="643"/>
  <unicode hex="004C"/>
  <outline>
    <contour>
      <point x="55" y="680" type="line"/>
      <point x="55" y="623" type="line"/>
      <point x="129" y="594" type="line"/>
      <point x="129" y="85" type="line"/>
      <point x="55" y="55" type="line"/>
      <point x="55" y="0" type="line"/>
      <point x="623" y="0" type="line"/>
      <point x="623" y="187" type="line"/>
      <point x="564" y="187" type="line"/>
      <point x="538" y="72" type="line"/>
      <point x="215" y="72" type="line"/>
      <point x="215" y="594" type="line"/>
      <point x="289" y="623" type="line"/>
      <point x="289" y="680" type="line"/>
    </contour>
    <contour>
      <point x="172" y="680" type="move" name="top"/>
    </contour>
    <contour>
      <point x="377" y="0" type="move" name="bottom"/>
    </contour>
    <contour>
      <point x="447" y="405" type="move" name="topright"/>
    </contour>
  </outline>
</glyph>
<glyph name="N" format="1">
  <advance width="808"/>
  <unicode hex="004E"/>
  <outline>
    <contour>
      <point x="536" y="680" type="line"/>
      <point x="536" y="623" type="line"/>
      <point x="615" y="594" type="line"/>
      <point x="615" y="81" type="line"/>
      <point x="631" y="84" type="line"/>
      <point x="231" y="680" type="line"/>
      <point x="55" y="680" type="line"/>
      <point x="55" y="623" type="line"/>
      <point x="129" y="594" type="line"/>
      <point x="129" y="85" type="line"/>
      <point x="55" y="55" type="line"/>
      <point x="55" y="0" type="line"/>
      <point x="281" y="0" type="line"/>
      <point x="281" y="55" type="line"/>
      <point x="202" y="85" type="line"/>
      <point x="202" y="599" type="line"/>
      <point x="187" y="595" type="line"/>
      <point x="587" y="0" type="line"/>
      <point x="689" y="0" type="line"/>
      <point x="689" y="594" type="line"/>
      <point x="763" y="623" type="line"/>
      <point x="763" y="680" type="line"/>
    </contour>
    <contour>
      <point x="404" y="680" type="move" name="top"/>
    </contour>
    <contour>
      <point x="404" y="0" type="move" name="bottom"/>
    </contour>
  </outline>
</glyph>
<glyph name="T" format="1">
  <advance width="676"/>
  <unicode hex="0054"/>
  <outline>
    <contour>
      <point x="30" y="680" type="line"/>
      <point x="30" y="488" type="line"/>
      <point x="85" y="488" type="line"/>
      <point x="114" y="608" type="line"/>
      <point x="295" y="608" type="line"/>
      <point x="295" y="85" type="line"/>
      <point x="211" y="55" type="line"/>
      <point x="211" y="0" type="line"/>
      <point x="465" y="0" type="line"/>
      <point x="465" y="55" type="line"/>
      <point x="381" y="85" type="line"/>
      <point x="381" y="608" type="line"/>
      <point x="562" y="608" type="line"/>
      <point x="591" y="488" type="line"/>
      <point x="646" y="488" type="line"/>
      <point x="646" y="680" type="line"/>
    </contour>
    <contour>
      <point x="338" y="340" type="move" name="center"/>
    </contour>
    <contour>
      <point x="338" y="0" type="move" name="bottom"/>
    </contour>
    <contour>
      <point x="338" y="680" type="move" name="top"/>
    </contour>
  </outline>
</glyph>
<glyph name="V" format="1">
  <advance width="755"/>
  <unicode hex="0056"/>
  <outline>
    <contour>
      <point x="431" y="0" type="line"/>
      <point x="657" y="594" type="line"/>
      <point x="726" y="623" type="line"/>
      <point x="726" y="680" type="line"/>
      <point x="507" y="680" type="line"/>
      <point x="507" y="623" type="line"/>
      <point x="581" y="594" type="line"/>
      <point x="370" y="30" type="line"/>
      <point x="400" y="30" type="line"/>
      <point x="190" y="594" type="line"/>
      <point x="264" y="623" type="line"/>
      <point x="264" y="680" type="line"/>
      <point x="29" y="680" type="line"/>
      <point x="29" y="623" type="line"/>
      <point x="98" y="594" type="line"/>
      <point x="324" y="0" type="line"/>
    </contour>
  </outline>
</glyph>
<glyph name="W" format="1">
  <advance width="1052"/>
  <unicode hex="0057"/>
  <outline>
    <contour>
      <point x="811" y="680" type="line"/>
      <point x="811" y="623" type="line"/>
      <point x="885" y="594" type="line"/>
      <point x="732" y="70" type="line"/>
      <point x="744" y="70" type="line"/>
      <point x="586" y="625" type="line"/>
      <point x="481" y="625" type="line"/>
      <point x="323" y="66" type="line"/>
      <point x="337" y="66" type="line"/>
      <point x="182" y="594" type="line"/>
      <point x="256" y="623" type="line"/>
      <point x="256" y="680" type="line"/>
      <point x="23" y="680" type="line"/>
      <point x="23" y="623" type="line"/>
      <point x="92" y="594" type="line"/>
      <point x="272" y="0" type="line"/>
      <point x="374" y="0" type="line"/>
      <point x="543" y="582" type="line"/>
      <point x="515" y="582" type="line"/>
      <point x="681" y="0" type="line"/>
      <point x="782" y="0" type="line"/>
      <point x="960" y="594" type="line"/>
      <point x="1029" y="623" type="line"/>
      <point x="1029" y="680" type="line"/>
    </contour>
    <contour>
      <point x="529" y="680" type="move" name="top"/>
    </contour>
  </outline>
</glyph>
<glyph name="X" format="1">
  <advance width="752"/>
  <unicode hex="0058"/>
  <outline>
    <contour>
      <point x="34" y="680" type="line"/>
      <point x="34" y="623" type="line"/>
      <point x="103" y="594" type="line"/>
      <point x="542" y="85" type="line"/>
      <point x="468" y="55" type="line"/>
      <point x="468" y="0" type="line"/>
      <point x="722" y="0" type="line"/>
      <point x="722" y="55" type="line"/>
      <point x="653" y="85" type="line"/>
      <point x="214" y="594" type="line"/>
      <point x="288" y="623" type="line"/>
      <point x="288" y="680" type="line"/>
    </contour>
    <contour>
      <point x="99" y="85" type="line"/>
      <point x="30" y="55" type="line"/>
      <point x="30" y="0" type="line"/>
      <point x="270" y="0" type="line"/>
      <point x="270" y="55" type="line"/>
      <point x="196" y="85" type="line"/>
      <point x="382" y="300" type="line"/>
      <point x="336" y="351" type="line"/>
    </contour>
    <contour>
      <point x="484" y="680" type="line"/>
      <point x="484" y="625" type="line"/>
      <point x="558" y="595" type="line"/>
      <point x="374" y="380" type="line"/>
      <point x="418" y="329" type="line"/>
      <point x="653" y="595" type="line"/>
      <point x="722" y="625" type="line"/>
      <point x="722" y="680" type="line"/>
    </contour>
  </outline>
</glyph>
<glyph name="Y" format="1">
  <advance width="696"/>
  <unicode hex="0059"/>
  <outline>
    <contour>
      <point x="457" y="680" type="line"/>
      <point x="457" y="623" type="line"/>
      <point x="526" y="594" type="line"/>
      <point x="348" y="323" type="line"/>
      <point x="363" y="323" type="line"/>
      <point x="184" y="594" type="line"/>
      <point x="254" y="623" type="line"/>
      <point x="254" y="680" type="line"/>
      <point x="20" y="680" type="line"/>
      <point x="20" y="623" type="line"/>
      <point x="85" y="594" type="line"/>
      <point x="305" y="265" type="line"/>
      <point x="305" y="85" type="line"/>
      <point x="221" y="55" type="line"/>
      <point x="221" y="0" type="line"/>
      <point x="475" y="0" type="line"/>
      <point x="475" y="55" type="line"/>
      <point x="391" y="85" type="line"/>
      <point x="391" y="265" type="line"/>
      <point x="612" y="594" type="line"/>
      <point x="676" y="623" type="line"/>
      <point x="676" y="680" type="line"/>
    </contour>
    <contour>
      <point x="356" y="680" type="move" name="top"/>
    </contour>
  </outline>
</glyph>
<glyph name="underscore" format="1">
  <advance width="475"/>
  <unicode hex="005F"/>
  <outline>
    <contour>
      <point x="0" y="-127" type="line"/>
      <point x="475" y="-127" type="line"/>
      <point x="475" y="-55" type="line"/>
      <point x="0" y="-55" type="line"/>
    </contour>
  </outline>
</glyph>
<glyph name="grave" format="1">
  <advance width="500"/>
  <unicode hex="0060"/>
  <outline>
    <component base="acute" xOffset="500" xScale="-1"/>
    <contour>
      <point x="250" y="502" type="move" name="_top"/>
    </contour>
  </outline>
</glyph>
<glyph name="c" format="1">
  <advance width="499"/>
  <unicode hex="0063"/>
  <outline>
    <contour>
      <point x="134" y="516"/>
      <point x="41" y="442"/>
      <point x="41" y="250" type="curve" smooth="yes"/>
      <point x="41" y="46"/>
      <point x="143" y="-14"/>
      <point x="296" y="-14" type="curve" smooth="yes"/>
      <point x="350" y="-14"/>
      <point x="409" y="-5"/>
      <point x="451" y="11" type="curve"/>
      <point x="451" y="83" type="line"/>
      <point x="399" y="64"/>
      <point x="355" y="58"/>
      <point x="300" y="58" type="curve" smooth="yes"/>
      <point x="181" y="58"/>
      <point x="129" y="92"/>
      <point x="129" y="253" type="curve" smooth="yes"/>
      <point x="129" y="400"/>
      <point x="163" y="447"/>
      <point x="319" y="447" type="curve"/>
      <point x="363" y="347" type="line"/>
      <point x="432" y="347"/>
      <point x="459" y="378"/>
      <point x="459" y="428" type="curve" smooth="yes"/>
      <point x="459" y="487"/>
      <point x="422" y="516"/>
      <point x="308" y="516" type="curve" smooth="yes"/>
    </contour>
    <contour>
      <point x="288" y="502" type="move" name="top"/>
    </contour>
    <contour>
      <point x="286" y="0" type="move" name="bottom"/>
    </contour>
  </outline>
</glyph>
<glyph name="e" format="1">
  <advance width="552"/>
  <unicode hex="0065"/>
  <outline>
    <contour>
      <point x="147" y="516"/>
      <point x="41" y="439"/>
      <point x="41" y="251" type="curve" smooth="yes"/>
      <point x="41" y="48"/>
      <point x="145" y="-14"/>
      <point x="312" y="-14" type="curve" smooth="yes"/>
      <point x="377" y="-14"/>
      <point x="452" y="-4"/>
      <point x="502" y="9" type="curve"/>
      <point x="502" y="81" type="line"/>
      <point x="429" y="63"/>
      <point x="373" y="58"/>
      <point x="314" y="58" type="curve" smooth="yes"/>
      <point x="188" y="58"/>
      <point x="139" y="91"/>
      <point x="129" y="224" type="curve"/>
      <point x="521" y="224" type="line"/>
      <point x="521" y="264" type="line" smooth="yes"/>
      <point x="521" y="439"/>
      <point x="420" y="516"/>
      <point x="292" y="516" type="curve" smooth="yes"/>
    </contour>
    <contour>
      <point x="380" y="444"/>
      <point x="424" y="392"/>
      <point x="432" y="295" type="curve"/>
      <point x="130" y="295" type="line"/>
      <point x="139" y="400"/>
      <point x="183" y="444"/>
      <point x="287" y="444" type="curve" smooth="yes"/>
    </contour>
    <contour>
      <point x="437" y="19" type="move" name="ogonek"/>
    </contour>
    <contour>
      <point x="312" y="0" type="move" name="bottom"/>
    </contour>
    <contour>
      <point x="292" y="502" type="move" name="top"/>
    </contour>
  </outline>
</glyph>
<glyph name="i" format="1">
  <advance width="301"/>
  <unicode hex="0069"/>
  <outline>
    <contour>
      <point x="46" y="502" type="line"/>
      <point x="46" y="445" type="line"/>
      <point x="114" y="417" type="line"/>
      <point x="114" y="85" type="line"/>
      <point x="46" y="55" type="line"/>
      <point x="46" y="0" type="line"/>
      <point x="266" y="0" type="line"/>
      <point x="266" y="55" type="line"/>
      <point x="198" y="85" type="line"/>
      <point x="198" y="502" type="line"/>
    </contour>
    <contour>
      <point x="107" y="721"/>
      <point x="80" y="697"/>
      <point x="80" y="652" type="curve" smooth="yes"/>
      <point x="80" y="607"/>
      <point x="107" y="583"/>
      <point x="148" y="583" type="curve" smooth="yes"/>
      <point x="189" y="583"/>
      <point x="216" y="607"/>
      <point x="216" y="652" type="curve" smooth="yes"/>
      <point x="216" y="697"/>
      <point x="189" y="721"/>
      <point x="148" y="721" type="curve" smooth="yes"/>
    </contour>
  </outline>
</glyph>
<glyph name="j" format="1">
  <advance width="291"/>
  <unicode hex="006A"/>
  <outline>
    <contour>
      <point x="46" y="502" type="line"/>
      <point x="46" y="445" type="line"/>
      <point x="114" y="417" type="line"/>
      <point x="114" y="-82" type="line" smooth="yes"/>
      <point x="114" y="-130"/>
      <point x="91" y="-154"/>
      <point x="44" y="-154" type="curve"/>
      <point x="20" y="-103" type="line"/>
      <point x="-33" y="-103"/>
      <point x="-51" y="-122"/>
      <point x="-51" y="-159" type="curve" smooth="yes"/>
      <point x="-51" y="-203"/>
      <point x="-25" y="-224"/>
      <point x="38" y="-224" type="curve" smooth="yes"/>
      <point x="132" y="-224"/>
      <point x="198" y="-176"/>
      <point x="198" y="-66" type="curve" smooth="yes"/>
      <point x="198" y="502" type="line"/>
    </contour>
    <contour>
      <point x="107" y="721"/>
      <point x="80" y="697"/>
      <point x="80" y="652" type="curve" smooth="yes"/>
      <point x="80" y="607"/>
      <point x="107" y="583"/>
      <point x="148" y="583" type="curve" smooth="yes"/>
      <point x="189" y="583"/>
      <point x="216" y="607"/>
      <point x="216" y="652" type="curve" smooth="yes"/>
      <point x="216" y="697"/>
      <point x="189" y="721"/>
      <point x="148" y="721" type="curve" smooth="yes"/>
    </contour>
  </outline>
</glyph>
<glyph name="k" format="1">
  <advance width="648"/>
  <unicode hex="006B"/>
  <outline>
    <contour>
      <point x="46" y="710" type="line"/>
      <point x="46" y="653" type="line"/>
      <point x="114" y="625" type="line"/>
      <point x="114" y="85" type="line"/>
      <point x="46" y="55" type="line"/>
      <point x="46" y="0" type="line"/>
      <point x="266" y="0" type="line"/>
      <point x="266" y="55" type="line"/>
      <point x="198" y="85" type="line"/>
      <point x="198" y="710" type="line"/>
    </contour>
    <contour>
      <point x="351" y="502" type="line"/>
      <point x="351" y="445" type="line"/>
      <point x="450" y="419" type="line"/>
      <point x="450" y="435" type="line"/>
      <point x="178" y="237" type="line"/>
      <point x="178" y="150" type="line"/>
      <point x="534" y="412" type="line"/>
      <point x="602" y="445" type="line"/>
      <point x="602" y="502" type="line"/>
    </contour>
    <contour>
      <point x="286" y="274" type="line"/>
      <point x="520" y="0" type="line"/>
      <point x="633" y="0" type="line"/>
      <point x="633" y="55" type="line"/>
      <point x="560" y="85" type="line"/>
      <point x="354" y="323" type="line"/>
    </contour>
    <contour>
      <point x="394" y="0" type="move" name="bottom"/>
    </contour>
  </outline>
</glyph>
<glyph name="o" format="1">
  <advance width="590"/>
  <unicode hex="006F"/>
  <outline>
    <contour>
      <point x="154" y="516"/>
      <point x="41" y="446"/>
      <point x="41" y="251" type="curve" smooth="yes"/>
      <point x="41" y="56"/>
      <point x="153" y="-14"/>
      <point x="295" y="-14" type="curve" smooth="yes"/>
      <point x="437" y="-14"/>
      <point x="549" y="56"/>
      <point x="549" y="251" type="curve" smooth="yes"/>
      <point x="549" y="446"/>
      <point x="436" y="516"/>
      <point x="295" y="516" type="curve" smooth="yes"/>
    </contour>
    <contour>
      <point x="410" y="444"/>
      <point x="461" y="402"/>
      <point x="461" y="251" type="curve" smooth="yes"/>
      <point x="461" y="100"/>
      <point x="410" y="58"/>
      <point x="295" y="58" type="curve" smooth="yes"/>
      <point x="180" y="58"/>
      <point x="129" y="100"/>
      <point x="129" y="251" type="curve" smooth="yes"/>
      <point x="129" y="402"/>
      <point x="180" y="444"/>
      <point x="295" y="444" type="curve" smooth="yes"/>
    </contour>
    <contour>
      <point x="295" y="502" type="move" name="top"/>
    </contour>
  </outline>
</glyph>
<glyph name="r" format="1">
  <advance width="504"/>
  <unicode hex="0072"/>
  <outline>
    <contour>
      <point x="326" y="518"/>
      <point x="245" y="484"/>
      <point x="171" y="423" type="curve"/>
      <point x="214" y="412" type="line"/>
      <point x="157" y="502" type="line"/>
      <point x="46" y="502" type="line"/>
      <point x="46" y="445" type="line"/>
      <point x="114" y="417" type="line"/>
      <point x="114" y="85" type="line"/>
      <point x="46" y="55" type="line"/>
      <point x="46" y="0" type="line"/>
      <point x="291" y="0" type="line"/>
      <point x="291" y="55" type="line"/>
      <point x="198" y="85" type="line"/>
      <point x="198" y="376" type="line"/>
      <point x="247" y="408"/>
      <point x="318" y="437"/>
      <point x="382" y="449" type="curve"/>
      <point x="336" y="466" type="line"/>
      <point x="387" y="351" type="line"/>
      <point x="444" y="351"/>
      <point x="479" y="375"/>
      <point x="479" y="432" type="curve" smooth="yes"/>
      <point x="479" y="489"/>
      <point x="455" y="518"/>
      <point x="395" y="518" type="curve" smooth="yes"/>
    </contour>
    <contour>
      <point x="268" y="502" type="move" name="top"/>
    </contour>
    <contour>
      <point x="156" y="0" type="move" name="bottom"/>
    </contour>
  </outline>
</glyph>
<glyph name="w" format="1">
  <advance width="842"/>
  <unicode hex="0077"/>
  <outline>
    <contour>
      <point x="633" y="502" type="line"/>
      <point x="633" y="445" type="line"/>
      <point x="701" y="417" type="line"/>
      <point x="585" y="67" type="line"/>
      <point x="599" y="67" type="line"/>
      <point x="471" y="468" type="line"/>
      <point x="384" y="468" type="line"/>
      <point x="256" y="65" type="line"/>
      <point x="270" y="65" type="line"/>
      <point x="155" y="417" type="line"/>
      <point x="223" y="445" type="line"/>
      <point x="223" y="502" type="line"/>
      <point x="10" y="502" type="line"/>
      <point x="10" y="445" type="line"/>
      <point x="68" y="417" type="line"/>
      <point x="207" y="0" type="line"/>
      <point x="309" y="0" type="line"/>
      <point x="446" y="432" type="line"/>
      <point x="396" y="432" type="line"/>
      <point x="533" y="0" type="line"/>
      <point x="635" y="0" type="line"/>
      <point x="774" y="417" type="line"/>
      <point x="832" y="445" type="line"/>
      <point x="832" y="502" type="line"/>
    </contour>
    <contour>
      <point x="421" y="502" type="move" name="top"/>
    </contour>
  </outline>
</glyph>
<glyph name="yen" format="1">
  <advance width="664"/>
  <unicode hex="00A5"/>
  <outline>
    <contour>
      <point x="257" y="295" type="line"/>
      <point x="257" y="353" type="line"/>
      <point x="70" y="353" type="line"/>
      <point x="70" y="295" type="line"/>
    </contour>
    <contour>
      <point x="594" y="147" type="line"/>
      <point x="594" y="205" type="line"/>
      <point x="70" y="205" type="line"/>
      <point x="70" y="147" type="line"/>
    </contour>
    <contour>
      <point x="594" y="295" type="line"/>
      <point x="594" y="353" type="line"/>
      <point x="408" y="353" type="line"/>
      <point x="408" y="295" type="line"/>
    </contour>
    <contour>
      <point x="325" y="262" type="line"/>
      <point x="357" y="262" type="line"/>
      <point x="214" y="469" type="line"/>
      <point x="273" y="492" type="line"/>
      <point x="273" y="548" type="line"/>
      <point x="55" y="548" type="line"/>
      <point x="55" y="492" type="line"/>
      <point x="120" y="461" type="line"/>
      <point x="312" y="183" type="line"/>
      <point x="290" y="254" type="line"/>
      <point x="290" y="85" type="line"/>
      <point x="212" y="55" type="line"/>
      <point x="212" y="0" type="line"/>
      <point x="452" y="0" type="line"/>
      <point x="452" y="55" type="line"/>
      <point x="374" y="85" type="line"/>
      <point x="374" y="254" type="line"/>
      <point x="352" y="183" type="line"/>
      <point x="546" y="462" type="line"/>
      <point x="609" y="492" type="line"/>
      <point x="609" y="548" type="line"/>
      <point x="407" y="548" type="line"/>
      <point x="407" y="492" type="line"/>
      <point x="467" y="469" type="line"/>
    </contour>
  </outline>
</glyph>
<glyph name="ordfeminine" format="1">
  <advance width="540"/>
  <unicode hex="00AA"/>
  <outline>
    <contour>
      <point x="186" y="692"/>
      <point x="123" y="682"/>
      <point x="65" y="669" type="curve"/>
      <point x="65" y="598" type="line"/>
      <point x="126" y="613"/>
      <point x="185" y="621"/>
      <point x="249" y="621" type="curve" smooth="yes"/>
      <point x="345" y="621"/>
      <point x="368" y="592"/>
      <point x="368" y="509" type="curve" smooth="yes"/>
      <point x="368" y="473" type="line"/>
      <point x="345" y="486"/>
      <point x="303" y="500"/>
      <point x="245" y="500" type="curve" smooth="yes"/>
      <point x="102" y="500"/>
      <point x="40" y="452"/>
      <point x="40" y="341" type="curve" smooth="yes"/>
      <point x="40" y="235"/>
      <point x="95" y="192"/>
      <point x="205" y="192" type="curve" smooth="yes"/>
      <point x="280" y="192"/>
      <point x="338" y="221"/>
      <point x="390" y="286" type="curve"/>
      <point x="368" y="286" type="line"/>
      <point x="398" y="201" type="line"/>
      <point x="510" y="201" type="line"/>
      <point x="510" y="255" type="line"/>
      <point x="450" y="284" type="line"/>
      <point x="450" y="526" type="line" smooth="yes"/>
      <point x="450" y="635"/>
      <point x="428" y="692"/>
      <point x="253" y="692" type="curve" smooth="yes"/>
    </contour>
    <contour>
      <point x="288" y="432"/>
      <point x="332" y="429"/>
      <point x="368" y="418" type="curve"/>
      <point x="368" y="323" type="line"/>
      <point x="328" y="286"/>
      <point x="277" y="262"/>
      <point x="222" y="262" type="curve" smooth="yes"/>
      <point x="148" y="262"/>
      <point x="126" y="288"/>
      <point x="126" y="347" type="curve" smooth="yes"/>
      <point x="126" y="403"/>
      <point x="153" y="432"/>
      <point x="254" y="432" type="curve" smooth="yes"/>
    </contour>
  </outline>
</glyph>
<glyph name="questiondown" format="1">
  <advance width="496"/>
  <unicode hex="00BF"/>
  <outline>
    <contour>
      <point x="385" y="-184"/>
      <point x="486" y="-135"/>
      <point x="486" y="-28" type="curve" smooth="yes"/>
      <point x="486" y="32"/>
      <point x="455" y="67"/>
      <point x="409" y="67" type="curve" smooth="yes"/>
      <point x="373" y="67"/>
      <point x="350" y="53"/>
      <point x="341" y="29" type="curve"/>
      <point x="387" y="-90" type="line"/>
      <point x="396" y="-75" type="line"/>
      <point x="354" y="-101"/>
      <point x="305" y="-110"/>
      <point x="251" y="-110" type="curve" smooth="yes"/>
      <point x="160" y="-110"/>
      <point x="120" y="-75"/>
      <point x="120" y="-15" type="curve" smooth="yes"/>
      <point x="120" y="50"/>
      <point x="138" y="64"/>
      <point x="185" y="99" type="curve" smooth="yes"/>
      <point x="280" y="170"/>
      <point x="309" y="225"/>
      <point x="314" y="311" type="curve"/>
      <point x="244" y="311" type="line"/>
      <point x="238" y="243"/>
      <point x="219" y="214"/>
      <point x="143" y="161" type="curve" smooth="yes"/>
      <point x="63" y="105"/>
      <point x="30" y="70"/>
      <point x="30" y="-23" type="curve" smooth="yes"/>
      <point x="30" y="-109"/>
      <point x="105" y="-184"/>
      <point x="250" y="-184" type="curve" smooth="yes"/>
    </contour>
    <contour>
      <point x="321" y="380"/>
      <point x="347" y="404"/>
      <point x="347" y="448" type="curve" smooth="yes"/>
      <point x="347" y="492"/>
      <point x="321" y="516"/>
      <point x="279" y="516" type="curve" smooth="yes"/>
      <point x="237" y="516"/>
      <point x="211" y="492"/>
      <point x="211" y="448" type="curve" smooth="yes"/>
      <point x="211" y="404"/>
      <point x="237" y="380"/>
      <point x="279" y="380" type="curve" smooth="yes"/>
    </contour>
  </outline>
</glyph>
<glyph name="Eth" format="1">
  <advance width="761"/>
  <unicode hex="00D0"/>
  <outline>
    <contour>
      <point x="55" y="376" type="line"/>
      <point x="55" y="304" type="line"/>
      <point x="475" y="304" type="line"/>
      <point x="475" y="376" type="line"/>
    </contour>
    <component base="D"/>
  </outline>
</glyph>
<glyph name="multiply" format="1">
  <advance width="582"/>
  <unicode hex="00D7"/>
  <outline>
    <contour>
      <point x="48" y="431" type="line"/>
      <point x="489" y="61" type="line"/>
      <point x="535" y="117" type="line"/>
      <point x="94" y="487" type="line"/>
    </contour>
    <contour>
      <point x="48" y="117" type="line"/>
      <point x="94" y="61" type="line"/>
      <point x="535" y="431" type="line"/>
      <point x="489" y="487" type="line"/>
    </contour>
  </outline>
</glyph>
<glyph name="Thorn" format="1">
  <advance width="665"/>
  <unicode hex="00DE"/>
  <outline>
    <contour>
      <point x="294" y="0" type="line"/>
      <point x="294" y="55" type="line"/>
      <point x="215" y="86" type="line"/>
      <point x="215" y="135" type="line"/>
      <point x="453" y="135" type="line" smooth="yes"/>
      <point x="582" y="135"/>
      <point x="650" y="205"/>
      <point x="650" y="340" type="curve" smooth="yes"/>
      <point x="650" y="475"/>
      <point x="582" y="545"/>
      <point x="453" y="545" type="curve" smooth="yes"/>
      <point x="215" y="545" type="line"/>
      <point x="215" y="594" type="line"/>
      <point x="294" y="623" type="line"/>
      <point x="294" y="680" type="line"/>
      <point x="55" y="680" type="line"/>
      <point x="55" y="623" type="line"/>
      <point x="129" y="594" type="line"/>
      <point x="129" y="86" type="line"/>
      <point x="55" y="55" type="line"/>
      <point x="55" y="0" type="line"/>
    </contour>
    <contour>
      <point x="215" y="473" type="line"/>
      <point x="445" y="473" type="line" smooth="yes"/>
      <point x="525" y="473"/>
      <point x="560" y="434"/>
      <point x="560" y="340" type="curve" smooth="yes"/>
      <point x="560" y="246"/>
      <point x="525" y="207"/>
      <point x="445" y="207" type="curve" smooth="yes"/>
      <point x="215" y="207" type="line"/>
    </contour>
  </outline>
</glyph>
<glyph name="divide" format="1">
  <advance width="582"/>
  <unicode hex="00F7"/>
  <outline>
    <contour>
      <point x="64" y="309" type="line"/>
      <point x="64" y="239" type="line"/>
      <point x="518" y="239" type="line"/>
      <point x="518" y="309" type="line"/>
    </contour>
    <contour>
      <point x="251" y="563"/>
      <point x="225" y="540"/>
      <point x="225" y="496" type="curve" smooth="yes"/>
      <point x="225" y="452"/>
      <point x="251" y="429"/>
      <point x="291" y="429" type="curve" smooth="yes"/>
      <point x="331" y="429"/>
      <point x="357" y="452"/>
      <point x="357" y="496" type="curve" smooth="yes"/>
      <point x="357" y="540"/>
      <point x="331" y="563"/>
      <point x="291" y="563" type="curve" smooth="yes"/>
    </contour>
    <contour>
      <point x="251" y="119"/>
      <point x="225" y="96"/>
      <point x="225" y="52" type="curve" smooth="yes"/>
      <point x="225" y="8"/>
      <point x="251" y="-15"/>
      <point x="291" y="-15" type="curve" smooth="yes"/>
      <point x="331" y="-15"/>
      <point x="357" y="8"/>
      <point x="357" y="52" type="curve" smooth="yes"/>
      <point x="357" y="96"/>
      <point x="331" y="119"/>
      <point x="291" y="119" type="curve" smooth="yes"/>
    </contour>
  </outline>
</glyph>
<glyph name="OE" format="1">
  <advance width="1099"/>
  <unicode hex="0152"/>
  <outline>
    <contour>
      <point x="428" y="-14"/>
      <point x="481" y="-7"/>
      <point x="513" y="0" type="curve"/>
      <point x="1047" y="0" type="line"/>
      <point x="1047" y="187" type="line"/>
      <point x="988" y="187" type="line"/>
      <point x="962" y="72" type="line"/>
      <point x="647" y="72" type="line"/>
      <point x="647" y="306" type="line"/>
      <point x="821" y="306" type="line"/>
      <point x="836" y="229" type="line"/>
      <point x="891" y="229" type="line"/>
      <point x="891" y="455" type="line"/>
      <point x="836" y="455" type="line"/>
      <point x="821" y="378" type="line"/>
      <point x="647" y="378" type="line"/>
      <point x="647" y="608" type="line"/>
      <point x="962" y="608" type="line"/>
      <point x="988" y="503" type="line"/>
      <point x="1047" y="503" type="line"/>
      <point x="1047" y="680" type="line"/>
      <point x="513" y="680" type="line"/>
      <point x="481" y="686"/>
      <point x="428" y="694"/>
      <point x="372" y="694" type="curve" smooth="yes"/>
      <point x="163" y="694"/>
      <point x="42" y="580"/>
      <point x="42" y="342" type="curve" smooth="yes"/>
      <point x="42" y="101"/>
      <point x="163" y="-14"/>
      <point x="372" y="-14" type="curve" smooth="yes"/>
    </contour>
    <contour>
      <point x="224" y="60"/>
      <point x="133" y="145"/>
      <point x="131" y="342" type="curve" smooth="yes"/>
      <point x="129" y="536"/>
      <point x="224" y="620"/>
      <point x="375" y="620" type="curve" smooth="yes"/>
      <point x="437" y="620"/>
      <point x="500" y="613"/>
      <point x="561" y="592" type="curve"/>
      <point x="561" y="88" type="line"/>
      <point x="500" y="67"/>
      <point x="437" y="60"/>
      <point x="375" y="60" type="curve" smooth="yes"/>
    </contour>
    <contour>
      <point x="605" y="680" type="move" name="top"/>
    </contour>
  </outline>
</glyph>
<glyph name="caron" format="1">
  <advance width="500"/>
  <unicode hex="02C7"/>
  <outline>
    <component base="circumflex" yOffset="1328" yScale="-1"/>
    <contour>
      <point x="250" y="502" type="move" name="_top"/>
    </contour>
  </outline>
</glyph>
<glyph name="breve" format="1">
  <advance width="500"/>
  <unicode hex="02D8"/>
  <outline>
    <contour>
      <point x="353" y="756" type="line"/>
      <point x="349" y="666"/>
      <point x="319" y="644"/>
      <point x="250" y="644" type="curve" smooth="yes"/>
      <point x="181" y="644"/>
      <point x="150" y="666"/>
      <point x="147" y="756" type="curve"/>
      <point x="79" y="756" type="line"/>
      <point x="79" y="626"/>
      <point x="129" y="572"/>
      <point x="250" y="572" type="curve" smooth="yes"/>
      <point x="371" y="572"/>
      <point x="421" y="626"/>
      <point x="421" y="756" type="curve"/>
    </contour>
    <contour>
      <point x="250" y="502" type="move" name="_top"/>
    </contour>
  </outline>
</glyph>
<glyph name="dotaccent" format="1">
  <advance width="500"/>
  <unicode hex="02D9"/>
  <outline>
    <contour>
      <point x="207" y="708"/>
      <point x="182" y="683"/>
      <point x="182" y="640" type="curve" smooth="yes"/>
      <point x="182" y="597"/>
      <point x="207" y="572"/>
      <point x="250" y="572" type="curve" smooth="yes"/>
      <point x="293" y="572"/>
      <point x="318" y="597"/>
      <point x="318" y="640" type="curve" smooth="yes"/>
      <point x="318" y="683"/>
      <point x="293" y="708"/>
      <point x="250" y="708" type="curve" smooth="yes"/>
    </contour>
    <contour>
      <point x="250" y="502" type="move" name="_top"/>
    </contour>
  </outline>
</glyph>
<glyph name="hungarumlaut" format="1">
  <advance width="500"/>
  <unicode hex="02DD"/>
  <outline>
    <contour>
      <point x="200" y="756" type="line"/>
      <point x="126" y="572" type="line"/>
      <point x="202" y="572" type="line"/>
      <point x="301" y="756" type="line"/>
    </contour>
    <contour>
      <point x="372" y="756" type="line"/>
      <point x="298" y="572" type="line"/>
      <point x="374" y="572" type="line"/>
      <point x="473" y="756" type="line"/>
    </contour>
    <contour>
      <point x="250" y="502" type="move" name="_top"/>
    </contour>
  </outline>
</glyph>
<glyph name="visarga-deva" format="1">
  <advance width="351"/>
  <unicode hex="0903"/>
  <outline>
    <contour>
      <point x="88" y="543"/>
      <point x="64" y="521"/>
      <point x="64" y="481" type="curve" smooth="yes"/>
      <point x="64" y="441"/>
      <point x="88" y="419"/>
      <point x="127" y="419" type="curve" smooth="yes"/>
      <point x="166" y="419"/>
      <point x="190" y="441"/>
      <point x="190" y="481" type="curve" smooth="yes"/>
      <point x="190" y="521"/>
      <point x="166" y="543"/>
      <point x="127" y="543" type="curve" smooth="yes"/>
    </contour>
    <contour>
      <point x="90" y="251"/>
      <point x="66" y="229"/>
      <point x="66" y="189" type="curve" smooth="yes"/>
      <point x="66" y="149"/>
      <point x="90" y="127"/>
      <point x="129" y="127" type="curve" smooth="yes"/>
      <point x="168" y="127"/>
      <point x="192" y="149"/>
      <point x="192" y="189" type="curve" smooth="yes"/>
      <point x="192" y="229"/>
      <point x="168" y="251"/>
      <point x="129" y="251" type="curve" smooth="yes"/>
    </contour>
  </outline>
</glyph>
<glyph name="a-deva" format="1">
  <advance width="756"/>
  <unicode hex="0905"/>
  <outline>
    <contour>
      <point x="597" y="614" type="line"/>
      <point x="597" y="0" type="line"/>
      <point x="665" y="0" type="line"/>
      <point x="665" y="614" type="line"/>
    </contour>
    <contour>
      <point x="461" y="680" type="line"/>
      <point x="461" y="604" type="line"/>
      <point x="766" y="604" type="line"/>
      <point x="766" y="680" type="line"/>
    </contour>
    <contour>
      <point x="275" y="385" type="line"/>
      <point x="339" y="307" type="line"/>
      <point x="607" y="307" type="line"/>
      <point x="607" y="385" type="line"/>
    </contour>
    <contour>
      <point x="289" y="385" type="line"/>
      <point x="345" y="385"/>
      <point x="389" y="426"/>
      <point x="389" y="531" type="curve" smooth="yes"/>
      <point x="389" y="638"/>
      <point x="342" y="688"/>
      <point x="209" y="688" type="curve" smooth="yes"/>
      <point x="162" y="688"/>
      <point x="109" y="682"/>
      <point x="65" y="671" type="curve"/>
      <point x="65" y="589" type="line"/>
      <point x="108" y="600"/>
      <point x="160" y="606"/>
      <point x="212" y="606" type="curve" smooth="yes"/>
      <point x="301" y="606"/>
      <point x="317" y="588"/>
      <point x="317" y="523" type="curve" smooth="yes"/>
      <point x="317" y="445"/>
      <point x="294" y="423"/>
      <point x="214" y="423" type="curve" smooth="yes"/>
      <point x="114" y="423" type="line"/>
      <point x="114" y="345" type="line"/>
      <point x="214" y="345" type="line" smooth="yes"/>
      <point x="299" y="345"/>
      <point x="328" y="316"/>
      <point x="328" y="243" type="curve" smooth="yes"/>
      <point x="328" y="164"/>
      <point x="295" y="136"/>
      <point x="183" y="136" type="curve" smooth="yes"/>
      <point x="110" y="136"/>
      <point x="70" y="148"/>
      <point x="22" y="167" type="curve"/>
      <point x="22" y="85" type="line"/>
      <point x="60" y="69"/>
      <point x="122" y="54"/>
      <point x="194" y="54" type="curve" smooth="yes"/>
      <point x="339" y="54"/>
      <point x="400" y="115"/>
      <point x="400" y="231" type="curve" smooth="yes"/>
      <point x="400" y="315"/>
      <point x="368" y="363"/>
      <point x="289" y="383" type="curve"/>
    </contour>
    <contour>
      <point x="20" y="0" type="move" name="nukta"/>
    </contour>
    <contour>
      <point x="630" y="0" type="move" name="bottom"/>
    </contour>
    <contour>
      <point x="630" y="680" type="move" name="top"/>
    </contour>
  </outline>
</glyph>
<glyph name="u-deva" format="1">
  <advance width="491"/>
  <unicode hex="0909"/>
  <outline>
    <contour>
      <point x="506" y="604" type="line"/>
      <point x="506" y="680" type="line"/>
      <point x="-10" y="680" type="line"/>
      <point x="-10" y="604" type="line"/>
    </contour>
    <contour>
      <point x="308" y="616" type="line"/>
      <point x="331" y="587"/>
      <point x="341" y="561"/>
      <point x="341" y="516" type="curve" smooth="yes"/>
      <point x="341" y="444"/>
      <point x="314" y="423"/>
      <point x="238" y="423" type="curve" smooth="yes"/>
      <point x="119" y="423" type="line"/>
      <point x="119" y="345" type="line"/>
      <point x="238" y="345" type="line" smooth="yes"/>
      <point x="322" y="345"/>
      <point x="352" y="317"/>
      <point x="352" y="244" type="curve" smooth="yes"/>
      <point x="352" y="162"/>
      <point x="314" y="136"/>
      <point x="201" y="136" type="curve" smooth="yes"/>
      <point x="110" y="136"/>
      <point x="66" y="153"/>
      <point x="10" y="180" type="curve"/>
      <point x="10" y="100" type="line"/>
      <point x="54" y="77"/>
      <point x="123" y="54"/>
      <point x="214" y="54" type="curve" smooth="yes"/>
      <point x="356" y="54"/>
      <point x="424" y="110"/>
      <point x="424" y="236" type="curve" smooth="yes"/>
      <point x="424" y="337"/>
      <point x="380" y="384"/>
      <point x="295" y="399" type="curve"/>
      <point x="295" y="375" type="line"/>
      <point x="365" y="381"/>
      <point x="413" y="427"/>
      <point x="413" y="519" type="curve" smooth="yes"/>
      <point x="413" y="561"/>
      <point x="403" y="591"/>
      <point x="382" y="616" type="curve"/>
    </contour>
    <contour>
      <point x="341" y="680" type="move" name="top"/>
    </contour>
    <contour>
      <point x="215" y="0" type="move" name="bottom"/>
    </contour>
  </outline>
</glyph>
<glyph name="lVocalic-deva" format="1">
  <advance width="730"/>
  <unicode hex="090C"/>
  <outline>
    <contour>
      <point x="685" y="391"/>
      <point x="638" y="467"/>
      <point x="504" y="467" type="curve" smooth="yes"/>
      <point x="440" y="467"/>
      <point x="390" y="450"/>
      <point x="365" y="393" type="curve"/>
      <point x="340" y="450"/>
      <point x="290" y="467"/>
      <point x="226" y="467" type="curve" smooth="yes"/>
      <point x="87" y="467"/>
      <point x="45" y="388"/>
      <point x="45" y="237" type="curve" smooth="yes"/>
      <point x="45" y="123"/>
      <point x="69" y="65"/>
      <point x="111" y="32" type="curve" smooth="yes"/>
      <point x="140" y="10"/>
      <point x="174" y="0"/>
      <point x="257" y="0" type="curve" smooth="yes"/>
      <point x="285" y="0" type="line"/>
      <point x="285" y="78" type="line"/>
      <point x="266" y="78" type="line" smooth="yes"/>
      <point x="226" y="78"/>
      <point x="177" y="79"/>
      <point x="153" y="97" type="curve" smooth="yes"/>
      <point x="124" y="118"/>
      <point x="117" y="170"/>
      <point x="117" y="229" type="curve" smooth="yes"/>
      <point x="117" y="331"/>
      <point x="138" y="385"/>
      <point x="229" y="385" type="curve" smooth="yes"/>
      <point x="306" y="385"/>
      <point x="334" y="347"/>
      <point x="334" y="247" type="curve" smooth="yes"/>
      <point x="334" y="208" type="line"/>
      <point x="396" y="208" type="line"/>
      <point x="396" y="247" type="line" smooth="yes"/>
      <point x="396" y="347"/>
      <point x="424" y="385"/>
      <point x="501" y="385" type="curve" smooth="yes"/>
      <point x="577" y="385"/>
      <point x="613" y="348"/>
      <point x="613" y="260" type="curve" smooth="yes"/>
      <point x="613" y="81"/>
      <point x="465" y="160"/>
      <point x="465" y="-1" type="curve" smooth="yes"/>
      <point x="465" y="-95"/>
      <point x="516" y="-150"/>
      <point x="632" y="-150" type="curve" smooth="yes"/>
      <point x="663" y="-150"/>
      <point x="690" y="-146"/>
      <point x="710" y="-139" type="curve"/>
      <point x="710" y="-57" type="line"/>
      <point x="685" y="-65"/>
      <point x="661" y="-68"/>
      <point x="632" y="-68" type="curve" smooth="yes"/>
      <point x="573" y="-68"/>
      <point x="537" y="-56"/>
      <point x="537" y="-4" type="curve" smooth="yes"/>
      <point x="537" y="100"/>
      <point x="685" y="42"/>
      <point x="685" y="265" type="curve" smooth="yes"/>
    </contour>
    <contour>
      <point x="740" y="604" type="line"/>
      <point x="740" y="680" type="line"/>
      <point x="-10" y="680" type="line"/>
      <point x="-10" y="604" type="line"/>
    </contour>
    <contour>
      <point x="553" y="441" type="line"/>
      <point x="553" y="614" type="line"/>
      <point x="483" y="614" type="line"/>
      <point x="483" y="441" type="line"/>
    </contour>
    <contour>
      <point x="43" y="-65" type="move" name="nukta"/>
    </contour>
    <contour>
      <point x="428" y="0" type="move" name="bottom"/>
    </contour>
    <contour>
      <point x="518" y="680" type="move" name="top"/>
    </contour>
  </outline>
</glyph>
<glyph name="ka-deva" format="1">
  <advance width="832"/>
  <unicode hex="0915"/>
  <outline>
    <contour>
      <point x="102" y="496"/>
      <point x="40" y="444"/>
      <point x="40" y="303" type="curve" smooth="yes"/>
      <point x="40" y="163"/>
      <point x="102" y="110"/>
      <point x="233" y="110" type="curve" smooth="yes"/>
      <point x="306" y="110"/>
      <point x="350" y="126"/>
      <point x="393" y="150" type="curve"/>
      <point x="393" y="218" type="line"/>
      <point x="347" y="198"/>
      <point x="310" y="192"/>
      <point x="252" y="192" type="curve" smooth="yes"/>
      <point x="143" y="192"/>
      <point x="112" y="214"/>
      <point x="112" y="302" type="curve" smooth="yes"/>
      <point x="112" y="392"/>
      <point x="144" y="414"/>
      <point x="251" y="414" type="curve" smooth="yes"/>
      <point x="312" y="414"/>
      <point x="347" y="407"/>
      <point x="392" y="387" type="curve"/>
      <point x="392" y="459" type="line"/>
      <point x="348" y="481"/>
      <point x="304" y="496"/>
      <point x="233" y="496" type="curve" smooth="yes"/>
    </contour>
    <contour>
      <point x="382" y="614" type="line"/>
      <point x="382" y="0" type="line"/>
      <point x="450" y="0" type="line"/>
      <point x="450" y="614" type="line"/>
    </contour>
    <contour>
      <point x="-10" y="680" type="line"/>
      <point x="-10" y="604" type="line"/>
      <point x="842" y="604" type="line"/>
      <point x="842" y="680" type="line"/>
    </contour>
    <contour>
      <point x="541" y="114" type="line"/>
      <point x="566" y="111"/>
      <point x="593" y="110"/>
      <point x="613" y="110" type="curve" smooth="yes"/>
      <point x="677" y="110"/>
      <point x="720" y="121"/>
      <point x="748" y="150" type="curve" smooth="yes"/>
      <point x="778" y="181"/>
      <point x="792" y="232"/>
      <point x="792" y="301" type="curve" smooth="yes"/>
      <point x="792" y="444"/>
      <point x="731" y="496"/>
      <point x="599" y="496" type="curve" smooth="yes"/>
      <point x="528" y="496"/>
      <point x="484" y="481"/>
      <point x="440" y="459" type="curve"/>
      <point x="440" y="387" type="line"/>
      <point x="485" y="407"/>
      <point x="519" y="414"/>
      <point x="582" y="414" type="curve" smooth="yes"/>
      <point x="693" y="414"/>
      <point x="720" y="392"/>
      <point x="720" y="300" type="curve" smooth="yes"/>
      <point x="720" y="213"/>
      <point x="696" y="192"/>
      <point x="607" y="192" type="curve" smooth="yes"/>
      <point x="587" y="192"/>
      <point x="564" y="193"/>
      <point x="541" y="196" type="curve"/>
    </contour>
    <contour>
      <point x="76" y="0" type="move" name="nukta"/>
    </contour>
    <contour>
      <point x="416" y="0" type="move" name="bottom"/>
    </contour>
    <contour>
      <point x="416" y="680" type="move" name="top"/>
    </contour>
  </outline>
</glyph>
<glyph name="cha-deva" format="1">
  <advance width="677"/>
  <unicode hex="091B"/>
  <outline>
    <contour>
      <point x="687" y="604" type="line"/>
      <point x="687" y="680" type="line"/>
      <point x="-10" y="680" type="line"/>
      <point x="-10" y="604" type="line"/>
    </contour>
    <contour>
      <point x="202" y="516" type="move"/>
    </contour>
    <contour>
      <point x="512" y="480" type="line"/>
      <point x="512" y="614" type="line"/>
      <point x="444" y="614" type="line"/>
      <point x="444" y="480" type="line"/>
    </contour>
    <contour>
      <point x="142" y="276" type="line"/>
      <point x="98" y="272"/>
      <point x="60" y="232"/>
      <point x="60" y="159" type="curve" smooth="yes"/>
      <point x="60" y="59"/>
      <point x="132" y="0"/>
      <point x="305" y="0" type="curve" smooth="yes"/>
      <point x="531" y="0"/>
      <point x="637" y="101"/>
      <point x="637" y="303" type="curve" smooth="yes"/>
      <point x="637" y="449"/>
      <point x="582" y="516"/>
      <point x="476" y="516" type="curve" smooth="yes"/>
      <point x="388" y="516"/>
      <point x="340" y="469"/>
      <point x="340" y="372" type="curve" smooth="yes"/>
      <point x="340" y="274"/>
      <point x="390" y="229"/>
      <point x="495" y="228" type="curve"/>
      <point x="495" y="310" type="line"/>
      <point x="435" y="310"/>
      <point x="408" y="328"/>
      <point x="408" y="374" type="curve" smooth="yes"/>
      <point x="408" y="417"/>
      <point x="431" y="434"/>
      <point x="477" y="434" type="curve" smooth="yes"/>
      <point x="542" y="434"/>
      <point x="569" y="401"/>
      <point x="569" y="308" type="curve" smooth="yes"/>
      <point x="569" y="148"/>
      <point x="489" y="82"/>
      <point x="293" y="82" type="curve" smooth="yes"/>
      <point x="157" y="82"/>
      <point x="128" y="114"/>
      <point x="128" y="171" type="curve" smooth="yes"/>
      <point x="128" y="211"/>
      <point x="142" y="226"/>
      <point x="196" y="226" type="curve" smooth="yes"/>
      <point x="275" y="226" type="line"/>
      <point x="275" y="304" type="line"/>
      <point x="199" y="304" type="line" smooth="yes"/>
      <point x="123" y="304"/>
      <point x="103" y="318"/>
      <point x="103" y="369" type="curve" smooth="yes"/>
      <point x="103" y="413"/>
      <point x="118" y="434"/>
      <point x="207" y="434" type="curve" smooth="yes"/>
      <point x="240" y="434"/>
      <point x="262" y="431"/>
      <point x="290" y="425" type="curve"/>
      <point x="290" y="507" type="line"/>
      <point x="264" y="513"/>
      <point x="234" y="516"/>
      <point x="201" y="516" type="curve" smooth="yes"/>
      <point x="94" y="516"/>
      <point x="35" y="483"/>
      <point x="35" y="382" type="curve" smooth="yes"/>
      <point x="35" y="300"/>
      <point x="74" y="266"/>
      <point x="142" y="260" type="curve"/>
    </contour>
    <contour>
      <point x="305" y="-120" type="move" name="nukta"/>
    </contour>
    <contour>
      <point x="391" y="37" type="move" name="bottom"/>
    </contour>
    <contour>
      <point x="478" y="680" type="move" name="top"/>
    </contour>
  </outline>
</glyph>
<glyph name="nya-deva" format="1">
  <advance width="750"/>
  <unicode hex="091E"/>
  <outline>
    <contour>
      <point x="397" y="99"/>
      <point x="471" y="174"/>
      <point x="471" y="311" type="curve" smooth="yes"/>
      <point x="471" y="447"/>
      <point x="398" y="509"/>
      <point x="266" y="509" type="curve" smooth="yes"/>
      <point x="228" y="509"/>
      <point x="193" y="504"/>
      <point x="159" y="496" type="curve"/>
      <point x="159" y="414" type="line"/>
      <point x="202" y="423"/>
      <point x="234" y="427"/>
      <point x="268" y="427" type="curve" smooth="yes"/>
      <point x="368" y="427"/>
      <point x="403" y="391"/>
      <point x="403" y="308" type="curve" smooth="yes"/>
      <point x="403" y="219"/>
      <point x="362" y="181"/>
      <point x="260" y="181" type="curve" smooth="yes"/>
      <point x="163" y="181"/>
      <point x="111" y="215"/>
      <point x="88" y="308" type="curve"/>
      <point x="20" y="308" type="line"/>
      <point x="35" y="172"/>
      <point x="122" y="99"/>
      <point x="259" y="99" type="curve" smooth="yes"/>
    </contour>
    <contour>
      <point x="596" y="275" type="line"/>
      <point x="596" y="353" type="line"/>
      <point x="434" y="353" type="line"/>
      <point x="434" y="275" type="line"/>
    </contour>
    <contour>
      <point x="654" y="0" type="line"/>
      <point x="654" y="614" type="line"/>
      <point x="586" y="614" type="line"/>
      <point x="586" y="0" type="line"/>
    </contour>
    <contour>
      <point x="760" y="604" type="line"/>
      <point x="760" y="680" type="line"/>
      <point x="-10" y="680" type="line"/>
      <point x="-10" y="604" type="line"/>
    </contour>
    <contour>
      <point x="263" y="0" type="move" name="nukta"/>
    </contour>
    <contour>
      <point x="620" y="0" type="move" name="bottom"/>
    </contour>
    <contour>
      <point x="620" y="680" type="move" name="top"/>
    </contour>
  </outline>
</glyph>
<glyph name="ddha-deva" format="1">
  <advance width="582"/>
  <unicode hex="0922"/>
  <outline>
    <contour>
      <point x="592" y="604" type="line"/>
      <point x="592" y="680" type="line"/>
      <point x="-10" y="680" type="line"/>
      <point x="-10" y="604" type="line"/>
    </contour>
    <contour>
      <point x="541" y="273"/>
      <point x="493" y="318"/>
      <point x="397" y="318" type="curve" smooth="yes"/>
      <point x="289" y="318"/>
      <point x="249" y="260"/>
      <point x="249" y="166" type="curve" smooth="yes"/>
      <point x="249" y="129"/>
      <point x="255" y="93"/>
      <point x="266" y="66" type="curve"/>
      <point x="326" y="66" type="line"/>
      <point x="317" y="98"/>
      <point x="313" y="129"/>
      <point x="313" y="152" type="curve" smooth="yes"/>
      <point x="313" y="214"/>
      <point x="343" y="238"/>
      <point x="395" y="238" type="curve" smooth="yes"/>
      <point x="449" y="238"/>
      <point x="469" y="212"/>
      <point x="469" y="167" type="curve" smooth="yes"/>
      <point x="469" y="107"/>
      <point x="434" y="82"/>
      <point x="316" y="82" type="curve" smooth="yes"/>
      <point x="161" y="82"/>
      <point x="112" y="121"/>
      <point x="112" y="254" type="curve" smooth="yes"/>
      <point x="112" y="381"/>
      <point x="161" y="423"/>
      <point x="312" y="423" type="curve" smooth="yes"/>
      <point x="493" y="423" type="line"/>
      <point x="493" y="614" type="line"/>
      <point x="425" y="614" type="line"/>
      <point x="425" y="501" type="line"/>
      <point x="301" y="501" type="line" smooth="yes"/>
      <point x="121" y="501"/>
      <point x="40" y="425"/>
      <point x="40" y="255" type="curve" smooth="yes"/>
      <point x="40" y="81"/>
      <point x="125" y="0"/>
      <point x="309" y="0" type="curve" smooth="yes"/>
      <point x="472" y="0"/>
      <point x="541" y="63"/>
      <point x="541" y="177" type="curve" smooth="yes"/>
    </contour>
    <contour>
      <point x="309" y="-120" type="move" name="nukta"/>
    </contour>
    <contour>
      <point x="309" y="0" type="move" name="bottom"/>
    </contour>
    <contour>
      <point x="458" y="680" type="move" name="top"/>
    </contour>
  </outline>
</glyph>
<glyph name="ta-deva" format="1">
  <advance width="566"/>
  <unicode hex="0924"/>
  <outline>
    <contour>
      <point x="402" y="614" type="line"/>
      <point x="402" y="0" type="line"/>
      <point x="470" y="0" type="line"/>
      <point x="470" y="614" type="line"/>
    </contour>
    <contour>
      <point x="-10" y="680" type="line"/>
      <point x="-10" y="604" type="line"/>
      <point x="576" y="604" type="line"/>
      <point x="576" y="680" type="line"/>
    </contour>
    <contour>
      <point x="40" y="207"/>
      <point x="63" y="116"/>
      <point x="109" y="0" type="curve"/>
      <point x="181" y="0" type="line"/>
      <point x="142" y="111"/>
      <point x="116" y="197"/>
      <point x="116" y="265" type="curve" smooth="yes"/>
      <point x="116" y="341"/>
      <point x="149" y="371"/>
      <point x="235" y="371" type="curve" smooth="yes"/>
      <point x="419" y="371" type="line"/>
      <point x="419" y="449" type="line"/>
      <point x="227" y="449" type="line" smooth="yes"/>
      <point x="93" y="449"/>
      <point x="40" y="398"/>
      <point x="40" y="283" type="curve" smooth="yes"/>
    </contour>
    <contour>
      <point x="6" y="0" type="move" name="nukta"/>
    </contour>
    <contour>
      <point x="436" y="0" type="move" name="bottom"/>
    </contour>
    <contour>
      <point x="436" y="680" type="move" name="top"/>
    </contour>
  </outline>
</glyph>
<glyph name="na-deva" format="1">
  <advance width="580"/>
  <unicode hex="0928"/>
  <outline>
    <contour>
      <point x="416" y="614" type="line"/>
      <point x="416" y="0" type="line"/>
      <point x="484" y="0" type="line"/>
      <point x="484" y="614" type="line"/>
    </contour>
    <contour>
      <point x="-10" y="680" type="line"/>
      <point x="-10" y="604" type="line"/>
      <point x="590" y="604" type="line"/>
      <point x="590" y="680" type="line"/>
    </contour>
    <contour>
      <point x="146" y="322" type="line"/>
      <point x="426" y="322" type="line"/>
      <point x="426" y="400" type="line"/>
      <point x="144" y="400" type="line" smooth="yes"/>
      <point x="61" y="400"/>
      <point x="30" y="376"/>
      <point x="30" y="310" type="curve" smooth="yes"/>
      <point x="30" y="247"/>
      <point x="59" y="215"/>
      <point x="124" y="215" type="curve"/>
      <point x="176" y="334" type="line"/>
    </contour>
    <contour>
      <point x="105" y="0" type="move" name="nukta"/>
    </contour>
    <contour>
      <point x="450" y="0" type="move" name="bottom"/>
    </contour>
    <contour>
      <point x="450" y="680" type="move" name="top"/>
    </contour>
  </outline>
</glyph>
<glyph name="va-deva" format="1">
  <advance width="584"/>
  <unicode hex="0935"/>
  <outline>
    <contour>
      <point x="111" y="502"/>
      <point x="39" y="451"/>
      <point x="39" y="303" type="curve" smooth="yes"/>
      <point x="39" y="155"/>
      <point x="111" y="104"/>
      <point x="259" y="104" type="curve" smooth="yes"/>
      <point x="342" y="104"/>
      <point x="388" y="120"/>
      <point x="434" y="143" type="curve"/>
      <point x="434" y="212" type="line"/>
      <point x="388" y="193"/>
      <point x="346" y="186"/>
      <point x="272" y="186" type="curve" smooth="yes"/>
      <point x="148" y="186"/>
      <point x="111" y="206"/>
      <point x="111" y="303" type="curve" smooth="yes"/>
      <point x="111" y="399"/>
      <point x="147" y="420"/>
      <point x="271" y="420" type="curve" smooth="yes"/>
      <point x="343" y="420"/>
      <point x="385" y="413"/>
      <point x="434" y="393" type="curve"/>
      <point x="434" y="465" type="line"/>
      <point x="386" y="487"/>
      <point x="340" y="502"/>
      <point x="259" y="502" type="curve" smooth="yes"/>
    </contour>
    <contour>
      <point x="420" y="614" type="line"/>
      <point x="420" y="0" type="line"/>
      <point x="488" y="0" type="line"/>
      <point x="488" y="614" type="line"/>
    </contour>
    <contour>
      <point x="-10" y="680" type="line"/>
      <point x="-10" y="604" type="line"/>
      <point x="594" y="604" type="line"/>
      <point x="594" y="680" type="line"/>
    </contour>
    <contour>
      <point x="75" y="0" type="move" name="nukta"/>
    </contour>
    <contour>
      <point x="454" y="0" type="move" name="bottom"/>
    </contour>
    <contour>
      <point x="454" y="680" type="move" name="top"/>
    </contour>
  </outline>
</glyph>
<glyph name="oeMatra-deva" format="1">
  <advance width="250"/>
  <unicode hex="093A"/>
  <outline>
    <contour>
      <point x="91" y="820" type="line"/>
      <point x="91" y="670" type="line"/>
      <point x="159" y="670" type="line"/>
      <point x="159" y="820" type="line"/>
    </contour>
    <contour>
      <point x="125" y="680" type="move" name="_top"/>
    </contour>
  </outline>
</glyph>
<glyph name="aaMatra-deva" format="1">
  <advance width="260"/>
  <unicode hex="093E"/>
  <outline>
    <contour>
      <point x="96" y="614" type="line"/>
      <point x="96" y="0" type="line"/>
      <point x="164" y="0" type="line"/>
      <point x="164" y="614" type="line"/>
    </contour>
    <contour>
      <point x="-10" y="680" type="line"/>
      <point x="-10" y="604" type="line"/>
      <point x="270" y="604" type="line"/>
      <point x="270" y="680" type="line"/>
    </contour>
    <contour>
      <point x="130" y="680" type="move" name="top"/>
    </contour>
    <contour>
      <point x="130" y="0" type="move" name="bottom"/>
    </contour>
  </outline>
</glyph>
<glyph name="uMatra-deva" format="1">
  <advance width="250"/>
  <unicode hex="0941"/>
  <outline>
    <contour>
      <point x="54" y="-70"/>
      <point x="87" y="-62"/>
      <point x="118" y="-62" type="curve" smooth="yes"/>
      <point x="168" y="-62"/>
      <point x="189" y="-82"/>
      <point x="189" y="-123" type="curve" smooth="yes"/>
      <point x="189" y="-172"/>
      <point x="160" y="-191"/>
      <point x="91" y="-191" type="curve" smooth="yes"/>
      <point x="9" y="-191"/>
      <point x="-75" y="-164"/>
      <point x="-182" y="-109" type="curve"/>
      <point x="-182" y="-181" type="line"/>
      <point x="-99" y="-233"/>
      <point x="4" y="-263"/>
      <point x="87" y="-263" type="curve" smooth="yes"/>
      <point x="192" y="-263"/>
      <point x="251" y="-215"/>
      <point x="251" y="-123" type="curve" smooth="yes"/>
      <point x="251" y="-43"/>
      <point x="206" y="10"/>
      <point x="124" y="10" type="curve" smooth="yes"/>
      <point x="91" y="10"/>
      <point x="48" y="1"/>
      <point x="10" y="-17" type="curve"/>
      <point x="10" y="-89" type="line"/>
    </contour>
    <contour>
      <point x="125" y="0" type="move" name="_bottom"/>
    </contour>
  </outline>
</glyph>
<glyph name="rrVocalicMatra-deva" format="1">
  <advance width="250"/>
  <unicode hex="0944"/>
  <outline>
    <contour>
      <point x="159" y="-476"/>
      <point x="183" y="-473"/>
      <point x="215" y="-465" type="curve"/>
      <point x="215" y="-397" type="line"/>
      <point x="177" y="-405"/>
      <point x="156" y="-408"/>
      <point x="131" y="-408" type="curve" smooth="yes"/>
      <point x="69" y="-408"/>
      <point x="40" y="-390"/>
      <point x="40" y="-338" type="curve" smooth="yes"/>
      <point x="40" y="-287"/>
      <point x="67" y="-266"/>
      <point x="125" y="-266" type="curve" smooth="yes"/>
      <point x="205" y="-266" type="line"/>
      <point x="205" y="-200" type="line"/>
      <point x="125" y="-200" type="line" smooth="yes"/>
      <point x="67" y="-200"/>
      <point x="40" y="-179"/>
      <point x="40" y="-128" type="curve" smooth="yes"/>
      <point x="40" y="-76"/>
      <point x="69" y="-58"/>
      <point x="131" y="-58" type="curve" smooth="yes"/>
      <point x="156" y="-58"/>
      <point x="177" y="-61"/>
      <point x="215" y="-69" type="curve"/>
      <point x="215" y="-1" type="line"/>
      <point x="183" y="7"/>
      <point x="159" y="10"/>
      <point x="133" y="10" type="curve" smooth="yes"/>
      <point x="30" y="10"/>
      <point x="-18" y="-40"/>
      <point x="-18" y="-125" type="curve" smooth="yes"/>
      <point x="-18" y="-181"/>
      <point x="3" y="-215"/>
      <point x="41" y="-233" type="curve"/>
      <point x="3" y="-251"/>
      <point x="-18" y="-285"/>
      <point x="-18" y="-341" type="curve" smooth="yes"/>
      <point x="-18" y="-426"/>
      <point x="30" y="-476"/>
      <point x="133" y="-476" type="curve" smooth="yes"/>
    </contour>
    <contour>
      <point x="125" y="0" type="move" name="_bottom"/>
    </contour>
  </outline>
</glyph>
<glyph name="eCandraMatra-deva" format="1">
  <advance width="250"/>
  <unicode hex="0945"/>
  <outline>
    <contour>
      <point x="233" y="730"/>
      <point x="280" y="775"/>
      <point x="280" y="866" type="curve"/>
      <point x="220" y="866" type="line"/>
      <point x="220" y="823"/>
      <point x="194" y="800"/>
      <point x="125" y="800" type="curve" smooth="yes"/>
      <point x="60" y="800"/>
      <point x="30" y="820"/>
      <point x="30" y="866" type="curve"/>
      <point x="-30" y="866" type="line"/>
      <point x="-30" y="777"/>
      <point x="15" y="730"/>
      <point x="125" y="730" type="curve" smooth="yes"/>
    </contour>
    <contour>
      <point x="125" y="680" type="move" name="_top"/>
    </contour>
  </outline>
</glyph>
<glyph name="eMatra-deva" format="1">
  <advance width="250"/>
  <unicode hex="0947"/>
  <outline>
    <contour>
      <point x="-166" y="950" type="curve"/>
      <point x="-166" y="872" type="line"/>
      <point x="49" y="872"/>
      <point x="96" y="850"/>
      <point x="96" y="740" type="curve" smooth="yes"/>
      <point x="96" y="670" type="line"/>
      <point x="164" y="670" type="line"/>
      <point x="164" y="754" type="line" smooth="yes"/>
      <point x="164" y="899"/>
      <point x="84" y="950"/>
    </contour>
    <contour>
      <point x="130" y="680" type="move" name="_top"/>
    </contour>
  </outline>
</glyph>
<glyph name="udatta-deva" format="1">
  <advance width="250"/>
  <unicode hex="0951"/>
  <outline>
    <contour>
      <point x="96" y="1100" type="line"/>
      <point x="96" y="730" type="line"/>
      <point x="154" y="730" type="line"/>
      <point x="154" y="1100" type="line"/>
    </contour>
    <contour>
      <point x="125" y="680" type="move" name="_top"/>
    </contour>
  </outline>
</glyph>
<glyph name="llVocalic-deva" format="1">
  <advance width="730"/>
  <unicode hex="0961"/>
  <outline>
    <contour>
      <point x="668" y="-359"/>
      <point x="694" y="-356"/>
      <point x="717" y="-348" type="curve"/>
      <point x="717" y="-266" type="line"/>
      <point x="693" y="-274"/>
      <point x="670" y="-277"/>
      <point x="641" y="-277" type="curve" smooth="yes"/>
      <point x="569" y="-277"/>
      <point x="544" y="-259"/>
      <point x="544" y="-214" type="curve" smooth="yes"/>
      <point x="544" y="-165"/>
      <point x="574" y="-140"/>
      <point x="635" y="-140" type="curve"/>
      <point x="625" y="-105" type="line"/>
      <point x="517" y="-105"/>
      <point x="472" y="-142"/>
      <point x="472" y="-229" type="curve" smooth="yes"/>
      <point x="472" y="-319"/>
      <point x="521" y="-359"/>
      <point x="636" y="-359" type="curve" smooth="yes"/>
    </contour>
    <contour>
      <point x="740" y="604" type="line"/>
      <point x="740" y="680" type="line"/>
      <point x="-10" y="680" type="line"/>
      <point x="-10" y="604" type="line"/>
    </contour>
    <contour>
      <point x="685" y="391"/>
      <point x="638" y="467"/>
      <point x="504" y="467" type="curve" smooth="yes"/>
      <point x="440" y="467"/>
      <point x="390" y="450"/>
      <point x="365" y="393" type="curve"/>
      <point x="340" y="450"/>
      <point x="290" y="467"/>
      <point x="226" y="467" type="curve" smooth="yes"/>
      <point x="87" y="467"/>
      <point x="45" y="388"/>
      <point x="45" y="237" type="curve" smooth="yes"/>
      <point x="45" y="123"/>
      <point x="69" y="65"/>
      <point x="111" y="32" type="curve" smooth="yes"/>
      <point x="140" y="10"/>
      <point x="174" y="0"/>
      <point x="257" y="0" type="curve" smooth="yes"/>
      <point x="285" y="0" type="line"/>
      <point x="285" y="78" type="line"/>
      <point x="266" y="78" type="line" smooth="yes"/>
      <point x="226" y="78"/>
      <point x="177" y="79"/>
      <point x="153" y="97" type="curve" smooth="yes"/>
      <point x="124" y="118"/>
      <point x="117" y="170"/>
      <point x="117" y="229" type="curve" smooth="yes"/>
      <point x="117" y="331"/>
      <point x="138" y="385"/>
      <point x="229" y="385" type="curve" smooth="yes"/>
      <point x="306" y="385"/>
      <point x="334" y="347"/>
      <point x="334" y="247" type="curve" smooth="yes"/>
      <point x="334" y="208" type="line"/>
      <point x="396" y="208" type="line"/>
      <point x="396" y="247" type="line" smooth="yes"/>
      <point x="396" y="347"/>
      <point x="424" y="385"/>
      <point x="501" y="385" type="curve" smooth="yes"/>
      <point x="577" y="385"/>
      <point x="613" y="348"/>
      <point x="613" y="260" type="curve" smooth="yes"/>
      <point x="613" y="81"/>
      <point x="465" y="159"/>
      <point x="465" y="4" type="curve" smooth="yes"/>
      <point x="465" y="-88"/>
      <point x="518" y="-140"/>
      <point x="632" y="-140" type="curve" smooth="yes"/>
      <point x="663" y="-140"/>
      <point x="690" y="-136"/>
      <point x="710" y="-129" type="curve"/>
      <point x="710" y="-47" type="line"/>
      <point x="685" y="-55"/>
      <point x="661" y="-58"/>
      <point x="632" y="-58" type="curve" smooth="yes"/>
      <point x="572" y="-58"/>
      <point x="537" y="-46"/>
      <point x="537" y="1" type="curve" smooth="yes"/>
      <point x="537" y="99"/>
      <point x="685" y="42"/>
      <point x="685" y="265" type="curve" smooth="yes"/>
    </contour>
    <contour>
      <point x="553" y="441" type="line"/>
      <point x="553" y="614" type="line"/>
      <point x="483" y="614" type="line"/>
      <point x="483" y="441" type="line"/>
    </contour>
    <contour>
      <point x="45" y="-65" type="move" name="nukta"/>
    </contour>
    <contour>
      <point x="430" y="0" type="move" name="bottom"/>
    </contour>
    <contour>
      <point x="518" y="680" type="move" name="top"/>
    </contour>
  </outline>
</glyph>
<glyph name="lVocalicMatra-deva" format="1">
  <advance width="250"/>
  <unicode hex="0962"/>
  <outline>
    <contour>
      <point x="313" y="-404"/>
      <point x="329" y="-401"/>
      <point x="342" y="-397" type="curve"/>
      <point x="342" y="-331" type="line"/>
      <point x="326" y="-336"/>
      <point x="311" y="-338"/>
      <point x="292" y="-338" type="curve" smooth="yes"/>
      <point x="257" y="-338"/>
      <point x="240" y="-331"/>
      <point x="240" y="-310" type="curve" smooth="yes"/>
      <point x="240" y="-261"/>
      <point x="335" y="-280"/>
      <point x="335" y="-147" type="curve" smooth="yes"/>
      <point x="335" y="-67"/>
      <point x="300" y="-20"/>
      <point x="219" y="-20" type="curve" smooth="yes"/>
      <point x="170" y="-20"/>
      <point x="138" y="-37"/>
      <point x="125" y="-76" type="curve"/>
      <point x="110" y="-32"/>
      <point x="76" y="-20"/>
      <point x="34" y="-20" type="curve" smooth="yes"/>
      <point x="-54" y="-20"/>
      <point x="-86" y="-73"/>
      <point x="-86" y="-166" type="curve" smooth="yes"/>
      <point x="-86" y="-276"/>
      <point x="-42" y="-315"/>
      <point x="44" y="-315" type="curve" smooth="yes"/>
      <point x="78" y="-315" type="line"/>
      <point x="78" y="-249" type="line"/>
      <point x="45" y="-249" type="line" smooth="yes"/>
      <point x="-14" y="-249"/>
      <point x="-30" y="-232"/>
      <point x="-30" y="-168" type="curve" smooth="yes"/>
      <point x="-30" y="-118"/>
      <point x="-20" y="-86"/>
      <point x="39" y="-86" type="curve" smooth="yes"/>
      <point x="85" y="-86"/>
      <point x="98" y="-105"/>
      <point x="98" y="-161" type="curve" smooth="yes"/>
      <point x="98" y="-193" type="line"/>
      <point x="152" y="-193" type="line"/>
      <point x="152" y="-161" type="line" smooth="yes"/>
      <point x="152" y="-107"/>
      <point x="165" y="-86"/>
      <point x="213" y="-86" type="curve" smooth="yes"/>
      <point x="264" y="-86"/>
      <point x="279" y="-110"/>
      <point x="279" y="-150" type="curve" smooth="yes"/>
      <point x="279" y="-250"/>
      <point x="184" y="-211"/>
      <point x="184" y="-310" type="curve" smooth="yes"/>
      <point x="184" y="-372"/>
      <point x="222" y="-404"/>
      <point x="291" y="-404" type="curve" smooth="yes"/>
    </contour>
    <contour>
      <point x="125" y="0" type="move" name="_bottom"/>
    </contour>
  </outline>
</glyph>
<glyph name="glottalstop-deva" format="1">
  <advance width="565"/>
  <unicode hex="097D"/>
  <outline>
    <contour>
      <point x="220" y="0" type="line"/>
      <point x="290" y="0" type="line"/>
      <point x="290" y="266" type="line"/>
      <point x="417" y="266"/>
      <point x="490" y="342"/>
      <point x="490" y="476" type="curve" smooth="yes"/>
      <point x="490" y="606"/>
      <point x="410" y="680"/>
      <point x="270" y="680" type="curve" smooth="yes"/>
      <point x="206" y="680"/>
      <point x="143" y="669"/>
      <point x="95" y="650" type="curve"/>
      <point x="95" y="570" type="line"/>
      <point x="153" y="592"/>
      <point x="200" y="600"/>
      <point x="266" y="600" type="curve" smooth="yes"/>
      <point x="374" y="600"/>
      <point x="416" y="565"/>
      <point x="416" y="476" type="curve" smooth="yes"/>
      <point x="416" y="382"/>
      <point x="376" y="346"/>
      <point x="273" y="346" type="curve" smooth="yes"/>
      <point x="220" y="346" type="line"/>
    </contour>
  </outline>
</glyph>
<glyph name="ddda-deva" format="1">
  <advance width="529"/>
  <unicode hex="097E"/>
  <outline>
    <contour>
      <point x="33" y="-75" type="line"/>
      <point x="33" y="-137" type="line"/>
      <point x="477" y="-137" type="line"/>
      <point x="477" y="-75" type="line"/>
    </contour>
    <component base="dda-deva"/>
  </outline>
</glyph>
<glyph name="Germandbls" format="1">
  <advance width="723"/>
  <unicode hex="1E9E"/>
  <outline>
    <contour>
      <point x="129" y="680" type="line"/>
      <point x="129" y="86" type="line"/>
      <point x="55" y="55" type="line"/>
      <point x="55" y="0" type="line"/>
      <point x="215" y="0" type="line"/>
      <point x="215" y="608" type="line"/>
      <point x="558" y="608" type="line"/>
      <point x="558" y="626" type="line"/>
      <point x="362" y="405" type="line"/>
      <point x="362" y="333" type="line"/>
      <point x="392" y="333" type="line" smooth="yes"/>
      <point x="569" y="333"/>
      <point x="603" y="287"/>
      <point x="603" y="201" type="curve" smooth="yes"/>
      <point x="603" y="93"/>
      <point x="548" y="62"/>
      <point x="433" y="62" type="curve" smooth="yes"/>
      <point x="398" y="62"/>
      <point x="367" y="65"/>
      <point x="337" y="69" type="curve"/>
      <point x="337" y="-3" type="line"/>
      <point x="369" y="-9"/>
      <point x="412" y="-12"/>
      <point x="445" y="-12" type="curve" smooth="yes"/>
      <point x="619" y="-12"/>
      <point x="693" y="71"/>
      <point x="693" y="200" type="curve" smooth="yes"/>
      <point x="693" y="337"/>
      <point x="609" y="403"/>
      <point x="453" y="403" type="curve"/>
      <point x="453" y="387" type="line"/>
      <point x="658" y="618" type="line"/>
      <point x="658" y="680" type="line"/>
    </contour>
  </outline>
</glyph>
<glyph name="endash" format="1">
  <advance width="577"/>
  <unicode hex="2013"/>
  <outline>
    <contour>
      <point x="62" y="339" type="line"/>
      <point x="62" y="259" type="line"/>
      <point x="515" y="259" type="line"/>
      <point x="515" y="339" type="line"/>
    </contour>
  </outline>
</glyph>
<glyph name="emdash" format="1">
  <advance width="938"/>
  <unicode hex="2014"/>
  <outline>
    <contour>
      <point x="65" y="338" type="line"/>
      <point x="65" y="260" type="line"/>
      <point x="873" y="260" type="line"/>
      <point x="873" y="338" type="line"/>
    </contour>
  </outline>
</glyph>
<glyph name="bullet" format="1">
  <advance width="500"/>
  <unicode hex="2022"/>
  <outline>
    <contour>
      <point x="168" y="477"/>
      <point x="118" y="425"/>
      <point x="118" y="345" type="curve" smooth="yes"/>
      <point x="118" y="265"/>
      <point x="168" y="213"/>
      <point x="250" y="213" type="curve" smooth="yes"/>
      <point x="332" y="213"/>
      <point x="382" y="265"/>
      <point x="382" y="345" type="curve" smooth="yes"/>
      <point x="382" y="425"/>
      <point x="332" y="477"/>
      <point x="250" y="477" type="curve" smooth="yes"/>
    </contour>
  </outline>
</glyph>
<glyph name="fraction" format="1">
  <advance width="500"/>
  <unicode hex="2044"/>
  <outline>
    <contour>
      <point x="404" y="680" type="line"/>
      <point x="19" y="0" type="line"/>
      <point x="96" y="0" type="line"/>
      <point x="481" y="680" type="line"/>
    </contour>
  </outline>
</glyph>
<glyph name="partialdiff" format="1">
  <advance width="642"/>
  <unicode hex="2202"/>
  <outline>
    <contour>
      <point x="224" y="692"/>
      <point x="164" y="684"/>
      <point x="103" y="670" type="curve"/>
      <point x="120" y="594" type="line"/>
      <point x="190" y="613"/>
      <point x="231" y="618"/>
      <point x="285" y="618" type="curve" smooth="yes"/>
      <point x="425" y="618"/>
      <point x="502" y="540"/>
      <point x="502" y="301" type="curve" smooth="yes"/>
      <point x="502" y="117"/>
      <point x="445" y="62"/>
      <point x="303" y="62" type="curve" smooth="yes"/>
      <point x="183" y="62"/>
      <point x="122" y="103"/>
      <point x="122" y="219" type="curve" smooth="yes"/>
      <point x="122" y="346"/>
      <point x="180" y="390"/>
      <point x="308" y="390" type="curve" smooth="yes"/>
      <point x="392" y="390"/>
      <point x="458" y="375"/>
      <point x="512" y="349" type="curve"/>
      <point x="512" y="404" type="line"/>
      <point x="457" y="441"/>
      <point x="380" y="464"/>
      <point x="285" y="464" type="curve" smooth="yes"/>
      <point x="135" y="464"/>
      <point x="32" y="390"/>
      <point x="32" y="227" type="curve" smooth="yes"/>
      <point x="32" y="45"/>
      <point x="150" y="-12"/>
      <point x="303" y="-12" type="curve" smooth="yes"/>
      <point x="481" y="-12"/>
      <point x="592" y="59"/>
      <point x="592" y="315" type="curve" smooth="yes"/>
      <point x="592" y="590"/>
      <point x="488" y="692"/>
      <point x="284" y="692" type="curve" smooth="yes"/>
    </contour>
  </outline>
</glyph>
<glyph name="product" format="1">
  <advance width="814"/>
  <unicode hex="220F"/>
  <outline>
    <contour>
      <point x="753" y="623" type="line"/>
      <point x="685" y="595" type="line"/>
      <point x="685" y="85" type="line"/>
      <point x="753" y="55" type="line"/>
      <point x="753" y="0" type="line"/>
      <point x="533" y="0" type="line"/>
      <point x="533" y="55" type="line"/>
      <point x="601" y="85" type="line"/>
      <point x="601" y="610" type="line"/>
      <point x="213" y="610" type="line"/>
      <point x="213" y="85" type="line"/>
      <point x="281" y="55" type="line"/>
      <point x="281" y="0" type="line"/>
      <point x="61" y="0" type="line"/>
      <point x="61" y="55" type="line"/>
      <point x="129" y="85" type="line"/>
      <point x="129" y="595" type="line"/>
      <point x="61" y="623" type="line"/>
      <point x="61" y="680" type="line"/>
      <point x="753" y="680" type="line"/>
    </contour>
  </outline>
</glyph>
<glyph name="integral" format="1">
  <advance width="480"/>
  <unicode hex="222B"/>
  <outline>
    <contour>
      <point x="219" y="-212"/>
      <point x="273" y="-143"/>
      <point x="273" y="-8" type="curve" smooth="yes"/>
      <point x="273" y="537" type="line" smooth="yes"/>
      <point x="273" y="640"/>
      <point x="314" y="671"/>
      <point x="358" y="671" type="curve"/>
      <point x="393" y="590" type="line"/>
      <point x="447" y="590"/>
      <point x="468" y="614"/>
      <point x="468" y="654" type="curve" smooth="yes"/>
      <point x="468" y="706"/>
      <point x="431" y="732"/>
      <point x="360" y="732" type="curve" smooth="yes"/>
      <point x="243" y="732"/>
      <point x="189" y="662"/>
      <point x="189" y="527" type="curve" smooth="yes"/>
      <point x="189" y="-17" type="line" smooth="yes"/>
      <point x="189" y="-120"/>
      <point x="148" y="-151"/>
      <point x="104" y="-151" type="curve"/>
      <point x="69" y="-70" type="line"/>
      <point x="15" y="-70"/>
      <point x="-6" y="-94"/>
      <point x="-6" y="-134" type="curve" smooth="yes"/>
      <point x="-6" y="-186"/>
      <point x="31" y="-212"/>
      <point x="102" y="-212" type="curve" smooth="yes"/>
    </contour>
  </outline>
</glyph>
<glyph name="notequal" format="1">
  <advance width="582"/>
  <unicode hex="2260"/>
  <outline>
    <contour>
      <point x="415" y="543" type="line"/>
      <point x="84" y="20" type="line"/>
      <point x="167" y="20" type="line"/>
      <point x="498" y="543" type="line"/>
    </contour>
    <component base="equal"/>
  </outline>
</glyph>
<glyph name="lessequal" format="1">
  <advance width="582"/>
  <unicode hex="2264"/>
  <outline>
    <contour>
      <point x="64" y="70" type="line"/>
      <point x="64" y="0" type="line"/>
      <point x="518" y="0" type="line"/>
      <point x="518" y="70" type="line"/>
    </contour>
    <contour>
      <point x="518" y="469" type="line"/>
      <point x="518" y="548" type="line"/>
      <point x="64" y="344" type="line"/>
      <point x="64" y="274" type="line"/>
      <point x="518" y="70" type="line"/>
      <point x="518" y="149" type="line"/>
      <point x="111" y="327" type="line"/>
      <point x="111" y="291" type="line"/>
    </contour>
  </outline>
</glyph>
<glyph name="lozenge" format="1">
  <advance width="666"/>
  <unicode hex="25CA"/>
  <outline>
    <contour>
      <point x="297" y="680" type="line"/>
      <point x="32" y="376" type="line"/>
      <point x="32" y="304" type="line"/>
      <point x="297" y="0" type="line"/>
      <point x="368" y="0" type="line"/>
      <point x="634" y="304" type="line"/>
      <point x="634" y="376" type="line"/>
      <point x="368" y="680" type="line"/>
    </contour>
    <contour>
      <point x="563" y="340" type="line"/>
      <point x="333" y="77" type="line"/>
      <point x="103" y="340" type="line"/>
      <point x="333" y="603" type="line"/>
    </contour>
  </outline>
</glyph>
<glyph name="acute.case" format="1">
  <advance width="500"/>
  <outline>
    <contour>
      <point x="302" y="914" type="line"/>
      <point x="200" y="740" type="line"/>
      <point x="290" y="740" type="line"/>
      <point x="426" y="914" type="line"/>
    </contour>
    <contour>
      <point x="250" y="680" type="move" name="_top"/>
    </contour>
  </outline>
</glyph>
<glyph name="anusvara-deva.offset" format="1">
  <advance width="250"/>
  <outline>
    <component base="anusvara-deva" xOffset="127"/>
    <contour>
      <point x="125" y="680" type="move" name="_top"/>
    </contour>
  </outline>
</glyph>
<glyph name="approxequal.lf" format="1">
  <advance width="646"/>
  <outline>
    <contour>
      <point x="497" y="490"/>
      <point x="476" y="475"/>
      <point x="440" y="475" type="curve" smooth="yes"/>
      <point x="406" y="475"/>
      <point x="385" y="484"/>
      <point x="320" y="514" type="curve" smooth="yes"/>
      <point x="276" y="535"/>
      <point x="250" y="540"/>
      <point x="217" y="540" type="curve" smooth="yes"/>
      <point x="147" y="540"/>
      <point x="99" y="510"/>
      <point x="52" y="408" type="curve"/>
      <point x="114" y="380" type="line"/>
      <point x="149" y="446"/>
      <point x="170" y="461"/>
      <point x="206" y="461" type="curve" smooth="yes"/>
      <point x="240" y="461"/>
      <point x="261" y="452"/>
      <point x="326" y="422" type="curve" smooth="yes"/>
      <point x="370" y="401"/>
      <point x="396" y="396"/>
      <point x="429" y="396" type="curve" smooth="yes"/>
      <point x="499" y="396"/>
      <point x="547" y="426"/>
      <point x="594" y="528" type="curve"/>
      <point x="532" y="556" type="line"/>
    </contour>
    <contour>
      <point x="497" y="234"/>
      <point x="476" y="219"/>
      <point x="440" y="219" type="curve" smooth="yes"/>
      <point x="406" y="219"/>
      <point x="385" y="228"/>
      <point x="320" y="258" type="curve" smooth="yes"/>
      <point x="276" y="279"/>
      <point x="250" y="284"/>
      <point x="217" y="284" type="curve" smooth="yes"/>
      <point x="147" y="284"/>
      <point x="99" y="254"/>
      <point x="52" y="152" type="curve"/>
      <point x="114" y="124" type="line"/>
      <point x="149" y="190"/>
      <point x="170" y="205"/>
      <point x="206" y="205" type="curve" smooth="yes"/>
      <point x="240" y="205"/>
      <point x="261" y="196"/>
      <point x="326" y="166" type="curve" smooth="yes"/>
      <point x="370" y="145"/>
      <point x="396" y="140"/>
      <point x="429" y="140" type="curve" smooth="yes"/>
      <point x="499" y="140"/>
      <point x="547" y="170"/>
      <point x="594" y="272" type="curve"/>
      <point x="532" y="300" type="line"/>
    </contour>
  </outline>
</glyph>
<glyph name="asciicircum.lf" format="1">
  <advance width="646"/>
  <outline>
    <contour>
      <point x="286" y="692" type="line"/>
      <point x="48" y="389" type="line"/>
      <point x="141" y="389" type="line"/>
      <point x="335" y="615" type="line"/>
      <point x="311" y="615" type="line"/>
      <point x="505" y="389" type="line"/>
      <point x="598" y="389" type="line"/>
      <point x="360" y="692" type="line"/>
    </contour>
  </outline>
</glyph>
<glyph name="bha_ra-deva" format="1">
  <advance width="701"/>
  <note>
	dBhRa
  </note>
  <outline>
    <contour>
      <point x="300" y="0" type="line"/>
      <point x="562" y="288" type="line"/>
      <point x="483" y="301" type="line"/>
      <point x="202" y="0" type="line"/>
    </contour>
    <component base="bha-deva"/>
    <contour>
      <point x="1086" y="1187" type="move" name="top"/>
    </contour>
  </outline>
</glyph>
<glyph name="c-deva" format="1">
  <advance width="416"/>
  <outline>
    <contour>
      <point x="521" y="604" type="line"/>
      <point x="521" y="680" type="line"/>
      <point x="-10" y="680" type="line"/>
      <point x="-10" y="604" type="line"/>
    </contour>
    <contour>
      <point x="0" y="491" type="line"/>
      <point x="0" y="413" type="line"/>
      <point x="377" y="413" type="line"/>
      <point x="377" y="491" type="line"/>
    </contour>
    <contour>
      <point x="479" y="243"/>
      <point x="392" y="195"/>
      <point x="293" y="195" type="curve" smooth="yes"/>
      <point x="195" y="195"/>
      <point x="150" y="234"/>
      <point x="150" y="304" type="curve" smooth="yes"/>
      <point x="150" y="360"/>
      <point x="180" y="406"/>
      <point x="227" y="423" type="curve"/>
      <point x="149" y="423" type="line"/>
      <point x="107" y="402"/>
      <point x="84" y="358"/>
      <point x="84" y="295" type="curve" smooth="yes"/>
      <point x="84" y="182"/>
      <point x="159" y="113"/>
      <point x="294" y="113" type="curve" smooth="yes"/>
      <point x="409" y="113"/>
      <point x="501" y="165"/>
      <point x="539" y="243" type="curve"/>
      <point x="539" y="307" type="line"/>
    </contour>
    <contour>
      <point x="120" y="0" type="move" name="nukta"/>
    </contour>
  </outline>
</glyph>
<glyph name="caron.case" format="1">
  <advance width="500"/>
  <outline>
    <component base="circumflex.case" yOffset="1654" yScale="-1"/>
    <contour>
      <point x="250" y="680" type="move" name="_top"/>
    </contour>
  </outline>
</glyph>
<glyph name="caroncomb.alt" format="1">
  <advance width="500"/>
  <outline>
    <contour>
      <point x="250" y="577" type="line"/>
      <point x="312" y="577" type="line"/>
      <point x="342" y="777" type="line"/>
      <point x="250" y="777" type="line"/>
    </contour>
    <contour>
      <point x="250" y="502" type="move" name="_topright"/>
    </contour>
  </outline>
</glyph>
<glyph name="cent.lf" format="1">
  <advance width="511"/>
  <outline>
    <contour>
      <point x="269" y="730" type="line"/>
      <point x="269" y="-50" type="line"/>
      <point x="339" y="-50" type="line"/>
      <point x="339" y="730" type="line"/>
    </contour>
    <contour>
      <point x="141" y="609"/>
      <point x="40" y="535"/>
      <point x="40" y="343" type="curve" smooth="yes"/>
      <point x="40" y="139"/>
      <point x="148" y="79"/>
      <point x="309" y="79" type="curve" smooth="yes"/>
      <point x="364" y="79"/>
      <point x="426" y="88"/>
      <point x="471" y="106" type="curve"/>
      <point x="471" y="176" type="line"/>
      <point x="416" y="157"/>
      <point x="369" y="151"/>
      <point x="313" y="151" type="curve" smooth="yes"/>
      <point x="185" y="151"/>
      <point x="129" y="185"/>
      <point x="129" y="346" type="curve" smooth="yes"/>
      <point x="129" y="493"/>
      <point x="164" y="540"/>
      <point x="341" y="540" type="curve"/>
      <point x="385" y="440" type="line"/>
      <point x="451" y="440"/>
      <point x="479" y="471"/>
      <point x="479" y="521" type="curve" smooth="yes"/>
      <point x="479" y="580"/>
      <point x="442" y="609"/>
      <point x="328" y="609" type="curve" smooth="yes"/>
    </contour>
  </outline>
</glyph>
<glyph name="d_ba_ra-deva" format="1">
  <advance width="548"/>
  <outline>
    <contour>
      <point x="188" y="-321" type="line"/>
      <point x="418" y="-109" type="line"/>
      <point x="315" y="-109" type="line"/>
      <point x="80" y="-321" type="line"/>
    </contour>
    <component base="d_ba-deva"/>
  </outline>
</glyph>
<glyph name="d_bha-deva" format="1">
  <advance width="642"/>
  <outline>
    <contour>
      <point x="102" y="604" type="line"/>
      <point x="102" y="680" type="line"/>
      <point x="-10" y="680" type="line"/>
      <point x="-10" y="604" type="line"/>
    </contour>
    <contour>
      <point x="74" y="-14"/>
      <point x="64" y="-18"/>
      <point x="50" y="-18" type="curve" smooth="yes"/>
      <point x="23" y="-18"/>
      <point x="7" y="-2"/>
      <point x="7" y="26" type="curve" smooth="yes"/>
      <point x="7" y="54"/>
      <point x="23" y="69"/>
      <point x="51" y="69" type="curve" smooth="yes"/>
      <point x="76" y="69"/>
      <point x="87" y="57"/>
      <point x="96" y="46" type="curve" smooth="yes"/>
      <point x="224" y="-114" type="line"/>
      <point x="438" y="64" type="line"/>
      <point x="398" y="112" type="line"/>
      <point x="179" y="-70" type="line" smooth="yes"/>
      <point x="158" y="-88"/>
      <point x="151" y="-108"/>
      <point x="151" y="-128" type="curve" smooth="yes"/>
      <point x="151" y="-173"/>
      <point x="184" y="-204"/>
      <point x="225" y="-204" type="curve" smooth="yes"/>
      <point x="266" y="-204"/>
      <point x="299" y="-172"/>
      <point x="299" y="-133" type="curve" smooth="yes"/>
      <point x="299" y="-117"/>
      <point x="293" y="-101"/>
      <point x="279" y="-83" type="curve" smooth="yes"/>
      <point x="133" y="98" type="line" smooth="yes"/>
      <point x="114" y="122"/>
      <point x="88" y="135"/>
      <point x="52" y="135" type="curve" smooth="yes"/>
      <point x="-14" y="135"/>
      <point x="-55" y="93"/>
      <point x="-55" y="29" type="curve" smooth="yes"/>
      <point x="-55" y="-36"/>
      <point x="-12" y="-74"/>
      <point x="46" y="-74" type="curve" smooth="yes"/>
      <point x="69" y="-74"/>
      <point x="92" y="-68"/>
      <point x="113" y="-47" type="curve"/>
      <point x="82" y="-7" type="line"/>
    </contour>
    <component base="da-deva" xOffset="92"/>
  </outline>
</glyph>
<glyph name="d_dh_ra_ya-deva" format="1">
  <advance width="1175"/>
  <outline>
    <contour>
      <point x="272" y="-321" type="line"/>
      <point x="375" y="-43" type="line"/>
      <point x="307" y="-37" type="line"/>
      <point x="195" y="-321" type="line"/>
    </contour>
    <contour>
      <point x="1011" y="614" type="line"/>
      <point x="1011" y="0" type="line"/>
      <point x="1079" y="0" type="line"/>
      <point x="1079" y="614" type="line"/>
    </contour>
    <contour>
      <point x="788" y="179"/>
      <point x="716" y="193"/>
      <point x="693" y="258" type="curve"/>
      <point x="821" y="258"/>
      <point x="869" y="284"/>
      <point x="869" y="384" type="curve" smooth="yes"/>
      <point x="869" y="461"/>
      <point x="841" y="486"/>
      <point x="768" y="486" type="curve" smooth="yes"/>
      <point x="553" y="486" type="line"/>
      <point x="553" y="408" type="line"/>
      <point x="765" y="408" type="line" smooth="yes"/>
      <point x="785" y="408"/>
      <point x="795" y="402"/>
      <point x="795" y="375" type="curve" smooth="yes"/>
      <point x="795" y="337"/>
      <point x="774" y="330"/>
      <point x="663" y="330" type="curve" smooth="yes"/>
      <point x="623" y="330" type="line"/>
      <point x="623" y="320" type="line" smooth="yes"/>
      <point x="623" y="162"/>
      <point x="720" y="97"/>
      <point x="874" y="97" type="curve" smooth="yes"/>
      <point x="921" y="97"/>
      <point x="970" y="103"/>
      <point x="1021" y="125" type="curve"/>
      <point x="1021" y="199" type="line"/>
      <point x="977" y="185"/>
      <point x="931" y="179"/>
      <point x="874" y="179" type="curve" smooth="yes"/>
    </contour>
    <contour>
      <point x="651" y="680" type="line"/>
      <point x="651" y="604" type="line"/>
      <point x="1185" y="604" type="line"/>
      <point x="1185" y="680" type="line"/>
    </contour>
    <component base="d_dha-deva"/>
    <contour>
      <point x="1045" y="680" type="move" name="top"/>
    </contour>
    <contour>
      <point x="1045" y="0" type="move" name="bottom"/>
    </contour>
  </outline>
</glyph>
<glyph name="d_gh_ya-deva" format="1">
  <advance width="1141"/>
  <outline>
    <contour>
      <point x="977" y="614" type="line"/>
      <point x="977" y="0" type="line"/>
      <point x="1045" y="0" type="line"/>
      <point x="1045" y="614" type="line"/>
    </contour>
    <contour>
      <point x="754" y="179"/>
      <point x="682" y="193"/>
      <point x="659" y="258" type="curve"/>
      <point x="787" y="258"/>
      <point x="835" y="284"/>
      <point x="835" y="384" type="curve" smooth="yes"/>
      <point x="835" y="461"/>
      <point x="807" y="486"/>
      <point x="734" y="486" type="curve" smooth="yes"/>
      <point x="519" y="486" type="line"/>
      <point x="519" y="408" type="line"/>
      <point x="731" y="408" type="line" smooth="yes"/>
      <point x="751" y="408"/>
      <point x="761" y="402"/>
      <point x="761" y="375" type="curve" smooth="yes"/>
      <point x="761" y="337"/>
      <point x="740" y="330"/>
      <point x="629" y="330" type="curve" smooth="yes"/>
      <point x="589" y="330" type="line"/>
      <point x="589" y="320" type="line" smooth="yes"/>
      <point x="589" y="162"/>
      <point x="686" y="97"/>
      <point x="840" y="97" type="curve" smooth="yes"/>
      <point x="887" y="97"/>
      <point x="936" y="103"/>
      <point x="987" y="125" type="curve"/>
      <point x="987" y="199" type="line"/>
      <point x="943" y="185"/>
      <point x="897" y="179"/>
      <point x="840" y="179" type="curve" smooth="yes"/>
    </contour>
    <contour>
      <point x="617" y="680" type="line"/>
      <point x="617" y="604" type="line"/>
      <point x="1151" y="604" type="line"/>
      <point x="1151" y="680" type="line"/>
    </contour>
    <component base="d_gha-deva"/>
    <contour>
      <point x="1011" y="680" type="move" name="top"/>
    </contour>
    <contour>
      <point x="1011" y="0" type="move" name="bottom"/>
    </contour>
  </outline>
</glyph>
<glyph name="d_na-deva" format="1">
  <advance width="548"/>
  <outline>
    <contour>
      <point x="306" y="88" type="line"/>
      <point x="163" y="-8" type="line" smooth="yes"/>
      <point x="119" y="-37"/>
      <point x="111" y="-60"/>
      <point x="111" y="-83" type="curve" smooth="yes"/>
      <point x="111" y="-134"/>
      <point x="152" y="-160"/>
      <point x="184" y="-160" type="curve" smooth="yes"/>
      <point x="200" y="-160"/>
      <point x="219" y="-154"/>
      <point x="235" y="-141" type="curve"/>
      <point x="214" y="-34" type="line"/>
      <point x="201" y="-67" type="line"/>
      <point x="407" y="77" type="line"/>
    </contour>
    <component base="da-deva"/>
    <contour>
      <point x="72" y="0" type="move" name="nukta"/>
    </contour>
    <contour>
      <point x="306" y="0" type="move" name="bottom"/>
    </contour>
  </outline>
</glyph>
<glyph name="da_ra-deva" format="1">
  <advance width="548"/>
  <outline>
    <contour>
      <point x="307" y="77" type="line"/>
      <point x="100" y="-100" type="line"/>
      <point x="211" y="-100" type="line"/>
      <point x="411" y="77" type="line"/>
    </contour>
    <component base="da-deva"/>
    <contour>
      <point x="71" y="0" type="move" name="nukta"/>
    </contour>
    <contour>
      <point x="436" y="-41" type="move" name="bottom"/>
    </contour>
  </outline>
</glyph>
<glyph name="da_uMatra-deva" format="1">
  <advance width="543"/>
  <outline>
    <component base="da-deva"/>
    <component base="uMatra-deva" xOffset="310"/>
    <contour>
      <point x="71" y="0" type="move" name="nukta"/>
    </contour>
  </outline>
</glyph>
<glyph name="da_uuMatra-deva" format="1">
  <advance width="543"/>
  <outline>
    <component base="da-deva"/>
    <component base="uuMatra-deva" xOffset="301"/>
    <contour>
      <point x="71" y="0" type="move" name="nukta"/>
    </contour>
  </outline>
</glyph>
<glyph name="dd_ma-deva" format="1">
  <advance width="1079"/>
  <outline>
    <contour>
      <point x="661" y="139"/>
      <point x="703" y="162"/>
      <point x="703" y="225" type="curve" smooth="yes"/>
      <point x="703" y="399" type="line" smooth="yes"/>
      <point x="703" y="478"/>
      <point x="672" y="501"/>
      <point x="599" y="501" type="curve" smooth="yes"/>
      <point x="431" y="501" type="line"/>
      <point x="431" y="423" type="line"/>
      <point x="583" y="423" type="line" smooth="yes"/>
      <point x="618" y="423"/>
      <point x="633" y="418"/>
      <point x="633" y="383" type="curve" smooth="yes"/>
      <point x="633" y="235" type="line"/>
      <point x="926" y="235" type="line"/>
      <point x="926" y="311" type="line"/>
      <point x="617" y="311" type="line" smooth="yes"/>
      <point x="569" y="311"/>
      <point x="531" y="289"/>
      <point x="531" y="224" type="curve" smooth="yes"/>
      <point x="531" y="163"/>
      <point x="564" y="139"/>
      <point x="613" y="139" type="curve" smooth="yes"/>
    </contour>
    <contour>
      <point x="983" y="0" type="line"/>
      <point x="983" y="614" type="line"/>
      <point x="921" y="614" type="line"/>
      <point x="921" y="0" type="line"/>
    </contour>
    <contour>
      <point x="1089" y="604" type="line"/>
      <point x="1089" y="680" type="line"/>
      <point x="528" y="680" type="line"/>
      <point x="528" y="604" type="line"/>
    </contour>
    <component base="dda-deva"/>
    <contour>
      <point x="617" y="0" type="move" name="nukta"/>
    </contour>
    <contour>
      <point x="952" y="0" type="move" name="bottom"/>
    </contour>
    <contour>
      <point x="952" y="680" type="move" name="top"/>
    </contour>
  </outline>
</glyph>
<glyph name="dh-deva" format="1">
  <advance width="410"/>
  <outline>
    <contour>
      <point x="99" y="688"/>
      <point x="50" y="638"/>
      <point x="50" y="533" type="curve" smooth="yes"/>
      <point x="50" y="426"/>
      <point x="102" y="370"/>
      <point x="194" y="367" type="curve"/>
      <point x="194" y="393" type="line"/>
      <point x="117" y="393"/>
      <point x="75" y="339"/>
      <point x="75" y="261" type="curve" smooth="yes"/>
      <point x="75" y="157"/>
      <point x="150" y="93"/>
      <point x="298" y="93" type="curve" smooth="yes"/>
      <point x="397" y="93"/>
      <point x="471" y="117"/>
      <point x="526" y="158" type="curve"/>
      <point x="526" y="232" type="line"/>
      <point x="455" y="192"/>
      <point x="399" y="175"/>
      <point x="295" y="175" type="curve" smooth="yes"/>
      <point x="175" y="175"/>
      <point x="147" y="202"/>
      <point x="147" y="265" type="curve" smooth="yes"/>
      <point x="147" y="311"/>
      <point x="162" y="339"/>
      <point x="223" y="339" type="curve" smooth="yes"/>
      <point x="336" y="339" type="line"/>
      <point x="336" y="417" type="line"/>
      <point x="226" y="417" type="line" smooth="yes"/>
      <point x="147" y="417"/>
      <point x="122" y="449"/>
      <point x="122" y="530" type="curve" smooth="yes"/>
      <point x="122" y="594"/>
      <point x="138" y="616"/>
      <point x="205" y="616" type="curve" smooth="yes"/>
      <point x="258" y="616"/>
      <point x="272" y="602"/>
      <point x="272" y="572" type="curve" smooth="yes"/>
      <point x="272" y="545"/>
      <point x="260" y="537"/>
      <point x="217" y="537" type="curve"/>
      <point x="217" y="465" type="line"/>
      <point x="309" y="465"/>
      <point x="346" y="500"/>
      <point x="346" y="572" type="curve" smooth="yes"/>
      <point x="346" y="646"/>
      <point x="306" y="688"/>
      <point x="207" y="688" type="curve" smooth="yes"/>
    </contour>
    <contour>
      <point x="131" y="0" type="move" name="nukta"/>
    </contour>
  </outline>
</glyph>
<glyph name="dotaccent.case" format="1">
  <advance width="500"/>
  <outline>
    <contour>
      <point x="295" y="740"/>
      <point x="321" y="766"/>
      <point x="321" y="811" type="curve" smooth="yes"/>
      <point x="321" y="856"/>
      <point x="295" y="882"/>
      <point x="250" y="882" type="curve" smooth="yes"/>
      <point x="205" y="882"/>
      <point x="179" y="856"/>
      <point x="179" y="811" type="curve" smooth="yes"/>
      <point x="179" y="766"/>
      <point x="205" y="740"/>
      <point x="250" y="740" type="curve" smooth="yes"/>
    </contour>
    <contour>
      <point x="250" y="680" type="move" name="_top"/>
    </contour>
  </outline>
</glyph>
<glyph name="eCandraMatra-deva.iMatra" format="1">
  <advance width="250"/>
  <outline>
    <component base="eCandraMatra-deva" xOffset="4" yOffset="155"/>
    <contour>
      <point x="130" y="680" type="move" name="_top"/>
    </contour>
  </outline>
</glyph>
<glyph name="f_f_l" format="1">
  <advance width="995"/>
  <outline>
    <contour>
      <point x="291" y="0" type="line"/>
      <point x="291" y="55" type="line"/>
      <point x="198" y="85" type="line"/>
      <point x="198" y="432" type="line"/>
      <point x="466" y="432" type="line"/>
      <point x="466" y="85" type="line"/>
      <point x="398" y="55" type="line"/>
      <point x="398" y="0" type="line"/>
      <point x="643" y="0" type="line"/>
      <point x="643" y="55" type="line"/>
      <point x="550" y="85" type="line"/>
      <point x="550" y="432" type="line"/>
      <point x="658" y="432" type="line"/>
      <point x="658" y="502" type="line"/>
      <point x="550" y="502" type="line"/>
      <point x="550" y="531" type="line" smooth="yes"/>
      <point x="550" y="627"/>
      <point x="577" y="656"/>
      <point x="665" y="656" type="curve" smooth="yes"/>
      <point x="684" y="656"/>
      <point x="694" y="655"/>
      <point x="709" y="651" type="curve"/>
      <point x="736" y="592" type="line"/>
      <point x="788" y="592"/>
      <point x="805" y="611"/>
      <point x="807" y="641" type="curve"/>
      <point x="808" y="641" type="line"/>
      <point x="808" y="85" type="line"/>
      <point x="740" y="55" type="line"/>
      <point x="740" y="0" type="line"/>
      <point x="960" y="0" type="line"/>
      <point x="960" y="55" type="line"/>
      <point x="892" y="85" type="line"/>
      <point x="892" y="710" type="line"/>
      <point x="749" y="710" type="line"/>
      <point x="729" y="715"/>
      <point x="705" y="718"/>
      <point x="675" y="718" type="curve" smooth="yes"/>
      <point x="523" y="718"/>
      <point x="466" y="662"/>
      <point x="466" y="512" type="curve" smooth="yes"/>
      <point x="466" y="502" type="line"/>
      <point x="198" y="502" type="line"/>
      <point x="198" y="576" type="line" smooth="yes"/>
      <point x="198" y="625"/>
      <point x="222" y="656"/>
      <point x="279" y="656" type="curve"/>
      <point x="306" y="597" type="line"/>
      <point x="358" y="597"/>
      <point x="377" y="616"/>
      <point x="377" y="651" type="curve" smooth="yes"/>
      <point x="377" y="697"/>
      <point x="352" y="718"/>
      <point x="290" y="718" type="curve" smooth="yes"/>
      <point x="177" y="718"/>
      <point x="114" y="664"/>
      <point x="114" y="550" type="curve" smooth="yes"/>
      <point x="114" y="502" type="line"/>
      <point x="46" y="488" type="line"/>
      <point x="46" y="432" type="line"/>
      <point x="114" y="432" type="line"/>
      <point x="114" y="85" type="line"/>
      <point x="46" y="55" type="line"/>
      <point x="46" y="0" type="line"/>
    </contour>
  </outline>
</glyph>
<glyph name="f_i" format="1">
  <advance width="688"/>
  <outline>
    <contour>
      <point x="291" y="0" type="line"/>
      <point x="291" y="55" type="line"/>
      <point x="198" y="85" type="line"/>
      <point x="198" y="432" type="line"/>
      <point x="466" y="432" type="line"/>
      <point x="466" y="85" type="line"/>
      <point x="398" y="55" type="line"/>
      <point x="398" y="0" type="line"/>
      <point x="653" y="0" type="line"/>
      <point x="653" y="55" type="line"/>
      <point x="550" y="85" type="line"/>
      <point x="550" y="502" type="line"/>
      <point x="198" y="502" type="line"/>
      <point x="198" y="531" type="line" smooth="yes"/>
      <point x="198" y="627"/>
      <point x="226" y="656"/>
      <point x="318" y="656" type="curve" smooth="yes"/>
      <point x="340" y="656"/>
      <point x="351" y="655"/>
      <point x="368" y="651" type="curve"/>
      <point x="395" y="592" type="line"/>
      <point x="447" y="592"/>
      <point x="466" y="611"/>
      <point x="466" y="646" type="curve" smooth="yes"/>
      <point x="466" y="690"/>
      <point x="422" y="718"/>
      <point x="328" y="718" type="curve" smooth="yes"/>
      <point x="173" y="718"/>
      <point x="114" y="662"/>
      <point x="114" y="512" type="curve" smooth="yes"/>
      <point x="114" y="502" type="line"/>
      <point x="46" y="488" type="line"/>
      <point x="46" y="432" type="line"/>
      <point x="114" y="432" type="line"/>
      <point x="114" y="85" type="line"/>
      <point x="46" y="55" type="line"/>
      <point x="46" y="0" type="line"/>
    </contour>
  </outline>
</glyph>
<glyph name="five-deva.loclNEP" format="1">
  <advance width="521"/>
  <outline>
    <contour>
      <point x="190" y="82"/>
      <point x="158" y="86"/>
      <point x="135" y="95" type="curve"/>
      <point x="68" y="86" type="line"/>
      <point x="68" y="-99" type="line"/>
      <point x="136" y="-99" type="line"/>
      <point x="136" y="49" type="line"/>
      <point x="163" y="71" type="line"/>
      <point x="116" y="176" type="line"/>
      <point x="60" y="176"/>
      <point x="40" y="155"/>
      <point x="40" y="111" type="curve" smooth="yes"/>
      <point x="40" y="15"/>
      <point x="136" y="0"/>
      <point x="210" y="0" type="curve" smooth="yes"/>
      <point x="334" y="0"/>
      <point x="404" y="63"/>
      <point x="404" y="192" type="curve" smooth="yes"/>
      <point x="404" y="394" type="line"/>
      <point x="356" y="359"/>
      <point x="307" y="340"/>
      <point x="236" y="340" type="curve" smooth="yes"/>
      <point x="149" y="340"/>
      <point x="108" y="368"/>
      <point x="108" y="459" type="curve" smooth="yes"/>
      <point x="108" y="680" type="line"/>
      <point x="40" y="680" type="line"/>
      <point x="40" y="460" type="line" smooth="yes"/>
      <point x="40" y="317"/>
      <point x="116" y="258"/>
      <point x="238" y="258" type="curve" smooth="yes"/>
      <point x="392" y="258"/>
      <point x="484" y="336"/>
      <point x="484" y="522" type="curve" smooth="yes"/>
      <point x="484" y="604"/>
      <point x="461" y="630"/>
      <point x="410" y="630" type="curve" smooth="yes"/>
      <point x="358" y="630"/>
      <point x="336" y="602"/>
      <point x="336" y="544" type="curve" smooth="yes"/>
      <point x="336" y="201" type="line" smooth="yes"/>
      <point x="336" y="116"/>
      <point x="294" y="82"/>
      <point x="216" y="82" type="curve" smooth="yes"/>
    </contour>
  </outline>
</glyph>
<glyph name="florin.lf" format="1">
  <advance width="539"/>
  <outline>
    <contour>
      <point x="303" y="718"/>
      <point x="242" y="670"/>
      <point x="211" y="525" type="curve" smooth="yes"/>
      <point x="206" y="502" type="line"/>
      <point x="84" y="490" type="line"/>
      <point x="71" y="430" type="line"/>
      <point x="191" y="430" type="line"/>
      <point x="88" y="-53" type="line" smooth="yes"/>
      <point x="70" y="-138"/>
      <point x="51" y="-162"/>
      <point x="2" y="-162" type="curve"/>
      <point x="-28" y="-81" type="line"/>
      <point x="-91" y="-81"/>
      <point x="-120" y="-105"/>
      <point x="-120" y="-153" type="curve" smooth="yes"/>
      <point x="-120" y="-208"/>
      <point x="-77" y="-234"/>
      <point x="-13" y="-234" type="curve" smooth="yes"/>
      <point x="88" y="-234"/>
      <point x="146" y="-185"/>
      <point x="174" y="-53" type="curve" smooth="yes"/>
      <point x="277" y="430" type="line"/>
      <point x="427" y="430" type="line"/>
      <point x="443" y="502" type="line"/>
      <point x="292" y="502" type="line"/>
      <point x="317" y="618"/>
      <point x="347" y="656"/>
      <point x="415" y="656" type="curve"/>
      <point x="451" y="577" type="line"/>
      <point x="502" y="577"/>
      <point x="539" y="600"/>
      <point x="539" y="648" type="curve" smooth="yes"/>
      <point x="539" y="707"/>
      <point x="502" y="718"/>
      <point x="437" y="718" type="curve" smooth="yes"/>
    </contour>
  </outline>
</glyph>
<glyph name="four.lf" format="1">
  <advance width="612"/>
  <outline>
    <contour>
      <point x="307" y="680" type="line"/>
      <point x="268" y="551"/>
      <point x="136" y="383"/>
      <point x="20" y="297" type="curve"/>
      <point x="20" y="197" type="line"/>
      <point x="412" y="197" type="line"/>
      <point x="412" y="85" type="line"/>
      <point x="328" y="55" type="line"/>
      <point x="328" y="0" type="line"/>
      <point x="582" y="0" type="line"/>
      <point x="582" y="55" type="line"/>
      <point x="498" y="85" type="line"/>
      <point x="498" y="197" type="line"/>
      <point x="582" y="197" type="line"/>
      <point x="582" y="269" type="line"/>
      <point x="498" y="269" type="line"/>
      <point x="498" y="453" type="line"/>
      <point x="412" y="453" type="line"/>
      <point x="412" y="269" type="line"/>
      <point x="74" y="269" type="line"/>
      <point x="83" y="260" type="line"/>
      <point x="223" y="359"/>
      <point x="360" y="522"/>
      <point x="403" y="680" type="curve"/>
    </contour>
  </outline>
</glyph>
<glyph name="g-deva" format="1">
  <advance width="318"/>
  <outline>
    <contour>
      <point x="-10" y="680" type="line"/>
      <point x="-10" y="604" type="line"/>
      <point x="418" y="604" type="line"/>
      <point x="418" y="680" type="line"/>
    </contour>
    <contour>
      <point x="21" y="269" type="line"/>
      <point x="21" y="192"/>
      <point x="52" y="163"/>
      <point x="111" y="163" type="curve" smooth="yes"/>
      <point x="170" y="163"/>
      <point x="201" y="192"/>
      <point x="201" y="282" type="curve" smooth="yes"/>
      <point x="201" y="614" type="line"/>
      <point x="133" y="614" type="line"/>
      <point x="133" y="287" type="line"/>
      <point x="146" y="322" type="line"/>
    </contour>
    <contour>
      <point x="111" y="0" type="move" name="nukta"/>
    </contour>
  </outline>
</glyph>
<glyph name="g_la-deva.loclMAR" format="1">
  <advance width="506"/>
  <outline>
    <contour>
      <point x="516" y="604" type="line"/>
      <point x="516" y="680" type="line"/>
      <point x="-10" y="680" type="line"/>
      <point x="-10" y="604" type="line"/>
    </contour>
    <contour>
      <point x="348" y="614" type="line"/>
      <point x="348" y="62" type="line"/>
      <point x="410" y="62" type="line"/>
      <point x="410" y="614" type="line"/>
    </contour>
    <contour>
      <point x="20" y="336" type="line"/>
      <point x="20" y="276"/>
      <point x="45" y="249"/>
      <point x="95" y="249" type="curve" smooth="yes"/>
      <point x="149" y="249"/>
      <point x="173" y="279"/>
      <point x="173" y="348" type="curve" smooth="yes"/>
      <point x="173" y="614" type="line"/>
      <point x="111" y="614" type="line"/>
      <point x="111" y="355" type="line"/>
      <point x="121" y="381" type="line"/>
    </contour>
    <component base="la-deva.loclMAR.post" xOffset="-61"/>
  </outline>
</glyph>
<glyph name="gh_na-deva" format="1">
  <advance width="598"/>
  <note>
	dGhNa
  </note>
  <outline>
    <contour>
      <point x="279" y="-15" type="line"/>
      <point x="463" y="165" type="line"/>
      <point x="365" y="165" type="line"/>
      <point x="226" y="28" type="line" smooth="yes"/>
      <point x="193" y="-5"/>
      <point x="181" y="-29"/>
      <point x="181" y="-54" type="curve" smooth="yes"/>
      <point x="181" y="-72"/>
      <point x="187" y="-93"/>
      <point x="208" y="-114" type="curve" smooth="yes"/>
      <point x="223" y="-129"/>
      <point x="241" y="-139"/>
      <point x="265" y="-139" type="curve" smooth="yes"/>
      <point x="288" y="-139"/>
      <point x="309" y="-130"/>
      <point x="338" y="-100" type="curve"/>
      <point x="292" y="21" type="line"/>
    </contour>
    <component base="gha-deva"/>
    <contour>
      <point x="102" y="0" type="move" name="nukta"/>
    </contour>
  </outline>
</glyph>
<glyph name="gha_ra-deva" format="1">
  <advance width="598"/>
  <note>
	dGhRa
  </note>
  <outline>
    <contour>
      <point x="182" y="-100" type="line"/>
      <point x="454" y="156" type="line"/>
      <point x="353" y="156" type="line"/>
      <point x="76" y="-100" type="line"/>
    </contour>
    <component base="gha-deva"/>
    <contour>
      <point x="99" y="47" type="move" name="nukta"/>
    </contour>
  </outline>
</glyph>
<glyph name="h_nna-deva" format="1">
  <advance width="537"/>
  <outline>
    <contour>
      <point x="343" y="-36"/>
      <point x="374" y="-4"/>
      <point x="374" y="66" type="curve" smooth="yes"/>
      <point x="374" y="243" type="line"/>
      <point x="318" y="243" type="line"/>
      <point x="318" y="70" type="line" smooth="yes"/>
      <point x="318" y="44"/>
      <point x="304" y="34"/>
      <point x="279" y="34" type="curve" smooth="yes"/>
      <point x="254" y="34"/>
      <point x="240" y="44"/>
      <point x="240" y="70" type="curve" smooth="yes"/>
      <point x="240" y="243" type="line"/>
      <point x="184" y="243" type="line"/>
      <point x="184" y="66" type="line" smooth="yes"/>
      <point x="184" y="-4"/>
      <point x="215" y="-36"/>
      <point x="279" y="-36" type="curve" smooth="yes"/>
    </contour>
    <component base="ha-deva.post"/>
  </outline>
</glyph>
<glyph name="ha_ra-deva" format="1">
  <advance width="537"/>
  <outline>
    <contour>
      <point x="152" y="0" type="line"/>
      <point x="254" y="0" type="line"/>
      <point x="447" y="202" type="line"/>
      <point x="403" y="250" type="line"/>
    </contour>
    <component base="ha-deva.post"/>
  </outline>
</glyph>
<glyph name="iMatra-deva.01" format="1">
  <advance width="260"/>
  <outline>
    <contour>
      <point x="141" y="959"/>
      <point x="71" y="899"/>
      <point x="71" y="791" type="curve" smooth="yes"/>
      <point x="71" y="750"/>
      <point x="81" y="705"/>
      <point x="98" y="670" type="curve"/>
      <point x="162" y="670" type="line"/>
      <point x="145" y="712"/>
      <point x="139" y="743"/>
      <point x="139" y="778" type="curve" smooth="yes"/>
      <point x="139" y="855"/>
      <point x="171" y="883"/>
      <point x="274" y="883" type="curve" smooth="yes"/>
      <point x="395" y="883"/>
      <point x="491" y="845"/>
      <point x="597" y="741" type="curve"/>
      <point x="597" y="818" type="line"/>
      <point x="506" y="905"/>
      <point x="397" y="959"/>
      <point x="272" y="959" type="curve" smooth="yes"/>
    </contour>
    <component base="aaMatra-deva"/>
    <contour>
      <point x="577" y="741" type="move" name="imatra"/>
    </contour>
    <contour>
      <point x="563" y="811" type="move" name="top"/>
    </contour>
  </outline>
</glyph>
<glyph name="iMatra-deva.03" format="1">
  <advance width="260"/>
  <outline>
    <contour>
      <point x="150" y="970"/>
      <point x="70" y="912"/>
      <point x="70" y="793" type="curve" smooth="yes"/>
      <point x="70" y="751"/>
      <point x="80" y="707"/>
      <point x="98" y="670" type="curve"/>
      <point x="162" y="670" type="line"/>
      <point x="146" y="709"/>
      <point x="138" y="743"/>
      <point x="138" y="781" type="curve" smooth="yes"/>
      <point x="138" y="867"/>
      <point x="178" y="894"/>
      <point x="325" y="894" type="curve" smooth="yes"/>
      <point x="500" y="894"/>
      <point x="619" y="856"/>
      <point x="787" y="740" type="curve"/>
      <point x="787" y="815" type="line"/>
      <point x="642" y="916"/>
      <point x="494" y="970"/>
      <point x="323" y="970" type="curve" smooth="yes"/>
    </contour>
    <component base="aaMatra-deva"/>
    <contour>
      <point x="767" y="740" type="move" name="imatra"/>
    </contour>
    <contour>
      <point x="753" y="810" type="move" name="top"/>
    </contour>
  </outline>
</glyph>
<glyph name="iMatra-deva.04" format="1">
  <advance width="260"/>
  <outline>
    <contour>
      <point x="154" y="976"/>
      <point x="70" y="918"/>
      <point x="70" y="794" type="curve" smooth="yes"/>
      <point x="70" y="751"/>
      <point x="80" y="708"/>
      <point x="98" y="670" type="curve"/>
      <point x="162" y="670" type="line"/>
      <point x="146" y="708"/>
      <point x="138" y="743"/>
      <point x="138" y="783" type="curve" smooth="yes"/>
      <point x="138" y="873"/>
      <point x="181" y="900"/>
      <point x="350" y="900" type="curve" smooth="yes"/>
      <point x="553" y="900"/>
      <point x="683" y="862"/>
      <point x="882" y="740" type="curve"/>
      <point x="882" y="813" type="line"/>
      <point x="710" y="921"/>
      <point x="543" y="976"/>
      <point x="349" y="976" type="curve" smooth="yes"/>
    </contour>
    <component base="aaMatra-deva"/>
    <contour>
      <point x="862" y="740" type="move" name="imatra"/>
    </contour>
    <contour>
      <point x="848" y="810" type="move" name="top"/>
    </contour>
  </outline>
</glyph>
<glyph name="j_na-deva" format="1">
  <advance width="699"/>
  <outline>
    <contour>
      <point x="324" y="-16" type="line"/>
      <point x="579" y="145" type="line"/>
      <point x="534" y="197" type="line"/>
      <point x="274" y="32" type="line" smooth="yes"/>
      <point x="246" y="14"/>
      <point x="224" y="-13"/>
      <point x="224" y="-50" type="curve" smooth="yes"/>
      <point x="224" y="-97"/>
      <point x="260" y="-140"/>
      <point x="305" y="-140" type="curve" smooth="yes"/>
      <point x="333" y="-140"/>
      <point x="361" y="-124"/>
      <point x="378" y="-104" type="curve"/>
      <point x="340" y="19" type="line"/>
    </contour>
    <component base="ja-deva"/>
  </outline>
</glyph>
<glyph name="jh-deva" format="1">
  <advance width="563"/>
  <outline>
    <contour>
      <point x="129" y="-108" type="line"/>
      <point x="129" y="58" type="line"/>
      <point x="173" y="58" type="line"/>
      <point x="128" y="186" type="line"/>
      <point x="71" y="186"/>
      <point x="40" y="166"/>
      <point x="40" y="116" type="curve" smooth="yes"/>
      <point x="40" y="28"/>
      <point x="139" y="-8"/>
      <point x="265" y="-8" type="curve" smooth="yes"/>
      <point x="419" y="-8"/>
      <point x="484" y="46"/>
      <point x="484" y="167" type="curve" smooth="yes"/>
      <point x="484" y="246"/>
      <point x="457" y="308"/>
      <point x="355" y="308" type="curve" smooth="yes"/>
      <point x="292" y="308"/>
      <point x="242" y="284"/>
      <point x="190" y="284" type="curve" smooth="yes"/>
      <point x="143" y="284"/>
      <point x="122" y="303"/>
      <point x="122" y="354" type="curve" smooth="yes"/>
      <point x="122" y="405"/>
      <point x="143" y="423"/>
      <point x="211" y="423" type="curve" smooth="yes"/>
      <point x="444" y="423" type="line"/>
      <point x="444" y="614" type="line"/>
      <point x="376" y="614" type="line"/>
      <point x="376" y="484" type="line"/>
      <point x="396" y="501" type="line"/>
      <point x="204" y="501" type="line" smooth="yes"/>
      <point x="92" y="501"/>
      <point x="50" y="452"/>
      <point x="50" y="360" type="curve" smooth="yes"/>
      <point x="50" y="260"/>
      <point x="99" y="204"/>
      <point x="189" y="204" type="curve" smooth="yes"/>
      <point x="248" y="204"/>
      <point x="307" y="228"/>
      <point x="352" y="228" type="curve" smooth="yes"/>
      <point x="392" y="228"/>
      <point x="412" y="209"/>
      <point x="412" y="162" type="curve" smooth="yes"/>
      <point x="412" y="103"/>
      <point x="381" y="74"/>
      <point x="275" y="74" type="curve" smooth="yes"/>
      <point x="216" y="74"/>
      <point x="157" y="83"/>
      <point x="128" y="107" type="curve"/>
      <point x="61" y="97" type="line"/>
      <point x="61" y="-108" type="line"/>
    </contour>
    <contour>
      <point x="683" y="236" type="line"/>
      <point x="683" y="308" type="line"/>
      <point x="355" y="308" type="line"/>
      <point x="379" y="236" type="line"/>
    </contour>
    <contour>
      <point x="663" y="604" type="line"/>
      <point x="663" y="680" type="line"/>
      <point x="-10" y="680" type="line"/>
      <point x="-10" y="604" type="line"/>
    </contour>
    <contour>
      <point x="265" y="-120" type="move" name="nukta"/>
    </contour>
  </outline>
</glyph>
<glyph name="k_la-deva.loclMAR" format="1">
  <advance width="666"/>
  <outline>
    <contour>
      <point x="364" y="7" type="line"/>
      <point x="364" y="614" type="line"/>
      <point x="302" y="614" type="line"/>
      <point x="302" y="7" type="line"/>
    </contour>
    <contour>
      <point x="676" y="604" type="line"/>
      <point x="676" y="680" type="line"/>
      <point x="-10" y="680" type="line"/>
      <point x="-10" y="604" type="line"/>
    </contour>
    <contour>
      <point x="246" y="188"/>
      <point x="280" y="200"/>
      <point x="314" y="217" type="curve"/>
      <point x="314" y="285" type="line"/>
      <point x="279" y="269"/>
      <point x="250" y="264"/>
      <point x="207" y="264" type="curve" smooth="yes"/>
      <point x="129" y="264"/>
      <point x="106" y="281"/>
      <point x="106" y="350" type="curve" smooth="yes"/>
      <point x="106" y="419"/>
      <point x="129" y="436"/>
      <point x="207" y="436" type="curve" smooth="yes"/>
      <point x="250" y="436"/>
      <point x="279" y="431"/>
      <point x="314" y="415" type="curve"/>
      <point x="314" y="483" type="line"/>
      <point x="280" y="500"/>
      <point x="246" y="512"/>
      <point x="191" y="512" type="curve" smooth="yes"/>
      <point x="88" y="512"/>
      <point x="40" y="469"/>
      <point x="40" y="350" type="curve" smooth="yes"/>
      <point x="40" y="231"/>
      <point x="88" y="188"/>
      <point x="191" y="188" type="curve" smooth="yes"/>
    </contour>
    <contour>
      <point x="442" y="188" type="line"/>
      <point x="476" y="188" type="line" smooth="yes"/>
      <point x="578" y="188"/>
      <point x="626" y="231"/>
      <point x="626" y="350" type="curve" smooth="yes"/>
      <point x="626" y="469"/>
      <point x="578" y="512"/>
      <point x="475" y="512" type="curve" smooth="yes"/>
      <point x="420" y="512"/>
      <point x="386" y="500"/>
      <point x="352" y="483" type="curve"/>
      <point x="352" y="415" type="line"/>
      <point x="387" y="431"/>
      <point x="416" y="436"/>
      <point x="459" y="436" type="curve" smooth="yes"/>
      <point x="537" y="436"/>
      <point x="560" y="419"/>
      <point x="560" y="350" type="curve" smooth="yes"/>
      <point x="560" y="281"/>
      <point x="537" y="264"/>
      <point x="460" y="264" type="curve" smooth="yes"/>
      <point x="442" y="264" type="line"/>
    </contour>
    <component base="la-deva.loclMAR.post" xOffset="24"/>
  </outline>
</glyph>
<glyph name="k_ssa-deva" format="1">
  <advance width="735"/>
  <outline>
    <contour>
      <point x="745" y="680" type="line"/>
      <point x="467" y="680" type="line"/>
      <point x="467" y="604" type="line"/>
      <point x="571" y="604" type="line"/>
      <point x="571" y="0" type="line"/>
      <point x="639" y="0" type="line"/>
      <point x="639" y="604" type="line"/>
      <point x="745" y="604" type="line"/>
    </contour>
    <contour>
      <point x="417" y="-108" type="line"/>
      <point x="417" y="97" type="line"/>
      <point x="350" y="107" type="line"/>
      <point x="327" y="81"/>
      <point x="279" y="74"/>
      <point x="240" y="74" type="curve" smooth="yes"/>
      <point x="145" y="74"/>
      <point x="112" y="115"/>
      <point x="112" y="186" type="curve" smooth="yes"/>
      <point x="112" y="391"/>
      <point x="385" y="319"/>
      <point x="385" y="538" type="curve" smooth="yes"/>
      <point x="385" y="625"/>
      <point x="342" y="688"/>
      <point x="248" y="688" type="curve" smooth="yes"/>
      <point x="153" y="688"/>
      <point x="107" y="625"/>
      <point x="107" y="539" type="curve" smooth="yes"/>
      <point x="107" y="365"/>
      <point x="293" y="282"/>
      <point x="581" y="282" type="curve" smooth="yes"/>
      <point x="591" y="282" type="line"/>
      <point x="591" y="358" type="line"/>
      <point x="581" y="358" type="line" smooth="yes"/>
      <point x="345" y="358"/>
      <point x="175" y="412"/>
      <point x="175" y="538" type="curve" smooth="yes"/>
      <point x="175" y="585"/>
      <point x="199" y="610"/>
      <point x="248" y="610" type="curve" smooth="yes"/>
      <point x="299" y="610"/>
      <point x="317" y="584"/>
      <point x="317" y="540" type="curve" smooth="yes"/>
      <point x="317" y="369"/>
      <point x="40" y="438"/>
      <point x="40" y="186" type="curve" smooth="yes"/>
      <point x="40" y="66"/>
      <point x="103" y="-8"/>
      <point x="247" y="-8" type="curve" smooth="yes"/>
      <point x="355" y="-8"/>
      <point x="438" y="34"/>
      <point x="438" y="116" type="curve" smooth="yes"/>
      <point x="438" y="166"/>
      <point x="407" y="186"/>
      <point x="348" y="186" type="curve"/>
      <point x="303" y="58" type="line"/>
      <point x="349" y="58" type="line"/>
      <point x="349" y="-108" type="line"/>
    </contour>
    <contour>
      <point x="71" y="-65" type="move" name="nukta"/>
    </contour>
    <contour>
      <point x="615" y="0" type="move" name="bottom"/>
    </contour>
    <contour>
      <point x="605" y="680" type="move" name="top"/>
    </contour>
  </outline>
</glyph>
<glyph name="ka_ra-deva" format="1">
  <advance width="832"/>
  <outline>
    <contour>
      <point x="307" y="166" type="line"/>
      <point x="111" y="-25" type="line"/>
      <point x="214" y="-25" type="line"/>
      <point x="404" y="166" type="line"/>
    </contour>
    <component base="ka-deva"/>
    <contour>
      <point x="40" y="65" type="move" name="nukta"/>
    </contour>
  </outline>
</glyph>
<glyph name="kh_ra_ya-deva" format="1">
  <advance width="1178"/>
  <outline>
    <contour>
      <point x="624" y="604" type="line"/>
      <point x="624" y="680" type="line"/>
      <point x="-10" y="680" type="line"/>
      <point x="-10" y="604" type="line"/>
    </contour>
    <contour>
      <point x="619" y="158"/>
      <point x="676" y="176"/>
      <point x="729" y="207" type="curve"/>
      <point x="705" y="264" type="line"/>
      <point x="658" y="247"/>
      <point x="625" y="240"/>
      <point x="562" y="240" type="curve" smooth="yes"/>
      <point x="469" y="240"/>
      <point x="442" y="255"/>
      <point x="442" y="328" type="curve" smooth="yes"/>
      <point x="442" y="401"/>
      <point x="470" y="416"/>
      <point x="560" y="416" type="curve" smooth="yes"/>
      <point x="622" y="416"/>
      <point x="651" y="409"/>
      <point x="695" y="392" type="curve"/>
      <point x="761" y="427" type="line"/>
      <point x="699" y="472"/>
      <point x="633" y="498"/>
      <point x="541" y="498" type="curve" smooth="yes"/>
      <point x="421" y="498"/>
      <point x="370" y="454"/>
      <point x="370" y="328" type="curve" smooth="yes"/>
      <point x="370" y="201"/>
      <point x="421" y="158"/>
      <point x="542" y="158" type="curve" smooth="yes"/>
    </contour>
    <contour>
      <point x="632" y="207" type="line"/>
      <point x="290" y="-100" type="line"/>
      <point x="392" y="-100" type="line"/>
      <point x="729" y="207" type="line"/>
    </contour>
    <contour>
      <point x="500" y="82" type="line"/>
      <point x="343" y="82"/>
      <point x="237" y="124"/>
      <point x="105" y="294" type="curve"/>
      <point x="108" y="269" type="line"/>
      <point x="236" y="269"/>
      <point x="288" y="318"/>
      <point x="288" y="444" type="curve" smooth="yes"/>
      <point x="288" y="511"/>
      <point x="273" y="579"/>
      <point x="256" y="617" type="curve"/>
      <point x="156" y="617" type="line"/>
      <point x="189" y="582"/>
      <point x="216" y="519"/>
      <point x="216" y="454" type="curve" smooth="yes"/>
      <point x="216" y="365"/>
      <point x="165" y="347"/>
      <point x="78" y="347" type="curve" smooth="yes"/>
      <point x="35" y="347" type="line"/>
      <point x="35" y="277" type="line"/>
      <point x="189" y="56"/>
      <point x="308" y="0"/>
      <point x="473" y="0" type="curve"/>
    </contour>
    <component base="ya-deva" xOffset="601"/>
    <contour>
      <point x="70" y="0" type="move" name="nukta"/>
    </contour>
  </outline>
</glyph>
<glyph name="l_bha-deva" format="1">
  <advance width="1194"/>
  <outline>
    <contour>
      <point x="608" y="604" type="line"/>
      <point x="608" y="680" type="line"/>
      <point x="-10" y="680" type="line"/>
      <point x="-10" y="604" type="line"/>
    </contour>
    <contour>
      <point x="140" y="10"/>
      <point x="174" y="0"/>
      <point x="257" y="0" type="curve" smooth="yes"/>
      <point x="311" y="0" type="line"/>
      <point x="311" y="78" type="line"/>
      <point x="266" y="78" type="line" smooth="yes"/>
      <point x="226" y="78"/>
      <point x="177" y="79"/>
      <point x="153" y="97" type="curve" smooth="yes"/>
      <point x="124" y="118"/>
      <point x="117" y="170"/>
      <point x="117" y="230" type="curve" smooth="yes"/>
      <point x="117" y="349"/>
      <point x="145" y="385"/>
      <point x="241" y="385" type="curve" smooth="yes"/>
      <point x="298" y="385"/>
      <point x="329" y="372"/>
      <point x="356" y="327" type="curve"/>
      <point x="392" y="388" type="line"/>
      <point x="351" y="444"/>
      <point x="311" y="467"/>
      <point x="231" y="467" type="curve" smooth="yes"/>
      <point x="100" y="467"/>
      <point x="45" y="405"/>
      <point x="45" y="234" type="curve" smooth="yes"/>
      <point x="45" y="139"/>
      <point x="62" y="70"/>
      <point x="111" y="32" type="curve" smooth="yes"/>
    </contour>
    <contour>
      <point x="391" y="196" type="line"/>
      <point x="391" y="223" type="line" smooth="yes"/>
      <point x="391" y="342"/>
      <point x="427" y="383"/>
      <point x="529" y="383" type="curve" smooth="yes"/>
      <point x="650" y="383" type="line"/>
      <point x="650" y="461" type="line"/>
      <point x="539" y="461" type="line" smooth="yes"/>
      <point x="383" y="461"/>
      <point x="321" y="392"/>
      <point x="321" y="223" type="curve" smooth="yes"/>
      <point x="321" y="196" type="line"/>
    </contour>
    <component base="bha-deva" xOffset="493"/>
    <contour>
      <point x="60" y="-39" type="move" name="nukta"/>
    </contour>
  </outline>
</glyph>
<glyph name="l_ca-deva" format="1">
  <advance width="1163"/>
  <outline>
    <contour>
      <point x="311" y="0" type="line"/>
      <point x="311" y="78" type="line"/>
      <point x="266" y="78" type="line" smooth="yes"/>
      <point x="226" y="78"/>
      <point x="177" y="79"/>
      <point x="153" y="97" type="curve" smooth="yes"/>
      <point x="124" y="118"/>
      <point x="117" y="170"/>
      <point x="117" y="230" type="curve" smooth="yes"/>
      <point x="117" y="349"/>
      <point x="145" y="385"/>
      <point x="241" y="385" type="curve" smooth="yes"/>
      <point x="298" y="385"/>
      <point x="329" y="372"/>
      <point x="356" y="327" type="curve"/>
      <point x="392" y="388" type="line"/>
      <point x="351" y="444"/>
      <point x="311" y="467"/>
      <point x="231" y="467" type="curve" smooth="yes"/>
      <point x="100" y="467"/>
      <point x="45" y="405"/>
      <point x="45" y="234" type="curve" smooth="yes"/>
      <point x="45" y="139"/>
      <point x="62" y="70"/>
      <point x="111" y="32" type="curve" smooth="yes"/>
      <point x="140" y="10"/>
      <point x="174" y="0"/>
      <point x="257" y="0" type="curve" smooth="yes"/>
    </contour>
    <contour>
      <point x="391" y="196" type="line"/>
      <point x="391" y="223" type="line" smooth="yes"/>
      <point x="391" y="342"/>
      <point x="427" y="383"/>
      <point x="529" y="383" type="curve" smooth="yes"/>
      <point x="919" y="383" type="line"/>
      <point x="919" y="461" type="line"/>
      <point x="539" y="461" type="line" smooth="yes"/>
      <point x="383" y="461"/>
      <point x="321" y="392"/>
      <point x="321" y="223" type="curve" smooth="yes"/>
      <point x="321" y="196" type="line"/>
    </contour>
    <contour>
      <point x="895" y="83"/>
      <point x="977" y="121"/>
      <point x="1009" y="175" type="curve"/>
      <point x="1009" y="259" type="line"/>
      <point x="961" y="200"/>
      <point x="878" y="165"/>
      <point x="792" y="165" type="curve" smooth="yes"/>
      <point x="703" y="165"/>
      <point x="653" y="203"/>
      <point x="653" y="274" type="curve" smooth="yes"/>
      <point x="653" y="329"/>
      <point x="683" y="376"/>
      <point x="730" y="393" type="curve"/>
      <point x="652" y="393" type="line"/>
      <point x="608" y="372"/>
      <point x="587" y="327"/>
      <point x="587" y="266" type="curve" smooth="yes"/>
      <point x="587" y="151"/>
      <point x="663" y="83"/>
      <point x="796" y="83" type="curve" smooth="yes"/>
    </contour>
    <contour>
      <point x="1067" y="0" type="line"/>
      <point x="1067" y="614" type="line"/>
      <point x="999" y="614" type="line"/>
      <point x="999" y="0" type="line"/>
    </contour>
    <contour>
      <point x="-10" y="680" type="line"/>
      <point x="-10" y="604" type="line"/>
      <point x="1173" y="604" type="line"/>
      <point x="1173" y="680" type="line"/>
    </contour>
    <contour>
      <point x="522" y="0" type="move" name="nukta"/>
    </contour>
    <contour>
      <point x="1033" y="0" type="move" name="bottom"/>
    </contour>
    <contour>
      <point x="1033" y="680" type="move" name="top"/>
    </contour>
  </outline>
</glyph>
<glyph name="la_ra-deva" format="1">
  <advance width="743"/>
  <note>
	dLRa
  </note>
  <outline>
    <contour>
      <point x="445" y="0" type="line"/>
      <point x="589" y="214" type="line"/>
      <point x="589" y="337" type="line"/>
      <point x="357" y="0" type="line"/>
    </contour>
    <component base="la-deva"/>
  </outline>
</glyph>
<glyph name="liraTurkish.lf" format="1">
  <advance width="675"/>
  <outline>
    <contour>
      <point x="75" y="680" type="line"/>
      <point x="75" y="623" type="line"/>
      <point x="149" y="594" type="line"/>
      <point x="149" y="85" type="line"/>
      <point x="75" y="55" type="line"/>
      <point x="75" y="0" type="line"/>
      <point x="437" y="0" type="line" smooth="yes"/>
      <point x="570" y="0"/>
      <point x="655" y="55"/>
      <point x="655" y="242" type="curve" smooth="yes"/>
      <point x="655" y="308"/>
      <point x="620" y="342"/>
      <point x="564" y="342" type="curve" smooth="yes"/>
      <point x="512" y="342"/>
      <point x="485" y="314"/>
      <point x="485" y="242" type="curve"/>
      <point x="571" y="212" type="line"/>
      <point x="571" y="108"/>
      <point x="529" y="72"/>
      <point x="429" y="72" type="curve" smooth="yes"/>
      <point x="235" y="72" type="line"/>
      <point x="235" y="680" type="line"/>
    </contour>
    <contour>
      <point x="215" y="553" type="line"/>
      <point x="169" y="538" type="line"/>
      <point x="55" y="486" type="line"/>
      <point x="55" y="407" type="line"/>
      <point x="169" y="461" type="line"/>
      <point x="215" y="476" type="line"/>
      <point x="487" y="601" type="line"/>
      <point x="487" y="680" type="line"/>
    </contour>
    <contour>
      <point x="215" y="373" type="line"/>
      <point x="169" y="358" type="line"/>
      <point x="55" y="306" type="line"/>
      <point x="55" y="227" type="line"/>
      <point x="169" y="281" type="line"/>
      <point x="215" y="296" type="line"/>
      <point x="487" y="421" type="line"/>
      <point x="487" y="500" type="line"/>
    </contour>
  </outline>
</glyph>
<glyph name="m_ra-deva" format="1">
  <advance width="376"/>
  <note>
	dMR.half
  </note>
  <outline>
    <contour>
      <point x="295" y="0" type="line"/>
      <point x="507" y="233" type="line"/>
      <point x="479" y="302" type="line"/>
      <point x="196" y="0" type="line"/>
    </contour>
    <component base="m-deva"/>
    <contour>
      <point x="84" y="47" type="move" name="nukta"/>
    </contour>
  </outline>
</glyph>
<glyph name="ma_ra-deva" format="1">
  <advance width="621"/>
  <note>
	dMRa
  </note>
  <outline>
    <contour>
      <point x="245" y="0" type="line"/>
      <point x="467" y="244" type="line"/>
      <point x="375" y="244" type="line"/>
      <point x="146" y="0" type="line"/>
    </contour>
    <component base="ma-deva"/>
    <contour>
      <point x="44" y="45" type="move" name="nukta"/>
    </contour>
  </outline>
</glyph>
<glyph name="n_na-deva" format="1">
  <advance width="546"/>
  <outline>
    <contour>
      <point x="382" y="614" type="line"/>
      <point x="382" y="0" type="line"/>
      <point x="450" y="0" type="line"/>
      <point x="450" y="614" type="line"/>
    </contour>
    <contour>
      <point x="0" y="680" type="line"/>
      <point x="0" y="604" type="line"/>
      <point x="556" y="604" type="line"/>
      <point x="556" y="680" type="line"/>
    </contour>
    <contour>
      <point x="146" y="379" type="line"/>
      <point x="389" y="293" type="line"/>
      <point x="411" y="358" type="line"/>
      <point x="161" y="446" type="line" smooth="yes"/>
      <point x="137" y="454"/>
      <point x="118" y="457"/>
      <point x="104" y="457" type="curve" smooth="yes"/>
      <point x="55" y="457"/>
      <point x="21" y="422"/>
      <point x="21" y="372" type="curve" smooth="yes"/>
      <point x="21" y="326"/>
      <point x="50" y="302"/>
      <point x="96" y="289" type="curve"/>
      <point x="184" y="383" type="line"/>
    </contour>
    <contour>
      <point x="179" y="138" type="line"/>
      <point x="410" y="251" type="line"/>
      <point x="380" y="312" type="line"/>
      <point x="142" y="195" type="line" smooth="yes"/>
      <point x="89" y="169"/>
      <point x="70" y="140"/>
      <point x="70" y="107" type="curve" smooth="yes"/>
      <point x="70" y="62"/>
      <point x="105" y="20"/>
      <point x="149" y="20" type="curve" smooth="yes"/>
      <point x="165" y="20"/>
      <point x="183" y="26"/>
      <point x="208" y="39" type="curve"/>
      <point x="203" y="168" type="line"/>
    </contour>
    <contour>
      <point x="291" y="-65" type="move" name="nukta"/>
    </contour>
    <contour>
      <point x="416" y="0" type="move" name="bottom"/>
    </contour>
    <contour>
      <point x="416" y="680" type="move" name="top"/>
    </contour>
  </outline>
</glyph>
<glyph name="na-deva.post" format="1">
  <advance width="250"/>
  <outline>
    <contour>
      <point x="151" y="101" type="line"/>
      <point x="335" y="281" type="line"/>
      <point x="287" y="330" type="line"/>
      <point x="98" y="144" type="line" smooth="yes"/>
      <point x="65" y="111"/>
      <point x="53" y="87"/>
      <point x="53" y="62" type="curve" smooth="yes"/>
      <point x="53" y="44"/>
      <point x="59" y="23"/>
      <point x="80" y="2" type="curve" smooth="yes"/>
      <point x="95" y="-13"/>
      <point x="113" y="-23"/>
      <point x="137" y="-23" type="curve" smooth="yes"/>
      <point x="160" y="-23"/>
      <point x="181" y="-14"/>
      <point x="210" y="16" type="curve"/>
      <point x="164" y="137" type="line"/>
    </contour>
  </outline>
</glyph>
<glyph name="na_ra-deva" format="1">
  <advance width="536"/>
  <outline>
    <contour>
      <point x="370" y="614" type="line"/>
      <point x="370" y="0" type="line"/>
      <point x="440" y="0" type="line"/>
      <point x="440" y="614" type="line"/>
    </contour>
    <contour>
      <point x="-10" y="680" type="line"/>
      <point x="-10" y="604" type="line"/>
      <point x="546" y="604" type="line"/>
      <point x="546" y="680" type="line"/>
    </contour>
    <contour>
      <point x="130" y="373" type="line"/>
      <point x="380" y="285" type="line"/>
      <point x="380" y="364" type="line"/>
      <point x="154" y="445" type="line" smooth="yes"/>
      <point x="130" y="453"/>
      <point x="111" y="455"/>
      <point x="98" y="455" type="curve" smooth="yes"/>
      <point x="44" y="455"/>
      <point x="8" y="418"/>
      <point x="8" y="365" type="curve" smooth="yes"/>
      <point x="8" y="320"/>
      <point x="34" y="291"/>
      <point x="71" y="283" type="curve"/>
      <point x="160" y="378" type="line"/>
    </contour>
    <contour>
      <point x="22" y="0" type="line"/>
      <point x="128" y="0" type="line"/>
      <point x="380" y="236" type="line"/>
      <point x="380" y="331" type="line"/>
    </contour>
    <contour>
      <point x="251" y="-65" type="move" name="nukta"/>
    </contour>
    <contour>
      <point x="405" y="0" type="move" name="bottom"/>
    </contour>
    <contour>
      <point x="405" y="680" type="move" name="top"/>
    </contour>
  </outline>
</glyph>
<glyph name="ng_gha-deva" format="1">
  <advance width="634"/>
  <outline>
    <contour>
      <point x="306" y="-256"/>
      <point x="368" y="-235"/>
      <point x="396" y="-210" type="curve"/>
      <point x="396" y="-145" type="line"/>
      <point x="345" y="-171"/>
      <point x="299" y="-180"/>
      <point x="229" y="-180" type="curve" smooth="yes"/>
      <point x="144" y="-180"/>
      <point x="127" y="-167"/>
      <point x="127" y="-117" type="curve" smooth="yes"/>
      <point x="127" y="-73"/>
      <point x="140" y="-58"/>
      <point x="199" y="-58" type="curve" smooth="yes"/>
      <point x="278" y="-58" type="line"/>
      <point x="278" y="14" type="line"/>
      <point x="200" y="14" type="line" smooth="yes"/>
      <point x="121" y="14"/>
      <point x="105" y="24"/>
      <point x="105" y="80" type="curve" smooth="yes"/>
      <point x="105" y="108"/>
      <point x="109" y="132"/>
      <point x="119" y="153" type="curve"/>
      <point x="54" y="153" type="line"/>
      <point x="45" y="137"/>
      <point x="39" y="110"/>
      <point x="39" y="82" type="curve" smooth="yes"/>
      <point x="39" y="8"/>
      <point x="79" y="-29"/>
      <point x="129" y="-39" type="curve"/>
      <point x="129" y="-19" type="line"/>
      <point x="88" y="-23"/>
      <point x="61" y="-59"/>
      <point x="61" y="-121" type="curve" smooth="yes"/>
      <point x="61" y="-203"/>
      <point x="108" y="-256"/>
      <point x="230" y="-256" type="curve" smooth="yes"/>
    </contour>
    <contour>
      <point x="447" y="-321" type="line"/>
      <point x="447" y="164" type="line"/>
      <point x="385" y="164" type="line"/>
      <point x="385" y="-321" type="line"/>
    </contour>
    <component base="ng_deva.post"/>
    <contour>
      <point x="58" y="-307" type="move" name="nukta"/>
    </contour>
    <contour>
      <point x="416" y="-301" type="move" name="bottom"/>
    </contour>
  </outline>
</glyph>
<glyph name="ng_k_ssa-deva" format="1">
  <advance width="634"/>
  <outline>
    <contour>
      <point x="393" y="169" type="line"/>
      <point x="393" y="-321" type="line"/>
      <point x="455" y="-321" type="line"/>
      <point x="455" y="169" type="line"/>
    </contour>
    <contour>
      <point x="268" y="-321"/>
      <point x="325" y="-291"/>
      <point x="325" y="-236" type="curve" smooth="yes"/>
      <point x="325" y="-204"/>
      <point x="306" y="-189"/>
      <point x="256" y="-189" type="curve"/>
      <point x="230" y="-265" type="line"/>
      <point x="253" y="-282" type="line"/>
      <point x="253" y="-394" type="line"/>
      <point x="315" y="-394" type="line"/>
      <point x="315" y="-248" type="line"/>
      <point x="255" y="-231" type="line"/>
      <point x="237" y="-241"/>
      <point x="204" y="-247"/>
      <point x="172" y="-247" type="curve" smooth="yes"/>
      <point x="112" y="-247"/>
      <point x="90" y="-226"/>
      <point x="90" y="-188" type="curve" smooth="yes"/>
      <point x="90" y="-79"/>
      <point x="274" y="-107"/>
      <point x="274" y="28" type="curve" smooth="yes"/>
      <point x="274" y="84"/>
      <point x="243" y="132"/>
      <point x="168" y="132" type="curve" smooth="yes"/>
      <point x="97" y="132"/>
      <point x="60" y="89"/>
      <point x="60" y="29" type="curve" smooth="yes"/>
      <point x="60" y="-75"/>
      <point x="173" y="-146"/>
      <point x="393" y="-146" type="curve" smooth="yes"/>
      <point x="405" y="-146" type="line"/>
      <point x="405" y="-74" type="line"/>
      <point x="393" y="-74" type="line" smooth="yes"/>
      <point x="209" y="-74"/>
      <point x="118" y="-43"/>
      <point x="118" y="29" type="curve" smooth="yes"/>
      <point x="118" y="57"/>
      <point x="132" y="76"/>
      <point x="168" y="76" type="curve" smooth="yes"/>
      <point x="205" y="76"/>
      <point x="216" y="57"/>
      <point x="216" y="31" type="curve" smooth="yes"/>
      <point x="216" y="-77"/>
      <point x="26" y="-32"/>
      <point x="26" y="-196" type="curve" smooth="yes"/>
      <point x="26" y="-276"/>
      <point x="71" y="-321"/>
      <point x="179" y="-321" type="curve" smooth="yes"/>
    </contour>
    <component base="ng_deva.post"/>
    <contour>
      <point x="26" y="-376" type="move" name="nukta"/>
    </contour>
    <contour>
      <point x="424" y="-301" type="move" name="bottom"/>
    </contour>
  </outline>
</glyph>
<glyph name="ng_ka-deva" format="1">
  <advance width="634"/>
  <outline>
    <contour>
      <point x="220" y="-261"/>
      <point x="251" y="-250"/>
      <point x="283" y="-234" type="curve"/>
      <point x="283" y="-166" type="line"/>
      <point x="251" y="-181"/>
      <point x="226" y="-187"/>
      <point x="180" y="-187" type="curve" smooth="yes"/>
      <point x="101" y="-187"/>
      <point x="85" y="-169"/>
      <point x="85" y="-111" type="curve" smooth="yes"/>
      <point x="85" y="-53"/>
      <point x="101" y="-35"/>
      <point x="180" y="-35" type="curve" smooth="yes"/>
      <point x="226" y="-35"/>
      <point x="251" y="-41"/>
      <point x="283" y="-56" type="curve"/>
      <point x="283" y="12" type="line"/>
      <point x="251" y="28"/>
      <point x="220" y="39"/>
      <point x="168" y="39" type="curve" smooth="yes"/>
      <point x="73" y="39"/>
      <point x="21" y="1"/>
      <point x="21" y="-111" type="curve" smooth="yes"/>
      <point x="21" y="-223"/>
      <point x="73" y="-261"/>
      <point x="168" y="-261" type="curve" smooth="yes"/>
    </contour>
    <contour>
      <point x="332" y="-321" type="line"/>
      <point x="332" y="143" type="line"/>
      <point x="270" y="143" type="line"/>
      <point x="270" y="-321" type="line"/>
    </contour>
    <contour>
      <point x="407" y="-261" type="line"/>
      <point x="434" y="-261" type="line" smooth="yes"/>
      <point x="529" y="-261"/>
      <point x="581" y="-223"/>
      <point x="581" y="-111" type="curve" smooth="yes"/>
      <point x="581" y="1"/>
      <point x="529" y="39"/>
      <point x="434" y="39" type="curve" smooth="yes"/>
      <point x="382" y="39"/>
      <point x="351" y="28"/>
      <point x="319" y="12" type="curve"/>
      <point x="319" y="-56" type="line"/>
      <point x="351" y="-41"/>
      <point x="376" y="-35"/>
      <point x="422" y="-35" type="curve" smooth="yes"/>
      <point x="502" y="-35"/>
      <point x="517" y="-53"/>
      <point x="517" y="-111" type="curve" smooth="yes"/>
      <point x="517" y="-170"/>
      <point x="501" y="-187"/>
      <point x="420" y="-187" type="curve" smooth="yes"/>
      <point x="407" y="-187" type="line"/>
    </contour>
    <component base="ng_deva.post"/>
    <contour>
      <point x="5" y="-309" type="move" name="nukta"/>
    </contour>
    <contour>
      <point x="301" y="-301" type="move" name="bottom"/>
    </contour>
  </outline>
</glyph>
<glyph name="notequal.lf" format="1">
  <advance width="646"/>
  <outline>
    <contour>
      <point x="463" y="632" type="line"/>
      <point x="90" y="48" type="line"/>
      <point x="183" y="48" type="line"/>
      <point x="556" y="632" type="line"/>
    </contour>
    <contour>
      <point x="70" y="512" type="line"/>
      <point x="70" y="434" type="line"/>
      <point x="576" y="434" type="line"/>
      <point x="576" y="512" type="line"/>
    </contour>
    <contour>
      <point x="70" y="246" type="line"/>
      <point x="70" y="168" type="line"/>
      <point x="576" y="168" type="line"/>
      <point x="576" y="246" type="line"/>
    </contour>
  </outline>
</glyph>
<glyph name="ny_ca-deva" format="1">
  <advance width="589"/>
  <note>
	dNyCa
  </note>
  <outline>
    <contour>
      <point x="152" y="542"/>
      <point x="119" y="539"/>
      <point x="93" y="533" type="curve"/>
      <point x="93" y="457" type="line"/>
      <point x="121" y="463"/>
      <point x="145" y="466"/>
      <point x="171" y="466" type="curve" smooth="yes"/>
      <point x="237" y="466"/>
      <point x="259" y="447"/>
      <point x="259" y="396" type="curve" smooth="yes"/>
      <point x="259" y="342"/>
      <point x="234" y="319"/>
      <point x="167" y="319" type="curve" smooth="yes"/>
      <point x="103" y="319"/>
      <point x="67" y="340"/>
      <point x="52" y="393" type="curve"/>
      <point x="-10" y="393" type="line"/>
      <point x="3" y="299"/>
      <point x="67" y="243"/>
      <point x="170" y="243" type="curve" smooth="yes"/>
      <point x="272" y="243"/>
      <point x="325" y="299"/>
      <point x="325" y="399" type="curve" smooth="yes"/>
      <point x="325" y="493"/>
      <point x="278" y="542"/>
      <point x="177" y="542" type="curve" smooth="yes"/>
    </contour>
    <contour>
      <point x="-7" y="118" type="line"/>
      <point x="17" y="51" type="line"/>
      <point x="308" y="156" type="line"/>
      <point x="284" y="224" type="line"/>
    </contour>
    <contour>
      <point x="382" y="69"/>
      <point x="309" y="-1"/>
      <point x="229" y="-1" type="curve" smooth="yes"/>
      <point x="180" y="-1"/>
      <point x="156" y="25"/>
      <point x="156" y="72" type="curve" smooth="yes"/>
      <point x="156" y="93"/>
      <point x="161" y="114"/>
      <point x="169" y="127" type="curve"/>
      <point x="101" y="104" type="line"/>
      <point x="95" y="92"/>
      <point x="90" y="72"/>
      <point x="90" y="48" type="curve" smooth="yes"/>
      <point x="90" y="-28"/>
      <point x="142" y="-77"/>
      <point x="222" y="-77" type="curve" smooth="yes"/>
      <point x="309" y="-77"/>
      <point x="398" y="-19"/>
      <point x="435" y="96" type="curve"/>
      <point x="435" y="199" type="line"/>
    </contour>
    <contour>
      <point x="425" y="614" type="line"/>
      <point x="425" y="0" type="line"/>
      <point x="493" y="0" type="line"/>
      <point x="493" y="614" type="line"/>
    </contour>
    <contour>
      <point x="299" y="437" type="line"/>
      <point x="299" y="365" type="line"/>
      <point x="435" y="365" type="line"/>
      <point x="435" y="437" type="line"/>
    </contour>
    <contour>
      <point x="-10" y="680" type="line"/>
      <point x="-10" y="604" type="line"/>
      <point x="599" y="604" type="line"/>
      <point x="599" y="680" type="line"/>
    </contour>
    <contour>
      <point x="21" y="-120" type="move" name="nukta"/>
    </contour>
    <contour>
      <point x="459" y="0" type="move" name="bottom"/>
    </contour>
    <contour>
      <point x="459" y="680" type="move" name="top"/>
    </contour>
  </outline>
</glyph>
<glyph name="nya_ra-deva" format="1">
  <advance width="750"/>
  <note>
	dNyRa
  </note>
  <outline>
    <contour>
      <point x="599" y="216" type="line"/>
      <point x="219" y="-100" type="line"/>
      <point x="332" y="-100" type="line"/>
      <point x="599" y="125" type="line"/>
    </contour>
    <component base="nya-deva"/>
  </outline>
</glyph>
<glyph name="ogonek.case" format="1">
  <advance width="500"/>
  <outline>
    <contour>
      <point x="318" y="-165"/>
      <point x="291" y="-168"/>
      <point x="265" y="-168" type="curve" smooth="yes"/>
      <point x="222" y="-168"/>
      <point x="192" y="-153"/>
      <point x="192" y="-114" type="curve" smooth="yes"/>
      <point x="192" y="-73"/>
      <point x="223" y="-40"/>
      <point x="315" y="0" type="curve"/>
      <point x="230" y="0" type="line"/>
      <point x="144" y="-30"/>
      <point x="114" y="-73"/>
      <point x="114" y="-128" type="curve" smooth="yes"/>
      <point x="114" y="-206"/>
      <point x="185" y="-224"/>
      <point x="257" y="-224" type="curve" smooth="yes"/>
      <point x="292" y="-224"/>
      <point x="320" y="-220"/>
      <point x="338" y="-214" type="curve"/>
      <point x="338" y="-160" type="line"/>
    </contour>
    <contour>
      <point x="250" y="10" type="move" name="_ogonek"/>
    </contour>
  </outline>
</glyph>
<glyph name="one.lf" format="1">
  <advance width="359"/>
  <outline>
    <contour>
      <point x="159" y="680" type="line"/>
      <point x="60" y="650" type="line"/>
      <point x="60" y="595" type="line"/>
      <point x="144" y="595" type="line"/>
      <point x="144" y="85" type="line"/>
      <point x="70" y="55" type="line"/>
      <point x="70" y="0" type="line"/>
      <point x="304" y="0" type="line"/>
      <point x="304" y="55" type="line"/>
      <point x="230" y="85" type="line"/>
      <point x="230" y="680" type="line"/>
    </contour>
  </outline>
</glyph>
<glyph name="one.numr" format="1">
  <advance width="318"/>
  <outline>
    <contour>
      <point x="42" y="204" type="line"/>
      <point x="42" y="254" type="line"/>
      <point x="127" y="281" type="line"/>
      <point x="127" y="600" type="line"/>
      <point x="37" y="600" type="line"/>
      <point x="37" y="650" type="line"/>
      <point x="147" y="680" type="line"/>
      <point x="201" y="680" type="line"/>
      <point x="201" y="281" type="line"/>
      <point x="286" y="254" type="line"/>
      <point x="286" y="204" type="line"/>
    </contour>
  </outline>
</glyph>
<glyph name="pa_la-deva.loclMAR" format="1">
  <advance width="561"/>
  <outline>
    <contour>
      <point x="320" y="218"/>
      <point x="373" y="225"/>
      <point x="416" y="240" type="curve"/>
      <point x="416" y="317" type="line"/>
      <point x="373" y="301"/>
      <point x="321" y="294"/>
      <point x="278" y="294" type="curve" smooth="yes"/>
      <point x="189" y="294"/>
      <point x="143" y="323"/>
      <point x="143" y="415" type="curve" smooth="yes"/>
      <point x="143" y="614" type="line"/>
      <point x="81" y="614" type="line"/>
      <point x="81" y="418" type="line" smooth="yes"/>
      <point x="81" y="272"/>
      <point x="157" y="218"/>
      <point x="277" y="218" type="curve" smooth="yes"/>
    </contour>
    <contour>
      <point x="465" y="60" type="line"/>
      <point x="465" y="614" type="line"/>
      <point x="403" y="614" type="line"/>
      <point x="403" y="60" type="line"/>
    </contour>
    <contour>
      <point x="571" y="604" type="line"/>
      <point x="571" y="680" type="line"/>
      <point x="-10" y="680" type="line"/>
      <point x="-10" y="604" type="line"/>
    </contour>
    <component base="la-deva.loclMAR.post" xOffset="-36"/>
  </outline>
</glyph>
<glyph name="ph_la-deva.loclMAR" format="1">
  <advance width="673"/>
  <outline>
    <contour>
      <point x="387" y="7" type="line"/>
      <point x="387" y="614" type="line"/>
      <point x="321" y="614" type="line"/>
      <point x="321" y="7" type="line"/>
    </contour>
    <contour>
      <point x="595" y="186"/>
      <point x="638" y="242"/>
      <point x="638" y="345" type="curve" smooth="yes"/>
      <point x="638" y="454"/>
      <point x="590" y="510"/>
      <point x="480" y="510" type="curve" smooth="yes"/>
      <point x="439" y="510"/>
      <point x="403" y="502"/>
      <point x="368" y="486" type="curve"/>
      <point x="368" y="418" type="line"/>
      <point x="405" y="430"/>
      <point x="435" y="434"/>
      <point x="470" y="434" type="curve" smooth="yes"/>
      <point x="550" y="434"/>
      <point x="576" y="413"/>
      <point x="576" y="346" type="curve" smooth="yes"/>
      <point x="576" y="283"/>
      <point x="553" y="262"/>
      <point x="475" y="262" type="curve" smooth="yes"/>
      <point x="447" y="262" type="line"/>
      <point x="447" y="186" type="line"/>
      <point x="472" y="186" type="line" smooth="yes"/>
    </contour>
    <contour>
      <point x="683" y="604" type="line"/>
      <point x="683" y="680" type="line"/>
      <point x="-10" y="680" type="line"/>
      <point x="-10" y="604" type="line"/>
    </contour>
    <contour>
      <point x="264" y="237"/>
      <point x="301" y="242"/>
      <point x="334" y="254" type="curve"/>
      <point x="334" y="331" type="line"/>
      <point x="301" y="318"/>
      <point x="265" y="313"/>
      <point x="235" y="313" type="curve" smooth="yes"/>
      <point x="171" y="313"/>
      <point x="138" y="336"/>
      <point x="138" y="405" type="curve" smooth="yes"/>
      <point x="138" y="614" type="line"/>
      <point x="76" y="614" type="line"/>
      <point x="76" y="397" type="line" smooth="yes"/>
      <point x="76" y="279"/>
      <point x="138" y="237"/>
      <point x="231" y="237" type="curve" smooth="yes"/>
    </contour>
    <component base="la-deva.loclMAR.post" xOffset="45"/>
  </outline>
</glyph>
<glyph name="plus.lf" format="1">
  <advance width="646"/>
  <outline>
    <contour>
      <point x="286" y="594" type="line"/>
      <point x="286" y="86" type="line"/>
      <point x="360" y="86" type="line"/>
      <point x="360" y="594" type="line"/>
    </contour>
    <contour>
      <point x="70" y="379" type="line"/>
      <point x="70" y="301" type="line"/>
      <point x="576" y="301" type="line"/>
      <point x="576" y="379" type="line"/>
    </contour>
  </outline>
</glyph>
<glyph name="ra-deva.post" format="1">
  <advance width="250"/>
  <outline>
    <contour>
      <point x="-12" y="-15" type="line"/>
      <point x="40" y="-68" type="line"/>
      <point x="318" y="219" type="line"/>
      <point x="272" y="267" type="line"/>
    </contour>
  </outline>
</glyph>
<glyph name="ra_uuMatra-deva" format="1">
  <advance width="637"/>
  <note>
	dRMatraUu
  </note>
  <outline>
    <contour>
      <point x="387" y="680" type="line"/>
      <point x="387" y="604" type="line"/>
      <point x="647" y="604" type="line"/>
      <point x="647" y="680" type="line"/>
    </contour>
    <contour>
      <point x="430" y="250"/>
      <point x="398" y="245"/>
      <point x="371" y="245" type="curve" smooth="yes"/>
      <point x="320" y="245"/>
      <point x="296" y="262"/>
      <point x="296" y="306" type="curve" smooth="yes"/>
      <point x="296" y="351"/>
      <point x="321" y="374"/>
      <point x="405" y="374" type="curve" smooth="yes"/>
      <point x="475" y="374"/>
      <point x="539" y="358"/>
      <point x="617" y="322" type="curve"/>
      <point x="617" y="394" type="line"/>
      <point x="556" y="427"/>
      <point x="478" y="446"/>
      <point x="409" y="446" type="curve" smooth="yes"/>
      <point x="289" y="446"/>
      <point x="238" y="389"/>
      <point x="238" y="304" type="curve" smooth="yes"/>
      <point x="238" y="222"/>
      <point x="285" y="173"/>
      <point x="369" y="173" type="curve" smooth="yes"/>
      <point x="396" y="173"/>
      <point x="434" y="178"/>
      <point x="466" y="190" type="curve"/>
      <point x="466" y="262" type="line"/>
    </contour>
    <component base="ra-deva"/>
  </outline>
</glyph>
<glyph name="reph_anusvara-deva" format="1">
  <advance width="250"/>
  <outline>
    <component base="reph-deva" xOffset="1"/>
    <component base="anusvara-deva" xOffset="138" yOffset="-25"/>
    <contour>
      <point x="130" y="680" type="move" name="_top"/>
    </contour>
  </outline>
</glyph>
<glyph name="ring.case" format="1">
  <advance width="500"/>
  <outline>
    <contour>
      <point x="332" y="732"/>
      <point x="376" y="774"/>
      <point x="376" y="850" type="curve" smooth="yes"/>
      <point x="376" y="926"/>
      <point x="332" y="968"/>
      <point x="250" y="968" type="curve" smooth="yes"/>
      <point x="168" y="968"/>
      <point x="124" y="926"/>
      <point x="124" y="850" type="curve" smooth="yes"/>
      <point x="124" y="774"/>
      <point x="168" y="732"/>
      <point x="250" y="732" type="curve" smooth="yes"/>
    </contour>
    <contour>
      <point x="211" y="787"/>
      <point x="188" y="805"/>
      <point x="188" y="850" type="curve" smooth="yes"/>
      <point x="188" y="895"/>
      <point x="211" y="913"/>
      <point x="250" y="913" type="curve" smooth="yes"/>
      <point x="289" y="913"/>
      <point x="312" y="895"/>
      <point x="312" y="850" type="curve" smooth="yes"/>
      <point x="312" y="805"/>
      <point x="289" y="787"/>
      <point x="250" y="787" type="curve" smooth="yes"/>
    </contour>
    <contour>
      <point x="250" y="680" type="move" name="_top"/>
    </contour>
  </outline>
</glyph>
<glyph name="rr-deva" format="1">
  <advance width="207"/>
  <outline>
    <contour>
      <point x="243" y="194"/>
      <point x="298" y="208"/>
      <point x="336" y="234" type="curve"/>
      <point x="336" y="306" type="line"/>
      <point x="302" y="287"/>
      <point x="251" y="276"/>
      <point x="194" y="276" type="curve" smooth="yes"/>
      <point x="96" y="276"/>
      <point x="58" y="306"/>
      <point x="58" y="386" type="curve"/>
      <point x="-10" y="386" type="line"/>
      <point x="-10" y="259"/>
      <point x="47" y="194"/>
      <point x="182" y="194" type="curve" smooth="yes"/>
    </contour>
    <contour>
      <point x="287" y="604" type="line"/>
      <point x="287" y="680" type="line"/>
      <point x="-10" y="680" type="line"/>
      <point x="-10" y="604" type="line"/>
    </contour>
    <contour>
      <point x="50" y="65" type="move" name="nukta"/>
    </contour>
  </outline>
</glyph>
<glyph name="rr_ha-deva" format="1">
  <advance width="751"/>
  <note>
	dRrHa
  </note>
  <outline>
    <contour>
      <point x="-10" y="680" type="line"/>
      <point x="-10" y="604" type="line"/>
      <point x="237" y="604" type="line"/>
      <point x="237" y="680" type="line"/>
    </contour>
    <contour>
      <point x="243" y="194"/>
      <point x="298" y="208"/>
      <point x="336" y="234" type="curve"/>
      <point x="336" y="306" type="line"/>
      <point x="302" y="287"/>
      <point x="251" y="276"/>
      <point x="194" y="276" type="curve" smooth="yes"/>
      <point x="96" y="276"/>
      <point x="58" y="306"/>
      <point x="58" y="386" type="curve"/>
      <point x="-10" y="386" type="line"/>
      <point x="-10" y="259"/>
      <point x="47" y="194"/>
      <point x="182" y="194" type="curve" smooth="yes"/>
    </contour>
    <component base="ha-deva" xOffset="223"/>
    <contour>
      <point x="50" y="65" type="move" name="nukta"/>
    </contour>
  </outline>
</glyph>
<glyph name="rupeeIndian.lf" format="1">
  <advance width="716"/>
  <outline>
    <contour>
      <point x="60" y="680" type="line"/>
      <point x="60" y="604" type="line"/>
      <point x="373" y="604" type="line" smooth="yes"/>
      <point x="463" y="604"/>
      <point x="495" y="575"/>
      <point x="495" y="477" type="curve" smooth="yes"/>
      <point x="495" y="371"/>
      <point x="453" y="350"/>
      <point x="363" y="350" type="curve" smooth="yes"/>
      <point x="60" y="350" type="line"/>
      <point x="60" y="278" type="line"/>
      <point x="372" y="278" type="line" smooth="yes"/>
      <point x="503" y="278"/>
      <point x="581" y="337"/>
      <point x="581" y="477" type="curve" smooth="yes"/>
      <point x="581" y="629"/>
      <point x="503" y="680"/>
      <point x="372" y="680" type="curve" smooth="yes"/>
    </contour>
    <contour>
      <point x="114" y="288" type="line"/>
      <point x="508" y="0" type="line"/>
      <point x="596" y="0" type="line"/>
      <point x="596" y="55" type="line"/>
      <point x="533" y="81" type="line"/>
      <point x="246" y="288" type="line"/>
    </contour>
    <contour>
      <point x="60" y="513" type="line"/>
      <point x="60" y="441" type="line"/>
      <point x="676" y="441" type="line"/>
      <point x="676" y="513" type="line"/>
    </contour>
    <contour>
      <point x="362" y="680" type="line"/>
      <point x="362" y="604" type="line"/>
      <point x="676" y="604" type="line"/>
      <point x="676" y="680" type="line"/>
    </contour>
  </outline>
</glyph>
<glyph name="s_tha-deva" format="1">
  <advance width="1082"/>
  <outline>
    <contour>
      <point x="193" y="614" type="line"/>
      <point x="225" y="579"/>
      <point x="254" y="515"/>
      <point x="254" y="454" type="curve" smooth="yes"/>
      <point x="254" y="365"/>
      <point x="193" y="347"/>
      <point x="75" y="347" type="curve" smooth="yes"/>
      <point x="35" y="347" type="line"/>
      <point x="35" y="279" type="line"/>
      <point x="245" y="0" type="line"/>
      <point x="338" y="0" type="line"/>
      <point x="338" y="1" type="line"/>
      <point x="102" y="305" type="line"/>
      <point x="102" y="269" type="line"/>
      <point x="261" y="269"/>
      <point x="326" y="315"/>
      <point x="326" y="441" type="curve" smooth="yes"/>
      <point x="326" y="509"/>
      <point x="307" y="576"/>
      <point x="287" y="614" type="curve"/>
    </contour>
    <contour>
      <point x="-10" y="680" type="line"/>
      <point x="-10" y="604" type="line"/>
      <point x="437" y="604" type="line"/>
      <point x="437" y="680" type="line"/>
    </contour>
    <contour>
      <point x="918" y="614" type="line"/>
      <point x="918" y="0" type="line"/>
      <point x="986" y="0" type="line"/>
      <point x="986" y="614" type="line"/>
    </contour>
    <contour>
      <point x="838" y="680" type="line"/>
      <point x="838" y="604" type="line"/>
      <point x="1092" y="604" type="line"/>
      <point x="1092" y="680" type="line"/>
    </contour>
    <contour>
      <point x="508" y="357" type="line"/>
      <point x="523" y="221"/>
      <point x="615" y="159"/>
      <point x="777" y="159" type="curve" smooth="yes"/>
      <point x="831" y="159"/>
      <point x="887" y="166"/>
      <point x="930" y="188" type="curve"/>
      <point x="930" y="262" type="line"/>
      <point x="872" y="246"/>
      <point x="832" y="241"/>
      <point x="776" y="241" type="curve" smooth="yes"/>
      <point x="647" y="241"/>
      <point x="597" y="268"/>
      <point x="576" y="357" type="curve"/>
    </contour>
    <contour>
      <point x="770" y="651"/>
      <point x="726" y="688"/>
      <point x="636" y="688" type="curve" smooth="yes"/>
      <point x="542" y="688"/>
      <point x="503" y="648"/>
      <point x="503" y="570" type="curve" smooth="yes"/>
      <point x="503" y="488"/>
      <point x="546" y="453"/>
      <point x="625" y="453" type="curve"/>
      <point x="625" y="525" type="line"/>
      <point x="583" y="525"/>
      <point x="567" y="537"/>
      <point x="567" y="568" type="curve" smooth="yes"/>
      <point x="567" y="599"/>
      <point x="584" y="612"/>
      <point x="626" y="612" type="curve" smooth="yes"/>
      <point x="675" y="612"/>
      <point x="698" y="594"/>
      <point x="698" y="526" type="curve" smooth="yes"/>
      <point x="698" y="409"/>
      <point x="629" y="385"/>
      <point x="502" y="385" type="curve" smooth="yes"/>
      <point x="425" y="385"/>
      <point x="359" y="394"/>
      <point x="306" y="415" type="curve"/>
      <point x="279" y="347" type="line"/>
      <point x="327" y="323"/>
      <point x="408" y="305"/>
      <point x="504" y="305" type="curve" smooth="yes"/>
      <point x="710" y="305"/>
      <point x="770" y="388"/>
      <point x="770" y="530" type="curve" smooth="yes"/>
    </contour>
    <contour>
      <point x="70" y="0" type="move" name="nukta"/>
    </contour>
    <contour>
      <point x="952" y="0" type="move" name="bottom"/>
    </contour>
    <contour>
      <point x="952" y="680" type="move" name="top"/>
    </contour>
  </outline>
</glyph>
<glyph name="seven.lf" format="1">
  <advance width="549"/>
  <outline>
    <contour>
      <point x="13" y="680" type="line"/>
      <point x="13" y="503" type="line"/>
      <point x="71" y="503" type="line"/>
      <point x="95" y="608" type="line"/>
      <point x="449" y="608" type="line"/>
      <point x="449" y="414"/>
      <point x="184" y="349"/>
      <point x="184" y="0" type="curve"/>
      <point x="272" y="0" type="line"/>
      <point x="272" y="331"/>
      <point x="533" y="363"/>
      <point x="533" y="623" type="curve" smooth="yes"/>
      <point x="533" y="680" type="line"/>
    </contour>
  </outline>
</glyph>
<glyph name="sh_na-deva" format="1">
  <advance width="711"/>
  <outline>
    <contour>
      <point x="256" y="119" type="line"/>
      <point x="569" y="291" type="line"/>
      <point x="535" y="350" type="line"/>
      <point x="217" y="175" type="line" smooth="yes"/>
      <point x="175" y="152"/>
      <point x="149" y="128"/>
      <point x="149" y="88" type="curve" smooth="yes"/>
      <point x="149" y="41"/>
      <point x="185" y="0"/>
      <point x="229" y="0" type="curve" smooth="yes"/>
      <point x="246" y="0"/>
      <point x="264" y="6"/>
      <point x="290" y="21" type="curve"/>
      <point x="279" y="150" type="line"/>
    </contour>
    <component base="sh-deva.base"/>
    <contour>
      <point x="83" y="-65" type="move" name="nukta"/>
    </contour>
  </outline>
</glyph>
<glyph name="sh_va-deva" format="1">
  <advance width="711"/>
  <outline>
    <contour>
      <point x="485" y="20"/>
      <point x="524" y="34"/>
      <point x="563" y="53" type="curve"/>
      <point x="563" y="124" type="line"/>
      <point x="521" y="107"/>
      <point x="486" y="102"/>
      <point x="428" y="102" type="curve" smooth="yes"/>
      <point x="323" y="102"/>
      <point x="292" y="118"/>
      <point x="292" y="196" type="curve" smooth="yes"/>
      <point x="292" y="273"/>
      <point x="322" y="289"/>
      <point x="424" y="289" type="curve" smooth="yes"/>
      <point x="572" y="289" type="line"/>
      <point x="572" y="367" type="line"/>
      <point x="274" y="368"/>
      <point x="155" y="433"/>
      <point x="155" y="536" type="curve" smooth="yes"/>
      <point x="155" y="582"/>
      <point x="179" y="606"/>
      <point x="227" y="606" type="curve" smooth="yes"/>
      <point x="275" y="606"/>
      <point x="298" y="581"/>
      <point x="298" y="534" type="curve" smooth="yes"/>
      <point x="298" y="462"/>
      <point x="243" y="414"/>
      <point x="49" y="365" type="curve"/>
      <point x="49" y="284" type="line"/>
      <point x="237" y="340"/>
      <point x="370" y="393"/>
      <point x="370" y="538" type="curve" smooth="yes"/>
      <point x="370" y="626"/>
      <point x="322" y="688"/>
      <point x="227" y="688" type="curve" smooth="yes"/>
      <point x="143" y="688"/>
      <point x="85" y="639"/>
      <point x="83" y="542" type="curve" smooth="yes"/>
      <point x="81" y="443"/>
      <point x="142" y="360"/>
      <point x="293" y="317" type="curve"/>
      <point x="286" y="335" type="line"/>
      <point x="240" y="316"/>
      <point x="216" y="271"/>
      <point x="216" y="194" type="curve" smooth="yes"/>
      <point x="216" y="66"/>
      <point x="283" y="20"/>
      <point x="413" y="20" type="curve" smooth="yes"/>
    </contour>
    <contour>
      <point x="615" y="-80" type="line"/>
      <point x="615" y="614" type="line"/>
      <point x="547" y="614" type="line"/>
      <point x="547" y="-80" type="line"/>
    </contour>
    <contour>
      <point x="721" y="604" type="line"/>
      <point x="721" y="680" type="line"/>
      <point x="443" y="680" type="line"/>
      <point x="443" y="604" type="line"/>
    </contour>
    <contour>
      <point x="83" y="143" type="move" name="nukta"/>
    </contour>
    <contour>
      <point x="581" y="-80" type="move" name="bottom"/>
    </contour>
    <contour>
      <point x="581" y="680" type="move" name="top"/>
    </contour>
  </outline>
</glyph>
<glyph name="sha-deva.loclMAR" format="1">
  <advance width="754"/>
  <outline>
    <contour>
      <point x="658" y="0" type="line"/>
      <point x="658" y="614" type="line"/>
      <point x="590" y="614" type="line"/>
      <point x="590" y="0" type="line"/>
    </contour>
    <contour>
      <point x="477" y="680" type="line"/>
      <point x="477" y="604" type="line"/>
      <point x="764" y="604" type="line"/>
      <point x="764" y="680" type="line"/>
    </contour>
    <component base="sh-deva.loclMAR"/>
    <contour>
      <point x="624" y="680" type="move" name="top"/>
    </contour>
    <contour>
      <point x="624" y="0" type="move" name="bottom"/>
    </contour>
  </outline>
</glyph>
<glyph name="ss_tth_va-deva" format="1">
  <advance width="578"/>
  <outline>
    <contour>
      <point x="482" y="-359" type="line"/>
      <point x="482" y="69" type="line"/>
      <point x="420" y="9" type="line"/>
      <point x="420" y="-359" type="line"/>
    </contour>
    <contour>
      <point x="588" y="604" type="line"/>
      <point x="588" y="680" type="line"/>
      <point x="-10" y="680" type="line"/>
      <point x="-10" y="604" type="line"/>
    </contour>
    <contour>
      <point x="588" y="604" type="line"/>
      <point x="588" y="680" type="line"/>
      <point x="-10" y="680" type="line"/>
      <point x="-10" y="604" type="line"/>
    </contour>
    <contour>
      <point x="96" y="-266"/>
      <point x="164" y="-309"/>
      <point x="283" y="-309" type="curve" smooth="yes"/>
      <point x="350" y="-309"/>
      <point x="391" y="-295"/>
      <point x="432" y="-276" type="curve"/>
      <point x="432" y="-211" type="line"/>
      <point x="387" y="-228"/>
      <point x="351" y="-233"/>
      <point x="295" y="-233" type="curve" smooth="yes"/>
      <point x="195" y="-233"/>
      <point x="162" y="-217"/>
      <point x="162" y="-151" type="curve" smooth="yes"/>
      <point x="162" y="-86"/>
      <point x="193" y="-70"/>
      <point x="289" y="-70" type="curve" smooth="yes"/>
      <point x="347" y="-70"/>
      <point x="383" y="-76"/>
      <point x="428" y="-92" type="curve"/>
      <point x="428" y="-29" type="line"/>
      <point x="384" y="-11"/>
      <point x="343" y="-2"/>
      <point x="283" y="-2" type="curve" smooth="yes"/>
      <point x="163" y="-2"/>
      <point x="96" y="-38"/>
      <point x="96" y="-151" type="curve" smooth="yes"/>
    </contour>
    <contour>
      <point x="414" y="-70"/>
      <point x="492" y="-15"/>
      <point x="492" y="120" type="curve" smooth="yes"/>
      <point x="492" y="255"/>
      <point x="414" y="310"/>
      <point x="289" y="310" type="curve" smooth="yes"/>
      <point x="164" y="310"/>
      <point x="86" y="255"/>
      <point x="86" y="120" type="curve" smooth="yes"/>
      <point x="86" y="-15"/>
      <point x="164" y="-70"/>
      <point x="289" y="-70" type="curve" smooth="yes"/>
    </contour>
    <contour>
      <point x="188" y="2"/>
      <point x="148" y="35"/>
      <point x="148" y="120" type="curve" smooth="yes"/>
      <point x="148" y="205"/>
      <point x="188" y="238"/>
      <point x="289" y="238" type="curve" smooth="yes"/>
      <point x="390" y="238"/>
      <point x="430" y="205"/>
      <point x="430" y="120" type="curve" smooth="yes"/>
      <point x="430" y="35"/>
      <point x="390" y="2"/>
      <point x="289" y="2" type="curve" smooth="yes"/>
    </contour>
    <contour>
      <point x="439" y="290" type="line"/>
      <point x="229" y="614" type="line"/>
      <point x="158" y="614" type="line"/>
      <point x="368" y="290" type="line"/>
    </contour>
    <contour>
      <point x="482" y="169" type="line"/>
      <point x="482" y="614" type="line"/>
      <point x="420" y="614" type="line"/>
      <point x="420" y="304" type="line"/>
      <point x="430" y="310" type="line"/>
      <point x="289" y="310" type="line" smooth="yes"/>
      <point x="204" y="310"/>
      <point x="158" y="340"/>
      <point x="158" y="424" type="curve" smooth="yes"/>
      <point x="158" y="614" type="line"/>
      <point x="96" y="614" type="line"/>
      <point x="96" y="426" type="line" smooth="yes"/>
      <point x="96" y="339"/>
      <point x="121" y="292"/>
      <point x="196" y="261" type="curve"/>
      <point x="420" y="261" type="line"/>
    </contour>
    <contour>
      <point x="96" y="-359" type="move" name="nukta"/>
    </contour>
    <contour>
      <point x="451" y="-359" type="move" name="bottom"/>
    </contour>
    <contour>
      <point x="451" y="680" type="move" name="top"/>
    </contour>
  </outline>
</glyph>
<glyph name="ssa_ra-deva" format="1">
  <advance width="594"/>
  <outline>
    <contour>
      <point x="339" y="197" type="line"/>
      <point x="93" y="0" type="line"/>
      <point x="208" y="0" type="line"/>
      <point x="446" y="197" type="line"/>
    </contour>
    <component base="ssa-deva"/>
    <contour>
      <point x="81" y="110" type="move" name="nukta"/>
    </contour>
  </outline>
</glyph>
